G04 #@! TF.GenerationSoftware,KiCad,Pcbnew,8.0.6*
G04 #@! TF.CreationDate,2024-11-24T13:18:29+01:00*
G04 #@! TF.ProjectId,SS-XMAS,53532d58-4d41-4532-9e6b-696361645f70,rev?*
G04 #@! TF.SameCoordinates,Original*
G04 #@! TF.FileFunction,Legend,Bot*
G04 #@! TF.FilePolarity,Positive*
%FSLAX46Y46*%
G04 Gerber Fmt 4.6, Leading zero omitted, Abs format (unit mm)*
G04 Created by KiCad (PCBNEW 8.0.6) date 2024-11-24 13:18:29*
%MOMM*%
%LPD*%
G01*
G04 APERTURE LIST*
%ADD10C,0.300000*%
%ADD11C,0.150000*%
%ADD12C,0.120000*%
G04 APERTURE END LIST*
D10*
X89499171Y-90859774D02*
X89499171Y-90002632D01*
X87999171Y-90431203D02*
X89499171Y-90431203D01*
X87999171Y-89502632D02*
X89499171Y-89502632D01*
X87999171Y-88859775D02*
X88784885Y-88859775D01*
X88784885Y-88859775D02*
X88927742Y-88931203D01*
X88927742Y-88931203D02*
X88999171Y-89074060D01*
X88999171Y-89074060D02*
X88999171Y-89288346D01*
X88999171Y-89288346D02*
X88927742Y-89431203D01*
X88927742Y-89431203D02*
X88856314Y-89502632D01*
X87999171Y-88145489D02*
X88999171Y-88145489D01*
X89499171Y-88145489D02*
X89427742Y-88216917D01*
X89427742Y-88216917D02*
X89356314Y-88145489D01*
X89356314Y-88145489D02*
X89427742Y-88074060D01*
X89427742Y-88074060D02*
X89499171Y-88145489D01*
X89499171Y-88145489D02*
X89356314Y-88145489D01*
X88070600Y-87502631D02*
X87999171Y-87359774D01*
X87999171Y-87359774D02*
X87999171Y-87074060D01*
X87999171Y-87074060D02*
X88070600Y-86931203D01*
X88070600Y-86931203D02*
X88213457Y-86859774D01*
X88213457Y-86859774D02*
X88284885Y-86859774D01*
X88284885Y-86859774D02*
X88427742Y-86931203D01*
X88427742Y-86931203D02*
X88499171Y-87074060D01*
X88499171Y-87074060D02*
X88499171Y-87288346D01*
X88499171Y-87288346D02*
X88570600Y-87431203D01*
X88570600Y-87431203D02*
X88713457Y-87502631D01*
X88713457Y-87502631D02*
X88784885Y-87502631D01*
X88784885Y-87502631D02*
X88927742Y-87431203D01*
X88927742Y-87431203D02*
X88999171Y-87288346D01*
X88999171Y-87288346D02*
X88999171Y-87074060D01*
X88999171Y-87074060D02*
X88927742Y-86931203D01*
X87999171Y-85074060D02*
X88999171Y-85074060D01*
X88856314Y-85074060D02*
X88927742Y-85002631D01*
X88927742Y-85002631D02*
X88999171Y-84859774D01*
X88999171Y-84859774D02*
X88999171Y-84645488D01*
X88999171Y-84645488D02*
X88927742Y-84502631D01*
X88927742Y-84502631D02*
X88784885Y-84431203D01*
X88784885Y-84431203D02*
X87999171Y-84431203D01*
X88784885Y-84431203D02*
X88927742Y-84359774D01*
X88927742Y-84359774D02*
X88999171Y-84216917D01*
X88999171Y-84216917D02*
X88999171Y-84002631D01*
X88999171Y-84002631D02*
X88927742Y-83859774D01*
X88927742Y-83859774D02*
X88784885Y-83788345D01*
X88784885Y-83788345D02*
X87999171Y-83788345D01*
X87999171Y-82431203D02*
X88784885Y-82431203D01*
X88784885Y-82431203D02*
X88927742Y-82502631D01*
X88927742Y-82502631D02*
X88999171Y-82645488D01*
X88999171Y-82645488D02*
X88999171Y-82931203D01*
X88999171Y-82931203D02*
X88927742Y-83074060D01*
X88070600Y-82431203D02*
X87999171Y-82574060D01*
X87999171Y-82574060D02*
X87999171Y-82931203D01*
X87999171Y-82931203D02*
X88070600Y-83074060D01*
X88070600Y-83074060D02*
X88213457Y-83145488D01*
X88213457Y-83145488D02*
X88356314Y-83145488D01*
X88356314Y-83145488D02*
X88499171Y-83074060D01*
X88499171Y-83074060D02*
X88570600Y-82931203D01*
X88570600Y-82931203D02*
X88570600Y-82574060D01*
X88570600Y-82574060D02*
X88642028Y-82431203D01*
X88070600Y-81074060D02*
X87999171Y-81216917D01*
X87999171Y-81216917D02*
X87999171Y-81502631D01*
X87999171Y-81502631D02*
X88070600Y-81645488D01*
X88070600Y-81645488D02*
X88142028Y-81716917D01*
X88142028Y-81716917D02*
X88284885Y-81788345D01*
X88284885Y-81788345D02*
X88713457Y-81788345D01*
X88713457Y-81788345D02*
X88856314Y-81716917D01*
X88856314Y-81716917D02*
X88927742Y-81645488D01*
X88927742Y-81645488D02*
X88999171Y-81502631D01*
X88999171Y-81502631D02*
X88999171Y-81216917D01*
X88999171Y-81216917D02*
X88927742Y-81074060D01*
X87999171Y-80431203D02*
X89499171Y-80431203D01*
X87999171Y-79788346D02*
X88784885Y-79788346D01*
X88784885Y-79788346D02*
X88927742Y-79859774D01*
X88927742Y-79859774D02*
X88999171Y-80002631D01*
X88999171Y-80002631D02*
X88999171Y-80216917D01*
X88999171Y-80216917D02*
X88927742Y-80359774D01*
X88927742Y-80359774D02*
X88856314Y-80431203D01*
X87999171Y-79074060D02*
X88999171Y-79074060D01*
X89499171Y-79074060D02*
X89427742Y-79145488D01*
X89427742Y-79145488D02*
X89356314Y-79074060D01*
X89356314Y-79074060D02*
X89427742Y-79002631D01*
X89427742Y-79002631D02*
X89499171Y-79074060D01*
X89499171Y-79074060D02*
X89356314Y-79074060D01*
X88999171Y-78359774D02*
X87999171Y-78359774D01*
X88856314Y-78359774D02*
X88927742Y-78288345D01*
X88927742Y-78288345D02*
X88999171Y-78145488D01*
X88999171Y-78145488D02*
X88999171Y-77931202D01*
X88999171Y-77931202D02*
X88927742Y-77788345D01*
X88927742Y-77788345D02*
X88784885Y-77716917D01*
X88784885Y-77716917D02*
X87999171Y-77716917D01*
X88070600Y-76431202D02*
X87999171Y-76574059D01*
X87999171Y-76574059D02*
X87999171Y-76859774D01*
X87999171Y-76859774D02*
X88070600Y-77002631D01*
X88070600Y-77002631D02*
X88213457Y-77074059D01*
X88213457Y-77074059D02*
X88784885Y-77074059D01*
X88784885Y-77074059D02*
X88927742Y-77002631D01*
X88927742Y-77002631D02*
X88999171Y-76859774D01*
X88999171Y-76859774D02*
X88999171Y-76574059D01*
X88999171Y-76574059D02*
X88927742Y-76431202D01*
X88927742Y-76431202D02*
X88784885Y-76359774D01*
X88784885Y-76359774D02*
X88642028Y-76359774D01*
X88642028Y-76359774D02*
X88499171Y-77074059D01*
X87999171Y-74574060D02*
X89499171Y-74574060D01*
X88570600Y-74431203D02*
X87999171Y-74002631D01*
X88999171Y-74002631D02*
X88427742Y-74574060D01*
X87999171Y-73359774D02*
X88999171Y-73359774D01*
X89499171Y-73359774D02*
X89427742Y-73431202D01*
X89427742Y-73431202D02*
X89356314Y-73359774D01*
X89356314Y-73359774D02*
X89427742Y-73288345D01*
X89427742Y-73288345D02*
X89499171Y-73359774D01*
X89499171Y-73359774D02*
X89356314Y-73359774D01*
X87999171Y-72431202D02*
X88070600Y-72574059D01*
X88070600Y-72574059D02*
X88213457Y-72645488D01*
X88213457Y-72645488D02*
X89499171Y-72645488D01*
X87999171Y-71645488D02*
X88070600Y-71788345D01*
X88070600Y-71788345D02*
X88213457Y-71859774D01*
X88213457Y-71859774D02*
X89499171Y-71859774D01*
X88070600Y-71145488D02*
X87999171Y-71002631D01*
X87999171Y-71002631D02*
X87999171Y-70716917D01*
X87999171Y-70716917D02*
X88070600Y-70574060D01*
X88070600Y-70574060D02*
X88213457Y-70502631D01*
X88213457Y-70502631D02*
X88284885Y-70502631D01*
X88284885Y-70502631D02*
X88427742Y-70574060D01*
X88427742Y-70574060D02*
X88499171Y-70716917D01*
X88499171Y-70716917D02*
X88499171Y-70931203D01*
X88499171Y-70931203D02*
X88570600Y-71074060D01*
X88570600Y-71074060D02*
X88713457Y-71145488D01*
X88713457Y-71145488D02*
X88784885Y-71145488D01*
X88784885Y-71145488D02*
X88927742Y-71074060D01*
X88927742Y-71074060D02*
X88999171Y-70931203D01*
X88999171Y-70931203D02*
X88999171Y-70716917D01*
X88999171Y-70716917D02*
X88927742Y-70574060D01*
X88999171Y-68931202D02*
X88999171Y-68359774D01*
X87999171Y-68716917D02*
X89284885Y-68716917D01*
X89284885Y-68716917D02*
X89427742Y-68645488D01*
X89427742Y-68645488D02*
X89499171Y-68502631D01*
X89499171Y-68502631D02*
X89499171Y-68359774D01*
X87999171Y-67216917D02*
X88784885Y-67216917D01*
X88784885Y-67216917D02*
X88927742Y-67288345D01*
X88927742Y-67288345D02*
X88999171Y-67431202D01*
X88999171Y-67431202D02*
X88999171Y-67716917D01*
X88999171Y-67716917D02*
X88927742Y-67859774D01*
X88070600Y-67216917D02*
X87999171Y-67359774D01*
X87999171Y-67359774D02*
X87999171Y-67716917D01*
X87999171Y-67716917D02*
X88070600Y-67859774D01*
X88070600Y-67859774D02*
X88213457Y-67931202D01*
X88213457Y-67931202D02*
X88356314Y-67931202D01*
X88356314Y-67931202D02*
X88499171Y-67859774D01*
X88499171Y-67859774D02*
X88570600Y-67716917D01*
X88570600Y-67716917D02*
X88570600Y-67359774D01*
X88570600Y-67359774D02*
X88642028Y-67216917D01*
X88070600Y-66574059D02*
X87999171Y-66431202D01*
X87999171Y-66431202D02*
X87999171Y-66145488D01*
X87999171Y-66145488D02*
X88070600Y-66002631D01*
X88070600Y-66002631D02*
X88213457Y-65931202D01*
X88213457Y-65931202D02*
X88284885Y-65931202D01*
X88284885Y-65931202D02*
X88427742Y-66002631D01*
X88427742Y-66002631D02*
X88499171Y-66145488D01*
X88499171Y-66145488D02*
X88499171Y-66359774D01*
X88499171Y-66359774D02*
X88570600Y-66502631D01*
X88570600Y-66502631D02*
X88713457Y-66574059D01*
X88713457Y-66574059D02*
X88784885Y-66574059D01*
X88784885Y-66574059D02*
X88927742Y-66502631D01*
X88927742Y-66502631D02*
X88999171Y-66359774D01*
X88999171Y-66359774D02*
X88999171Y-66145488D01*
X88999171Y-66145488D02*
X88927742Y-66002631D01*
X88070600Y-64645488D02*
X87999171Y-64788345D01*
X87999171Y-64788345D02*
X87999171Y-65074059D01*
X87999171Y-65074059D02*
X88070600Y-65216916D01*
X88070600Y-65216916D02*
X88142028Y-65288345D01*
X88142028Y-65288345D02*
X88284885Y-65359773D01*
X88284885Y-65359773D02*
X88713457Y-65359773D01*
X88713457Y-65359773D02*
X88856314Y-65288345D01*
X88856314Y-65288345D02*
X88927742Y-65216916D01*
X88927742Y-65216916D02*
X88999171Y-65074059D01*
X88999171Y-65074059D02*
X88999171Y-64788345D01*
X88999171Y-64788345D02*
X88927742Y-64645488D01*
X87999171Y-64002631D02*
X88999171Y-64002631D01*
X89499171Y-64002631D02*
X89427742Y-64074059D01*
X89427742Y-64074059D02*
X89356314Y-64002631D01*
X89356314Y-64002631D02*
X89427742Y-63931202D01*
X89427742Y-63931202D02*
X89499171Y-64002631D01*
X89499171Y-64002631D02*
X89356314Y-64002631D01*
X88070600Y-63359773D02*
X87999171Y-63216916D01*
X87999171Y-63216916D02*
X87999171Y-62931202D01*
X87999171Y-62931202D02*
X88070600Y-62788345D01*
X88070600Y-62788345D02*
X88213457Y-62716916D01*
X88213457Y-62716916D02*
X88284885Y-62716916D01*
X88284885Y-62716916D02*
X88427742Y-62788345D01*
X88427742Y-62788345D02*
X88499171Y-62931202D01*
X88499171Y-62931202D02*
X88499171Y-63145488D01*
X88499171Y-63145488D02*
X88570600Y-63288345D01*
X88570600Y-63288345D02*
X88713457Y-63359773D01*
X88713457Y-63359773D02*
X88784885Y-63359773D01*
X88784885Y-63359773D02*
X88927742Y-63288345D01*
X88927742Y-63288345D02*
X88999171Y-63145488D01*
X88999171Y-63145488D02*
X88999171Y-62931202D01*
X88999171Y-62931202D02*
X88927742Y-62788345D01*
X88999171Y-62288344D02*
X88999171Y-61716916D01*
X89499171Y-62074059D02*
X88213457Y-62074059D01*
X88213457Y-62074059D02*
X88070600Y-62002630D01*
X88070600Y-62002630D02*
X87999171Y-61859773D01*
X87999171Y-61859773D02*
X87999171Y-61716916D01*
X88070600Y-61288344D02*
X87999171Y-61145487D01*
X87999171Y-61145487D02*
X87999171Y-60859773D01*
X87999171Y-60859773D02*
X88070600Y-60716916D01*
X88070600Y-60716916D02*
X88213457Y-60645487D01*
X88213457Y-60645487D02*
X88284885Y-60645487D01*
X88284885Y-60645487D02*
X88427742Y-60716916D01*
X88427742Y-60716916D02*
X88499171Y-60859773D01*
X88499171Y-60859773D02*
X88499171Y-61074059D01*
X88499171Y-61074059D02*
X88570600Y-61216916D01*
X88570600Y-61216916D02*
X88713457Y-61288344D01*
X88713457Y-61288344D02*
X88784885Y-61288344D01*
X88784885Y-61288344D02*
X88927742Y-61216916D01*
X88927742Y-61216916D02*
X88999171Y-61074059D01*
X88999171Y-61074059D02*
X88999171Y-60859773D01*
X88999171Y-60859773D02*
X88927742Y-60716916D01*
X88142028Y-60002630D02*
X88070600Y-59931201D01*
X88070600Y-59931201D02*
X87999171Y-60002630D01*
X87999171Y-60002630D02*
X88070600Y-60074058D01*
X88070600Y-60074058D02*
X88142028Y-60002630D01*
X88142028Y-60002630D02*
X87999171Y-60002630D01*
X123399171Y-87588346D02*
X124113457Y-88088346D01*
X123399171Y-88445489D02*
X124899171Y-88445489D01*
X124899171Y-88445489D02*
X124899171Y-87874060D01*
X124899171Y-87874060D02*
X124827742Y-87731203D01*
X124827742Y-87731203D02*
X124756314Y-87659774D01*
X124756314Y-87659774D02*
X124613457Y-87588346D01*
X124613457Y-87588346D02*
X124399171Y-87588346D01*
X124399171Y-87588346D02*
X124256314Y-87659774D01*
X124256314Y-87659774D02*
X124184885Y-87731203D01*
X124184885Y-87731203D02*
X124113457Y-87874060D01*
X124113457Y-87874060D02*
X124113457Y-88445489D01*
X123470600Y-86374060D02*
X123399171Y-86516917D01*
X123399171Y-86516917D02*
X123399171Y-86802632D01*
X123399171Y-86802632D02*
X123470600Y-86945489D01*
X123470600Y-86945489D02*
X123613457Y-87016917D01*
X123613457Y-87016917D02*
X124184885Y-87016917D01*
X124184885Y-87016917D02*
X124327742Y-86945489D01*
X124327742Y-86945489D02*
X124399171Y-86802632D01*
X124399171Y-86802632D02*
X124399171Y-86516917D01*
X124399171Y-86516917D02*
X124327742Y-86374060D01*
X124327742Y-86374060D02*
X124184885Y-86302632D01*
X124184885Y-86302632D02*
X124042028Y-86302632D01*
X124042028Y-86302632D02*
X123899171Y-87016917D01*
X124399171Y-85802632D02*
X123399171Y-85445489D01*
X123399171Y-85445489D02*
X124399171Y-85088346D01*
X123542028Y-84516918D02*
X123470600Y-84445489D01*
X123470600Y-84445489D02*
X123399171Y-84516918D01*
X123399171Y-84516918D02*
X123470600Y-84588346D01*
X123470600Y-84588346D02*
X123542028Y-84516918D01*
X123542028Y-84516918D02*
X123399171Y-84516918D01*
X123399171Y-81874060D02*
X123399171Y-82731203D01*
X123399171Y-82302632D02*
X124899171Y-82302632D01*
X124899171Y-82302632D02*
X124684885Y-82445489D01*
X124684885Y-82445489D02*
X124542028Y-82588346D01*
X124542028Y-82588346D02*
X124470600Y-82731203D01*
X122899171Y-79659775D02*
X122899171Y-80016918D01*
X122899171Y-80016918D02*
X125042028Y-80016918D01*
X125042028Y-80016918D02*
X125042028Y-79659775D01*
X124756314Y-79159775D02*
X124827742Y-79088347D01*
X124827742Y-79088347D02*
X124899171Y-78945490D01*
X124899171Y-78945490D02*
X124899171Y-78588347D01*
X124899171Y-78588347D02*
X124827742Y-78445490D01*
X124827742Y-78445490D02*
X124756314Y-78374061D01*
X124756314Y-78374061D02*
X124613457Y-78302632D01*
X124613457Y-78302632D02*
X124470600Y-78302632D01*
X124470600Y-78302632D02*
X124256314Y-78374061D01*
X124256314Y-78374061D02*
X123399171Y-79231204D01*
X123399171Y-79231204D02*
X123399171Y-78302632D01*
X124899171Y-77374061D02*
X124899171Y-77231204D01*
X124899171Y-77231204D02*
X124827742Y-77088347D01*
X124827742Y-77088347D02*
X124756314Y-77016919D01*
X124756314Y-77016919D02*
X124613457Y-76945490D01*
X124613457Y-76945490D02*
X124327742Y-76874061D01*
X124327742Y-76874061D02*
X123970600Y-76874061D01*
X123970600Y-76874061D02*
X123684885Y-76945490D01*
X123684885Y-76945490D02*
X123542028Y-77016919D01*
X123542028Y-77016919D02*
X123470600Y-77088347D01*
X123470600Y-77088347D02*
X123399171Y-77231204D01*
X123399171Y-77231204D02*
X123399171Y-77374061D01*
X123399171Y-77374061D02*
X123470600Y-77516919D01*
X123470600Y-77516919D02*
X123542028Y-77588347D01*
X123542028Y-77588347D02*
X123684885Y-77659776D01*
X123684885Y-77659776D02*
X123970600Y-77731204D01*
X123970600Y-77731204D02*
X124327742Y-77731204D01*
X124327742Y-77731204D02*
X124613457Y-77659776D01*
X124613457Y-77659776D02*
X124756314Y-77588347D01*
X124756314Y-77588347D02*
X124827742Y-77516919D01*
X124827742Y-77516919D02*
X124899171Y-77374061D01*
X124756314Y-76302633D02*
X124827742Y-76231205D01*
X124827742Y-76231205D02*
X124899171Y-76088348D01*
X124899171Y-76088348D02*
X124899171Y-75731205D01*
X124899171Y-75731205D02*
X124827742Y-75588348D01*
X124827742Y-75588348D02*
X124756314Y-75516919D01*
X124756314Y-75516919D02*
X124613457Y-75445490D01*
X124613457Y-75445490D02*
X124470600Y-75445490D01*
X124470600Y-75445490D02*
X124256314Y-75516919D01*
X124256314Y-75516919D02*
X123399171Y-76374062D01*
X123399171Y-76374062D02*
X123399171Y-75445490D01*
X124399171Y-74159777D02*
X123399171Y-74159777D01*
X124970600Y-74516919D02*
X123899171Y-74874062D01*
X123899171Y-74874062D02*
X123899171Y-73945491D01*
X123970600Y-73374063D02*
X123970600Y-72231206D01*
X123399171Y-70731205D02*
X123399171Y-71588348D01*
X123399171Y-71159777D02*
X124899171Y-71159777D01*
X124899171Y-71159777D02*
X124684885Y-71302634D01*
X124684885Y-71302634D02*
X124542028Y-71445491D01*
X124542028Y-71445491D02*
X124470600Y-71588348D01*
X123399171Y-69302634D02*
X123399171Y-70159777D01*
X123399171Y-69731206D02*
X124899171Y-69731206D01*
X124899171Y-69731206D02*
X124684885Y-69874063D01*
X124684885Y-69874063D02*
X124542028Y-70016920D01*
X124542028Y-70016920D02*
X124470600Y-70159777D01*
X123970600Y-68659778D02*
X123970600Y-67516921D01*
X124756314Y-66874063D02*
X124827742Y-66802635D01*
X124827742Y-66802635D02*
X124899171Y-66659778D01*
X124899171Y-66659778D02*
X124899171Y-66302635D01*
X124899171Y-66302635D02*
X124827742Y-66159778D01*
X124827742Y-66159778D02*
X124756314Y-66088349D01*
X124756314Y-66088349D02*
X124613457Y-66016920D01*
X124613457Y-66016920D02*
X124470600Y-66016920D01*
X124470600Y-66016920D02*
X124256314Y-66088349D01*
X124256314Y-66088349D02*
X123399171Y-66945492D01*
X123399171Y-66945492D02*
X123399171Y-66016920D01*
X124399171Y-64731207D02*
X123399171Y-64731207D01*
X124970600Y-65088349D02*
X123899171Y-65445492D01*
X123899171Y-65445492D02*
X123899171Y-64516921D01*
X122899171Y-64088350D02*
X122899171Y-63731207D01*
X122899171Y-63731207D02*
X125042028Y-63731207D01*
X125042028Y-63731207D02*
X125042028Y-64088350D01*
D11*
X106290057Y-60261905D02*
X106242438Y-60309524D01*
X106242438Y-60309524D02*
X106194819Y-60404762D01*
X106194819Y-60404762D02*
X106194819Y-60642857D01*
X106194819Y-60642857D02*
X106242438Y-60738095D01*
X106242438Y-60738095D02*
X106290057Y-60785714D01*
X106290057Y-60785714D02*
X106385295Y-60833333D01*
X106385295Y-60833333D02*
X106480533Y-60833333D01*
X106480533Y-60833333D02*
X106623390Y-60785714D01*
X106623390Y-60785714D02*
X107194819Y-60214286D01*
X107194819Y-60214286D02*
X107194819Y-60833333D01*
X106290057Y-61214286D02*
X106242438Y-61261905D01*
X106242438Y-61261905D02*
X106194819Y-61357143D01*
X106194819Y-61357143D02*
X106194819Y-61595238D01*
X106194819Y-61595238D02*
X106242438Y-61690476D01*
X106242438Y-61690476D02*
X106290057Y-61738095D01*
X106290057Y-61738095D02*
X106385295Y-61785714D01*
X106385295Y-61785714D02*
X106480533Y-61785714D01*
X106480533Y-61785714D02*
X106623390Y-61738095D01*
X106623390Y-61738095D02*
X107194819Y-61166667D01*
X107194819Y-61166667D02*
X107194819Y-61785714D01*
X106194819Y-62404762D02*
X106194819Y-62500000D01*
X106194819Y-62500000D02*
X106242438Y-62595238D01*
X106242438Y-62595238D02*
X106290057Y-62642857D01*
X106290057Y-62642857D02*
X106385295Y-62690476D01*
X106385295Y-62690476D02*
X106575771Y-62738095D01*
X106575771Y-62738095D02*
X106813866Y-62738095D01*
X106813866Y-62738095D02*
X107004342Y-62690476D01*
X107004342Y-62690476D02*
X107099580Y-62642857D01*
X107099580Y-62642857D02*
X107147200Y-62595238D01*
X107147200Y-62595238D02*
X107194819Y-62500000D01*
X107194819Y-62500000D02*
X107194819Y-62404762D01*
X107194819Y-62404762D02*
X107147200Y-62309524D01*
X107147200Y-62309524D02*
X107099580Y-62261905D01*
X107099580Y-62261905D02*
X107004342Y-62214286D01*
X107004342Y-62214286D02*
X106813866Y-62166667D01*
X106813866Y-62166667D02*
X106575771Y-62166667D01*
X106575771Y-62166667D02*
X106385295Y-62214286D01*
X106385295Y-62214286D02*
X106290057Y-62261905D01*
X106290057Y-62261905D02*
X106242438Y-62309524D01*
X106242438Y-62309524D02*
X106194819Y-62404762D01*
X107194819Y-63166667D02*
X106194819Y-63166667D01*
X107194819Y-63738095D02*
X106623390Y-63309524D01*
X106194819Y-63738095D02*
X106766247Y-63166667D01*
X116582857Y-122854819D02*
X117059047Y-122854819D01*
X117059047Y-122854819D02*
X117059047Y-121854819D01*
X116249523Y-122331009D02*
X115916190Y-122331009D01*
X115773333Y-122854819D02*
X116249523Y-122854819D01*
X116249523Y-122854819D02*
X116249523Y-121854819D01*
X116249523Y-121854819D02*
X115773333Y-121854819D01*
X115344761Y-122854819D02*
X115344761Y-121854819D01*
X115344761Y-121854819D02*
X115106666Y-121854819D01*
X115106666Y-121854819D02*
X114963809Y-121902438D01*
X114963809Y-121902438D02*
X114868571Y-121997676D01*
X114868571Y-121997676D02*
X114820952Y-122092914D01*
X114820952Y-122092914D02*
X114773333Y-122283390D01*
X114773333Y-122283390D02*
X114773333Y-122426247D01*
X114773333Y-122426247D02*
X114820952Y-122616723D01*
X114820952Y-122616723D02*
X114868571Y-122711961D01*
X114868571Y-122711961D02*
X114963809Y-122807200D01*
X114963809Y-122807200D02*
X115106666Y-122854819D01*
X115106666Y-122854819D02*
X115344761Y-122854819D01*
X116778095Y-140274819D02*
X116778095Y-141084342D01*
X116778095Y-141084342D02*
X116825714Y-141179580D01*
X116825714Y-141179580D02*
X116873333Y-141227200D01*
X116873333Y-141227200D02*
X116968571Y-141274819D01*
X116968571Y-141274819D02*
X117159047Y-141274819D01*
X117159047Y-141274819D02*
X117254285Y-141227200D01*
X117254285Y-141227200D02*
X117301904Y-141179580D01*
X117301904Y-141179580D02*
X117349523Y-141084342D01*
X117349523Y-141084342D02*
X117349523Y-140274819D01*
X117778095Y-140370057D02*
X117825714Y-140322438D01*
X117825714Y-140322438D02*
X117920952Y-140274819D01*
X117920952Y-140274819D02*
X118159047Y-140274819D01*
X118159047Y-140274819D02*
X118254285Y-140322438D01*
X118254285Y-140322438D02*
X118301904Y-140370057D01*
X118301904Y-140370057D02*
X118349523Y-140465295D01*
X118349523Y-140465295D02*
X118349523Y-140560533D01*
X118349523Y-140560533D02*
X118301904Y-140703390D01*
X118301904Y-140703390D02*
X117730476Y-141274819D01*
X117730476Y-141274819D02*
X118349523Y-141274819D01*
X113649048Y-135124819D02*
X113649048Y-134124819D01*
X114696666Y-135029580D02*
X114649047Y-135077200D01*
X114649047Y-135077200D02*
X114506190Y-135124819D01*
X114506190Y-135124819D02*
X114410952Y-135124819D01*
X114410952Y-135124819D02*
X114268095Y-135077200D01*
X114268095Y-135077200D02*
X114172857Y-134981961D01*
X114172857Y-134981961D02*
X114125238Y-134886723D01*
X114125238Y-134886723D02*
X114077619Y-134696247D01*
X114077619Y-134696247D02*
X114077619Y-134553390D01*
X114077619Y-134553390D02*
X114125238Y-134362914D01*
X114125238Y-134362914D02*
X114172857Y-134267676D01*
X114172857Y-134267676D02*
X114268095Y-134172438D01*
X114268095Y-134172438D02*
X114410952Y-134124819D01*
X114410952Y-134124819D02*
X114506190Y-134124819D01*
X114506190Y-134124819D02*
X114649047Y-134172438D01*
X114649047Y-134172438D02*
X114696666Y-134220057D01*
X115125238Y-135124819D02*
X115125238Y-134124819D01*
X115125238Y-134124819D02*
X115458571Y-134839104D01*
X115458571Y-134839104D02*
X115791904Y-134124819D01*
X115791904Y-134124819D02*
X115791904Y-135124819D01*
X116172857Y-134124819D02*
X116839523Y-134124819D01*
X116839523Y-134124819D02*
X116410952Y-135124819D01*
X117696666Y-134124819D02*
X117220476Y-134124819D01*
X117220476Y-134124819D02*
X117172857Y-134601009D01*
X117172857Y-134601009D02*
X117220476Y-134553390D01*
X117220476Y-134553390D02*
X117315714Y-134505771D01*
X117315714Y-134505771D02*
X117553809Y-134505771D01*
X117553809Y-134505771D02*
X117649047Y-134553390D01*
X117649047Y-134553390D02*
X117696666Y-134601009D01*
X117696666Y-134601009D02*
X117744285Y-134696247D01*
X117744285Y-134696247D02*
X117744285Y-134934342D01*
X117744285Y-134934342D02*
X117696666Y-135029580D01*
X117696666Y-135029580D02*
X117649047Y-135077200D01*
X117649047Y-135077200D02*
X117553809Y-135124819D01*
X117553809Y-135124819D02*
X117315714Y-135124819D01*
X117315714Y-135124819D02*
X117220476Y-135077200D01*
X117220476Y-135077200D02*
X117172857Y-135029580D01*
X118649047Y-134124819D02*
X118172857Y-134124819D01*
X118172857Y-134124819D02*
X118125238Y-134601009D01*
X118125238Y-134601009D02*
X118172857Y-134553390D01*
X118172857Y-134553390D02*
X118268095Y-134505771D01*
X118268095Y-134505771D02*
X118506190Y-134505771D01*
X118506190Y-134505771D02*
X118601428Y-134553390D01*
X118601428Y-134553390D02*
X118649047Y-134601009D01*
X118649047Y-134601009D02*
X118696666Y-134696247D01*
X118696666Y-134696247D02*
X118696666Y-134934342D01*
X118696666Y-134934342D02*
X118649047Y-135029580D01*
X118649047Y-135029580D02*
X118601428Y-135077200D01*
X118601428Y-135077200D02*
X118506190Y-135124819D01*
X118506190Y-135124819D02*
X118268095Y-135124819D01*
X118268095Y-135124819D02*
X118172857Y-135077200D01*
X118172857Y-135077200D02*
X118125238Y-135029580D01*
X119601428Y-134124819D02*
X119125238Y-134124819D01*
X119125238Y-134124819D02*
X119077619Y-134601009D01*
X119077619Y-134601009D02*
X119125238Y-134553390D01*
X119125238Y-134553390D02*
X119220476Y-134505771D01*
X119220476Y-134505771D02*
X119458571Y-134505771D01*
X119458571Y-134505771D02*
X119553809Y-134553390D01*
X119553809Y-134553390D02*
X119601428Y-134601009D01*
X119601428Y-134601009D02*
X119649047Y-134696247D01*
X119649047Y-134696247D02*
X119649047Y-134934342D01*
X119649047Y-134934342D02*
X119601428Y-135029580D01*
X119601428Y-135029580D02*
X119553809Y-135077200D01*
X119553809Y-135077200D02*
X119458571Y-135124819D01*
X119458571Y-135124819D02*
X119220476Y-135124819D01*
X119220476Y-135124819D02*
X119125238Y-135077200D01*
X119125238Y-135077200D02*
X119077619Y-135029580D01*
X119982381Y-135124819D02*
X120506190Y-134458152D01*
X119982381Y-134458152D02*
X120506190Y-135124819D01*
X120887143Y-135124819D02*
X120887143Y-134124819D01*
X120887143Y-134124819D02*
X121268095Y-134124819D01*
X121268095Y-134124819D02*
X121363333Y-134172438D01*
X121363333Y-134172438D02*
X121410952Y-134220057D01*
X121410952Y-134220057D02*
X121458571Y-134315295D01*
X121458571Y-134315295D02*
X121458571Y-134458152D01*
X121458571Y-134458152D02*
X121410952Y-134553390D01*
X121410952Y-134553390D02*
X121363333Y-134601009D01*
X121363333Y-134601009D02*
X121268095Y-134648628D01*
X121268095Y-134648628D02*
X120887143Y-134648628D01*
X94178095Y-140274819D02*
X94178095Y-141084342D01*
X94178095Y-141084342D02*
X94225714Y-141179580D01*
X94225714Y-141179580D02*
X94273333Y-141227200D01*
X94273333Y-141227200D02*
X94368571Y-141274819D01*
X94368571Y-141274819D02*
X94559047Y-141274819D01*
X94559047Y-141274819D02*
X94654285Y-141227200D01*
X94654285Y-141227200D02*
X94701904Y-141179580D01*
X94701904Y-141179580D02*
X94749523Y-141084342D01*
X94749523Y-141084342D02*
X94749523Y-140274819D01*
X95749523Y-141274819D02*
X95178095Y-141274819D01*
X95463809Y-141274819D02*
X95463809Y-140274819D01*
X95463809Y-140274819D02*
X95368571Y-140417676D01*
X95368571Y-140417676D02*
X95273333Y-140512914D01*
X95273333Y-140512914D02*
X95178095Y-140560533D01*
X91049048Y-135124819D02*
X91049048Y-134124819D01*
X92096666Y-135029580D02*
X92049047Y-135077200D01*
X92049047Y-135077200D02*
X91906190Y-135124819D01*
X91906190Y-135124819D02*
X91810952Y-135124819D01*
X91810952Y-135124819D02*
X91668095Y-135077200D01*
X91668095Y-135077200D02*
X91572857Y-134981961D01*
X91572857Y-134981961D02*
X91525238Y-134886723D01*
X91525238Y-134886723D02*
X91477619Y-134696247D01*
X91477619Y-134696247D02*
X91477619Y-134553390D01*
X91477619Y-134553390D02*
X91525238Y-134362914D01*
X91525238Y-134362914D02*
X91572857Y-134267676D01*
X91572857Y-134267676D02*
X91668095Y-134172438D01*
X91668095Y-134172438D02*
X91810952Y-134124819D01*
X91810952Y-134124819D02*
X91906190Y-134124819D01*
X91906190Y-134124819D02*
X92049047Y-134172438D01*
X92049047Y-134172438D02*
X92096666Y-134220057D01*
X92525238Y-135124819D02*
X92525238Y-134124819D01*
X92525238Y-134124819D02*
X92858571Y-134839104D01*
X92858571Y-134839104D02*
X93191904Y-134124819D01*
X93191904Y-134124819D02*
X93191904Y-135124819D01*
X93572857Y-134124819D02*
X94239523Y-134124819D01*
X94239523Y-134124819D02*
X93810952Y-135124819D01*
X95096666Y-134124819D02*
X94620476Y-134124819D01*
X94620476Y-134124819D02*
X94572857Y-134601009D01*
X94572857Y-134601009D02*
X94620476Y-134553390D01*
X94620476Y-134553390D02*
X94715714Y-134505771D01*
X94715714Y-134505771D02*
X94953809Y-134505771D01*
X94953809Y-134505771D02*
X95049047Y-134553390D01*
X95049047Y-134553390D02*
X95096666Y-134601009D01*
X95096666Y-134601009D02*
X95144285Y-134696247D01*
X95144285Y-134696247D02*
X95144285Y-134934342D01*
X95144285Y-134934342D02*
X95096666Y-135029580D01*
X95096666Y-135029580D02*
X95049047Y-135077200D01*
X95049047Y-135077200D02*
X94953809Y-135124819D01*
X94953809Y-135124819D02*
X94715714Y-135124819D01*
X94715714Y-135124819D02*
X94620476Y-135077200D01*
X94620476Y-135077200D02*
X94572857Y-135029580D01*
X96049047Y-134124819D02*
X95572857Y-134124819D01*
X95572857Y-134124819D02*
X95525238Y-134601009D01*
X95525238Y-134601009D02*
X95572857Y-134553390D01*
X95572857Y-134553390D02*
X95668095Y-134505771D01*
X95668095Y-134505771D02*
X95906190Y-134505771D01*
X95906190Y-134505771D02*
X96001428Y-134553390D01*
X96001428Y-134553390D02*
X96049047Y-134601009D01*
X96049047Y-134601009D02*
X96096666Y-134696247D01*
X96096666Y-134696247D02*
X96096666Y-134934342D01*
X96096666Y-134934342D02*
X96049047Y-135029580D01*
X96049047Y-135029580D02*
X96001428Y-135077200D01*
X96001428Y-135077200D02*
X95906190Y-135124819D01*
X95906190Y-135124819D02*
X95668095Y-135124819D01*
X95668095Y-135124819D02*
X95572857Y-135077200D01*
X95572857Y-135077200D02*
X95525238Y-135029580D01*
X97001428Y-134124819D02*
X96525238Y-134124819D01*
X96525238Y-134124819D02*
X96477619Y-134601009D01*
X96477619Y-134601009D02*
X96525238Y-134553390D01*
X96525238Y-134553390D02*
X96620476Y-134505771D01*
X96620476Y-134505771D02*
X96858571Y-134505771D01*
X96858571Y-134505771D02*
X96953809Y-134553390D01*
X96953809Y-134553390D02*
X97001428Y-134601009D01*
X97001428Y-134601009D02*
X97049047Y-134696247D01*
X97049047Y-134696247D02*
X97049047Y-134934342D01*
X97049047Y-134934342D02*
X97001428Y-135029580D01*
X97001428Y-135029580D02*
X96953809Y-135077200D01*
X96953809Y-135077200D02*
X96858571Y-135124819D01*
X96858571Y-135124819D02*
X96620476Y-135124819D01*
X96620476Y-135124819D02*
X96525238Y-135077200D01*
X96525238Y-135077200D02*
X96477619Y-135029580D01*
X97382381Y-135124819D02*
X97906190Y-134458152D01*
X97382381Y-134458152D02*
X97906190Y-135124819D01*
X98287143Y-135124819D02*
X98287143Y-134124819D01*
X98287143Y-134124819D02*
X98668095Y-134124819D01*
X98668095Y-134124819D02*
X98763333Y-134172438D01*
X98763333Y-134172438D02*
X98810952Y-134220057D01*
X98810952Y-134220057D02*
X98858571Y-134315295D01*
X98858571Y-134315295D02*
X98858571Y-134458152D01*
X98858571Y-134458152D02*
X98810952Y-134553390D01*
X98810952Y-134553390D02*
X98763333Y-134601009D01*
X98763333Y-134601009D02*
X98668095Y-134648628D01*
X98668095Y-134648628D02*
X98287143Y-134648628D01*
X120558094Y-147350057D02*
X120510475Y-147302438D01*
X120510475Y-147302438D02*
X120415237Y-147254819D01*
X120415237Y-147254819D02*
X120177142Y-147254819D01*
X120177142Y-147254819D02*
X120081904Y-147302438D01*
X120081904Y-147302438D02*
X120034285Y-147350057D01*
X120034285Y-147350057D02*
X119986666Y-147445295D01*
X119986666Y-147445295D02*
X119986666Y-147540533D01*
X119986666Y-147540533D02*
X120034285Y-147683390D01*
X120034285Y-147683390D02*
X120605713Y-148254819D01*
X120605713Y-148254819D02*
X119986666Y-148254819D01*
X119605713Y-147350057D02*
X119558094Y-147302438D01*
X119558094Y-147302438D02*
X119462856Y-147254819D01*
X119462856Y-147254819D02*
X119224761Y-147254819D01*
X119224761Y-147254819D02*
X119129523Y-147302438D01*
X119129523Y-147302438D02*
X119081904Y-147350057D01*
X119081904Y-147350057D02*
X119034285Y-147445295D01*
X119034285Y-147445295D02*
X119034285Y-147540533D01*
X119034285Y-147540533D02*
X119081904Y-147683390D01*
X119081904Y-147683390D02*
X119653332Y-148254819D01*
X119653332Y-148254819D02*
X119034285Y-148254819D01*
X118415237Y-147254819D02*
X118319999Y-147254819D01*
X118319999Y-147254819D02*
X118224761Y-147302438D01*
X118224761Y-147302438D02*
X118177142Y-147350057D01*
X118177142Y-147350057D02*
X118129523Y-147445295D01*
X118129523Y-147445295D02*
X118081904Y-147635771D01*
X118081904Y-147635771D02*
X118081904Y-147873866D01*
X118081904Y-147873866D02*
X118129523Y-148064342D01*
X118129523Y-148064342D02*
X118177142Y-148159580D01*
X118177142Y-148159580D02*
X118224761Y-148207200D01*
X118224761Y-148207200D02*
X118319999Y-148254819D01*
X118319999Y-148254819D02*
X118415237Y-148254819D01*
X118415237Y-148254819D02*
X118510475Y-148207200D01*
X118510475Y-148207200D02*
X118558094Y-148159580D01*
X118558094Y-148159580D02*
X118605713Y-148064342D01*
X118605713Y-148064342D02*
X118653332Y-147873866D01*
X118653332Y-147873866D02*
X118653332Y-147635771D01*
X118653332Y-147635771D02*
X118605713Y-147445295D01*
X118605713Y-147445295D02*
X118558094Y-147350057D01*
X118558094Y-147350057D02*
X118510475Y-147302438D01*
X118510475Y-147302438D02*
X118415237Y-147254819D01*
X117653332Y-148254819D02*
X117653332Y-147254819D01*
X117081904Y-148254819D02*
X117510475Y-147683390D01*
X117081904Y-147254819D02*
X117653332Y-147826247D01*
X94954285Y-147254819D02*
X95430475Y-147254819D01*
X95430475Y-147254819D02*
X95478094Y-147731009D01*
X95478094Y-147731009D02*
X95430475Y-147683390D01*
X95430475Y-147683390D02*
X95335237Y-147635771D01*
X95335237Y-147635771D02*
X95097142Y-147635771D01*
X95097142Y-147635771D02*
X95001904Y-147683390D01*
X95001904Y-147683390D02*
X94954285Y-147731009D01*
X94954285Y-147731009D02*
X94906666Y-147826247D01*
X94906666Y-147826247D02*
X94906666Y-148064342D01*
X94906666Y-148064342D02*
X94954285Y-148159580D01*
X94954285Y-148159580D02*
X95001904Y-148207200D01*
X95001904Y-148207200D02*
X95097142Y-148254819D01*
X95097142Y-148254819D02*
X95335237Y-148254819D01*
X95335237Y-148254819D02*
X95430475Y-148207200D01*
X95430475Y-148207200D02*
X95478094Y-148159580D01*
X93954285Y-148254819D02*
X94525713Y-148254819D01*
X94239999Y-148254819D02*
X94239999Y-147254819D01*
X94239999Y-147254819D02*
X94335237Y-147397676D01*
X94335237Y-147397676D02*
X94430475Y-147492914D01*
X94430475Y-147492914D02*
X94525713Y-147540533D01*
X93001904Y-148254819D02*
X93573332Y-148254819D01*
X93287618Y-148254819D02*
X93287618Y-147254819D01*
X93287618Y-147254819D02*
X93382856Y-147397676D01*
X93382856Y-147397676D02*
X93478094Y-147492914D01*
X93478094Y-147492914D02*
X93573332Y-147540533D01*
X92573332Y-148254819D02*
X92573332Y-147254819D01*
X92001904Y-148254819D02*
X92430475Y-147683390D01*
X92001904Y-147254819D02*
X92573332Y-147826247D01*
X120630476Y-151654819D02*
X121201904Y-151654819D01*
X120916190Y-151654819D02*
X120916190Y-150654819D01*
X120916190Y-150654819D02*
X121011428Y-150797676D01*
X121011428Y-150797676D02*
X121106666Y-150892914D01*
X121106666Y-150892914D02*
X121201904Y-150940533D01*
X120011428Y-150654819D02*
X119916190Y-150654819D01*
X119916190Y-150654819D02*
X119820952Y-150702438D01*
X119820952Y-150702438D02*
X119773333Y-150750057D01*
X119773333Y-150750057D02*
X119725714Y-150845295D01*
X119725714Y-150845295D02*
X119678095Y-151035771D01*
X119678095Y-151035771D02*
X119678095Y-151273866D01*
X119678095Y-151273866D02*
X119725714Y-151464342D01*
X119725714Y-151464342D02*
X119773333Y-151559580D01*
X119773333Y-151559580D02*
X119820952Y-151607200D01*
X119820952Y-151607200D02*
X119916190Y-151654819D01*
X119916190Y-151654819D02*
X120011428Y-151654819D01*
X120011428Y-151654819D02*
X120106666Y-151607200D01*
X120106666Y-151607200D02*
X120154285Y-151559580D01*
X120154285Y-151559580D02*
X120201904Y-151464342D01*
X120201904Y-151464342D02*
X120249523Y-151273866D01*
X120249523Y-151273866D02*
X120249523Y-151035771D01*
X120249523Y-151035771D02*
X120201904Y-150845295D01*
X120201904Y-150845295D02*
X120154285Y-150750057D01*
X120154285Y-150750057D02*
X120106666Y-150702438D01*
X120106666Y-150702438D02*
X120011428Y-150654819D01*
X119249523Y-151654819D02*
X119249523Y-150654819D01*
X118678095Y-151654819D02*
X119106666Y-151083390D01*
X118678095Y-150654819D02*
X119249523Y-151226247D01*
X108150476Y-151654819D02*
X108721904Y-151654819D01*
X108436190Y-151654819D02*
X108436190Y-150654819D01*
X108436190Y-150654819D02*
X108531428Y-150797676D01*
X108531428Y-150797676D02*
X108626666Y-150892914D01*
X108626666Y-150892914D02*
X108721904Y-150940533D01*
X107531428Y-150654819D02*
X107436190Y-150654819D01*
X107436190Y-150654819D02*
X107340952Y-150702438D01*
X107340952Y-150702438D02*
X107293333Y-150750057D01*
X107293333Y-150750057D02*
X107245714Y-150845295D01*
X107245714Y-150845295D02*
X107198095Y-151035771D01*
X107198095Y-151035771D02*
X107198095Y-151273866D01*
X107198095Y-151273866D02*
X107245714Y-151464342D01*
X107245714Y-151464342D02*
X107293333Y-151559580D01*
X107293333Y-151559580D02*
X107340952Y-151607200D01*
X107340952Y-151607200D02*
X107436190Y-151654819D01*
X107436190Y-151654819D02*
X107531428Y-151654819D01*
X107531428Y-151654819D02*
X107626666Y-151607200D01*
X107626666Y-151607200D02*
X107674285Y-151559580D01*
X107674285Y-151559580D02*
X107721904Y-151464342D01*
X107721904Y-151464342D02*
X107769523Y-151273866D01*
X107769523Y-151273866D02*
X107769523Y-151035771D01*
X107769523Y-151035771D02*
X107721904Y-150845295D01*
X107721904Y-150845295D02*
X107674285Y-150750057D01*
X107674285Y-150750057D02*
X107626666Y-150702438D01*
X107626666Y-150702438D02*
X107531428Y-150654819D01*
X106769523Y-151654819D02*
X106769523Y-150654819D01*
X106198095Y-151654819D02*
X106626666Y-151083390D01*
X106198095Y-150654819D02*
X106769523Y-151226247D01*
X96274285Y-150654819D02*
X96750475Y-150654819D01*
X96750475Y-150654819D02*
X96798094Y-151131009D01*
X96798094Y-151131009D02*
X96750475Y-151083390D01*
X96750475Y-151083390D02*
X96655237Y-151035771D01*
X96655237Y-151035771D02*
X96417142Y-151035771D01*
X96417142Y-151035771D02*
X96321904Y-151083390D01*
X96321904Y-151083390D02*
X96274285Y-151131009D01*
X96274285Y-151131009D02*
X96226666Y-151226247D01*
X96226666Y-151226247D02*
X96226666Y-151464342D01*
X96226666Y-151464342D02*
X96274285Y-151559580D01*
X96274285Y-151559580D02*
X96321904Y-151607200D01*
X96321904Y-151607200D02*
X96417142Y-151654819D01*
X96417142Y-151654819D02*
X96655237Y-151654819D01*
X96655237Y-151654819D02*
X96750475Y-151607200D01*
X96750475Y-151607200D02*
X96798094Y-151559580D01*
X95274285Y-151654819D02*
X95845713Y-151654819D01*
X95559999Y-151654819D02*
X95559999Y-150654819D01*
X95559999Y-150654819D02*
X95655237Y-150797676D01*
X95655237Y-150797676D02*
X95750475Y-150892914D01*
X95750475Y-150892914D02*
X95845713Y-150940533D01*
X94321904Y-151654819D02*
X94893332Y-151654819D01*
X94607618Y-151654819D02*
X94607618Y-150654819D01*
X94607618Y-150654819D02*
X94702856Y-150797676D01*
X94702856Y-150797676D02*
X94798094Y-150892914D01*
X94798094Y-150892914D02*
X94893332Y-150940533D01*
X93893332Y-151654819D02*
X93893332Y-150654819D01*
X93321904Y-151654819D02*
X93750475Y-151083390D01*
X93321904Y-150654819D02*
X93893332Y-151226247D01*
X101500441Y-77511572D02*
X101442120Y-77545244D01*
X101442120Y-77545244D02*
X101371474Y-77624912D01*
X101371474Y-77624912D02*
X101309850Y-77854894D01*
X101309850Y-77854894D02*
X101331197Y-77959212D01*
X101331197Y-77959212D02*
X101364869Y-78017533D01*
X101364869Y-78017533D02*
X101444537Y-78088179D01*
X101444537Y-78088179D02*
X101536530Y-78112829D01*
X101536530Y-78112829D02*
X101686845Y-78103806D01*
X101686845Y-78103806D02*
X102386699Y-77699745D01*
X102386699Y-77699745D02*
X102226477Y-78297699D01*
X101253947Y-78431501D02*
X101195626Y-78465173D01*
X101195626Y-78465173D02*
X101124980Y-78544841D01*
X101124980Y-78544841D02*
X101063356Y-78774824D01*
X101063356Y-78774824D02*
X101084703Y-78879141D01*
X101084703Y-78879141D02*
X101118375Y-78937463D01*
X101118375Y-78937463D02*
X101198043Y-79008109D01*
X101198043Y-79008109D02*
X101290036Y-79032758D01*
X101290036Y-79032758D02*
X101440350Y-79023736D01*
X101440350Y-79023736D02*
X102140204Y-78619675D01*
X102140204Y-78619675D02*
X101979983Y-79217629D01*
X100853836Y-79556764D02*
X100829186Y-79648757D01*
X100829186Y-79648757D02*
X100850534Y-79753074D01*
X100850534Y-79753074D02*
X100884205Y-79811396D01*
X100884205Y-79811396D02*
X100963873Y-79882041D01*
X100963873Y-79882041D02*
X101135535Y-79977337D01*
X101135535Y-79977337D02*
X101365517Y-80038960D01*
X101365517Y-80038960D02*
X101561828Y-80042263D01*
X101561828Y-80042263D02*
X101666145Y-80020916D01*
X101666145Y-80020916D02*
X101724466Y-79987244D01*
X101724466Y-79987244D02*
X101795112Y-79907576D01*
X101795112Y-79907576D02*
X101819762Y-79815583D01*
X101819762Y-79815583D02*
X101798415Y-79711265D01*
X101798415Y-79711265D02*
X101764743Y-79652944D01*
X101764743Y-79652944D02*
X101685075Y-79582298D01*
X101685075Y-79582298D02*
X101513414Y-79487003D01*
X101513414Y-79487003D02*
X101283431Y-79425379D01*
X101283431Y-79425379D02*
X101087121Y-79422077D01*
X101087121Y-79422077D02*
X100982803Y-79443424D01*
X100982803Y-79443424D02*
X100924482Y-79477096D01*
X100924482Y-79477096D02*
X100853836Y-79556764D01*
X101622566Y-80551526D02*
X100656640Y-80292707D01*
X101474670Y-81103484D02*
X101033634Y-80541619D01*
X100508744Y-80844665D02*
X101208598Y-80440604D01*
X95550057Y-116461905D02*
X95502438Y-116509524D01*
X95502438Y-116509524D02*
X95454819Y-116604762D01*
X95454819Y-116604762D02*
X95454819Y-116842857D01*
X95454819Y-116842857D02*
X95502438Y-116938095D01*
X95502438Y-116938095D02*
X95550057Y-116985714D01*
X95550057Y-116985714D02*
X95645295Y-117033333D01*
X95645295Y-117033333D02*
X95740533Y-117033333D01*
X95740533Y-117033333D02*
X95883390Y-116985714D01*
X95883390Y-116985714D02*
X96454819Y-116414286D01*
X96454819Y-116414286D02*
X96454819Y-117033333D01*
X95550057Y-117414286D02*
X95502438Y-117461905D01*
X95502438Y-117461905D02*
X95454819Y-117557143D01*
X95454819Y-117557143D02*
X95454819Y-117795238D01*
X95454819Y-117795238D02*
X95502438Y-117890476D01*
X95502438Y-117890476D02*
X95550057Y-117938095D01*
X95550057Y-117938095D02*
X95645295Y-117985714D01*
X95645295Y-117985714D02*
X95740533Y-117985714D01*
X95740533Y-117985714D02*
X95883390Y-117938095D01*
X95883390Y-117938095D02*
X96454819Y-117366667D01*
X96454819Y-117366667D02*
X96454819Y-117985714D01*
X95454819Y-118604762D02*
X95454819Y-118700000D01*
X95454819Y-118700000D02*
X95502438Y-118795238D01*
X95502438Y-118795238D02*
X95550057Y-118842857D01*
X95550057Y-118842857D02*
X95645295Y-118890476D01*
X95645295Y-118890476D02*
X95835771Y-118938095D01*
X95835771Y-118938095D02*
X96073866Y-118938095D01*
X96073866Y-118938095D02*
X96264342Y-118890476D01*
X96264342Y-118890476D02*
X96359580Y-118842857D01*
X96359580Y-118842857D02*
X96407200Y-118795238D01*
X96407200Y-118795238D02*
X96454819Y-118700000D01*
X96454819Y-118700000D02*
X96454819Y-118604762D01*
X96454819Y-118604762D02*
X96407200Y-118509524D01*
X96407200Y-118509524D02*
X96359580Y-118461905D01*
X96359580Y-118461905D02*
X96264342Y-118414286D01*
X96264342Y-118414286D02*
X96073866Y-118366667D01*
X96073866Y-118366667D02*
X95835771Y-118366667D01*
X95835771Y-118366667D02*
X95645295Y-118414286D01*
X95645295Y-118414286D02*
X95550057Y-118461905D01*
X95550057Y-118461905D02*
X95502438Y-118509524D01*
X95502438Y-118509524D02*
X95454819Y-118604762D01*
X96454819Y-119366667D02*
X95454819Y-119366667D01*
X96454819Y-119938095D02*
X95883390Y-119509524D01*
X95454819Y-119938095D02*
X96026247Y-119366667D01*
X105458094Y-101150057D02*
X105410475Y-101102438D01*
X105410475Y-101102438D02*
X105315237Y-101054819D01*
X105315237Y-101054819D02*
X105077142Y-101054819D01*
X105077142Y-101054819D02*
X104981904Y-101102438D01*
X104981904Y-101102438D02*
X104934285Y-101150057D01*
X104934285Y-101150057D02*
X104886666Y-101245295D01*
X104886666Y-101245295D02*
X104886666Y-101340533D01*
X104886666Y-101340533D02*
X104934285Y-101483390D01*
X104934285Y-101483390D02*
X105505713Y-102054819D01*
X105505713Y-102054819D02*
X104886666Y-102054819D01*
X104505713Y-101150057D02*
X104458094Y-101102438D01*
X104458094Y-101102438D02*
X104362856Y-101054819D01*
X104362856Y-101054819D02*
X104124761Y-101054819D01*
X104124761Y-101054819D02*
X104029523Y-101102438D01*
X104029523Y-101102438D02*
X103981904Y-101150057D01*
X103981904Y-101150057D02*
X103934285Y-101245295D01*
X103934285Y-101245295D02*
X103934285Y-101340533D01*
X103934285Y-101340533D02*
X103981904Y-101483390D01*
X103981904Y-101483390D02*
X104553332Y-102054819D01*
X104553332Y-102054819D02*
X103934285Y-102054819D01*
X103315237Y-101054819D02*
X103219999Y-101054819D01*
X103219999Y-101054819D02*
X103124761Y-101102438D01*
X103124761Y-101102438D02*
X103077142Y-101150057D01*
X103077142Y-101150057D02*
X103029523Y-101245295D01*
X103029523Y-101245295D02*
X102981904Y-101435771D01*
X102981904Y-101435771D02*
X102981904Y-101673866D01*
X102981904Y-101673866D02*
X103029523Y-101864342D01*
X103029523Y-101864342D02*
X103077142Y-101959580D01*
X103077142Y-101959580D02*
X103124761Y-102007200D01*
X103124761Y-102007200D02*
X103219999Y-102054819D01*
X103219999Y-102054819D02*
X103315237Y-102054819D01*
X103315237Y-102054819D02*
X103410475Y-102007200D01*
X103410475Y-102007200D02*
X103458094Y-101959580D01*
X103458094Y-101959580D02*
X103505713Y-101864342D01*
X103505713Y-101864342D02*
X103553332Y-101673866D01*
X103553332Y-101673866D02*
X103553332Y-101435771D01*
X103553332Y-101435771D02*
X103505713Y-101245295D01*
X103505713Y-101245295D02*
X103458094Y-101150057D01*
X103458094Y-101150057D02*
X103410475Y-101102438D01*
X103410475Y-101102438D02*
X103315237Y-101054819D01*
X102553332Y-102054819D02*
X102553332Y-101054819D01*
X101981904Y-102054819D02*
X102410475Y-101483390D01*
X101981904Y-101054819D02*
X102553332Y-101626247D01*
X112278094Y-97350057D02*
X112230475Y-97302438D01*
X112230475Y-97302438D02*
X112135237Y-97254819D01*
X112135237Y-97254819D02*
X111897142Y-97254819D01*
X111897142Y-97254819D02*
X111801904Y-97302438D01*
X111801904Y-97302438D02*
X111754285Y-97350057D01*
X111754285Y-97350057D02*
X111706666Y-97445295D01*
X111706666Y-97445295D02*
X111706666Y-97540533D01*
X111706666Y-97540533D02*
X111754285Y-97683390D01*
X111754285Y-97683390D02*
X112325713Y-98254819D01*
X112325713Y-98254819D02*
X111706666Y-98254819D01*
X111325713Y-97350057D02*
X111278094Y-97302438D01*
X111278094Y-97302438D02*
X111182856Y-97254819D01*
X111182856Y-97254819D02*
X110944761Y-97254819D01*
X110944761Y-97254819D02*
X110849523Y-97302438D01*
X110849523Y-97302438D02*
X110801904Y-97350057D01*
X110801904Y-97350057D02*
X110754285Y-97445295D01*
X110754285Y-97445295D02*
X110754285Y-97540533D01*
X110754285Y-97540533D02*
X110801904Y-97683390D01*
X110801904Y-97683390D02*
X111373332Y-98254819D01*
X111373332Y-98254819D02*
X110754285Y-98254819D01*
X110135237Y-97254819D02*
X110039999Y-97254819D01*
X110039999Y-97254819D02*
X109944761Y-97302438D01*
X109944761Y-97302438D02*
X109897142Y-97350057D01*
X109897142Y-97350057D02*
X109849523Y-97445295D01*
X109849523Y-97445295D02*
X109801904Y-97635771D01*
X109801904Y-97635771D02*
X109801904Y-97873866D01*
X109801904Y-97873866D02*
X109849523Y-98064342D01*
X109849523Y-98064342D02*
X109897142Y-98159580D01*
X109897142Y-98159580D02*
X109944761Y-98207200D01*
X109944761Y-98207200D02*
X110039999Y-98254819D01*
X110039999Y-98254819D02*
X110135237Y-98254819D01*
X110135237Y-98254819D02*
X110230475Y-98207200D01*
X110230475Y-98207200D02*
X110278094Y-98159580D01*
X110278094Y-98159580D02*
X110325713Y-98064342D01*
X110325713Y-98064342D02*
X110373332Y-97873866D01*
X110373332Y-97873866D02*
X110373332Y-97635771D01*
X110373332Y-97635771D02*
X110325713Y-97445295D01*
X110325713Y-97445295D02*
X110278094Y-97350057D01*
X110278094Y-97350057D02*
X110230475Y-97302438D01*
X110230475Y-97302438D02*
X110135237Y-97254819D01*
X109373332Y-98254819D02*
X109373332Y-97254819D01*
X108801904Y-98254819D02*
X109230475Y-97683390D01*
X108801904Y-97254819D02*
X109373332Y-97826247D01*
X116278094Y-116150057D02*
X116230475Y-116102438D01*
X116230475Y-116102438D02*
X116135237Y-116054819D01*
X116135237Y-116054819D02*
X115897142Y-116054819D01*
X115897142Y-116054819D02*
X115801904Y-116102438D01*
X115801904Y-116102438D02*
X115754285Y-116150057D01*
X115754285Y-116150057D02*
X115706666Y-116245295D01*
X115706666Y-116245295D02*
X115706666Y-116340533D01*
X115706666Y-116340533D02*
X115754285Y-116483390D01*
X115754285Y-116483390D02*
X116325713Y-117054819D01*
X116325713Y-117054819D02*
X115706666Y-117054819D01*
X115325713Y-116150057D02*
X115278094Y-116102438D01*
X115278094Y-116102438D02*
X115182856Y-116054819D01*
X115182856Y-116054819D02*
X114944761Y-116054819D01*
X114944761Y-116054819D02*
X114849523Y-116102438D01*
X114849523Y-116102438D02*
X114801904Y-116150057D01*
X114801904Y-116150057D02*
X114754285Y-116245295D01*
X114754285Y-116245295D02*
X114754285Y-116340533D01*
X114754285Y-116340533D02*
X114801904Y-116483390D01*
X114801904Y-116483390D02*
X115373332Y-117054819D01*
X115373332Y-117054819D02*
X114754285Y-117054819D01*
X114135237Y-116054819D02*
X114039999Y-116054819D01*
X114039999Y-116054819D02*
X113944761Y-116102438D01*
X113944761Y-116102438D02*
X113897142Y-116150057D01*
X113897142Y-116150057D02*
X113849523Y-116245295D01*
X113849523Y-116245295D02*
X113801904Y-116435771D01*
X113801904Y-116435771D02*
X113801904Y-116673866D01*
X113801904Y-116673866D02*
X113849523Y-116864342D01*
X113849523Y-116864342D02*
X113897142Y-116959580D01*
X113897142Y-116959580D02*
X113944761Y-117007200D01*
X113944761Y-117007200D02*
X114039999Y-117054819D01*
X114039999Y-117054819D02*
X114135237Y-117054819D01*
X114135237Y-117054819D02*
X114230475Y-117007200D01*
X114230475Y-117007200D02*
X114278094Y-116959580D01*
X114278094Y-116959580D02*
X114325713Y-116864342D01*
X114325713Y-116864342D02*
X114373332Y-116673866D01*
X114373332Y-116673866D02*
X114373332Y-116435771D01*
X114373332Y-116435771D02*
X114325713Y-116245295D01*
X114325713Y-116245295D02*
X114278094Y-116150057D01*
X114278094Y-116150057D02*
X114230475Y-116102438D01*
X114230475Y-116102438D02*
X114135237Y-116054819D01*
X113373332Y-117054819D02*
X113373332Y-116054819D01*
X112801904Y-117054819D02*
X113230475Y-116483390D01*
X112801904Y-116054819D02*
X113373332Y-116626247D01*
X105290057Y-115061905D02*
X105242438Y-115109524D01*
X105242438Y-115109524D02*
X105194819Y-115204762D01*
X105194819Y-115204762D02*
X105194819Y-115442857D01*
X105194819Y-115442857D02*
X105242438Y-115538095D01*
X105242438Y-115538095D02*
X105290057Y-115585714D01*
X105290057Y-115585714D02*
X105385295Y-115633333D01*
X105385295Y-115633333D02*
X105480533Y-115633333D01*
X105480533Y-115633333D02*
X105623390Y-115585714D01*
X105623390Y-115585714D02*
X106194819Y-115014286D01*
X106194819Y-115014286D02*
X106194819Y-115633333D01*
X105290057Y-116014286D02*
X105242438Y-116061905D01*
X105242438Y-116061905D02*
X105194819Y-116157143D01*
X105194819Y-116157143D02*
X105194819Y-116395238D01*
X105194819Y-116395238D02*
X105242438Y-116490476D01*
X105242438Y-116490476D02*
X105290057Y-116538095D01*
X105290057Y-116538095D02*
X105385295Y-116585714D01*
X105385295Y-116585714D02*
X105480533Y-116585714D01*
X105480533Y-116585714D02*
X105623390Y-116538095D01*
X105623390Y-116538095D02*
X106194819Y-115966667D01*
X106194819Y-115966667D02*
X106194819Y-116585714D01*
X105194819Y-117204762D02*
X105194819Y-117300000D01*
X105194819Y-117300000D02*
X105242438Y-117395238D01*
X105242438Y-117395238D02*
X105290057Y-117442857D01*
X105290057Y-117442857D02*
X105385295Y-117490476D01*
X105385295Y-117490476D02*
X105575771Y-117538095D01*
X105575771Y-117538095D02*
X105813866Y-117538095D01*
X105813866Y-117538095D02*
X106004342Y-117490476D01*
X106004342Y-117490476D02*
X106099580Y-117442857D01*
X106099580Y-117442857D02*
X106147200Y-117395238D01*
X106147200Y-117395238D02*
X106194819Y-117300000D01*
X106194819Y-117300000D02*
X106194819Y-117204762D01*
X106194819Y-117204762D02*
X106147200Y-117109524D01*
X106147200Y-117109524D02*
X106099580Y-117061905D01*
X106099580Y-117061905D02*
X106004342Y-117014286D01*
X106004342Y-117014286D02*
X105813866Y-116966667D01*
X105813866Y-116966667D02*
X105575771Y-116966667D01*
X105575771Y-116966667D02*
X105385295Y-117014286D01*
X105385295Y-117014286D02*
X105290057Y-117061905D01*
X105290057Y-117061905D02*
X105242438Y-117109524D01*
X105242438Y-117109524D02*
X105194819Y-117204762D01*
X106194819Y-117966667D02*
X105194819Y-117966667D01*
X106194819Y-118538095D02*
X105623390Y-118109524D01*
X105194819Y-118538095D02*
X105766247Y-117966667D01*
X108750057Y-77541905D02*
X108702438Y-77589524D01*
X108702438Y-77589524D02*
X108654819Y-77684762D01*
X108654819Y-77684762D02*
X108654819Y-77922857D01*
X108654819Y-77922857D02*
X108702438Y-78018095D01*
X108702438Y-78018095D02*
X108750057Y-78065714D01*
X108750057Y-78065714D02*
X108845295Y-78113333D01*
X108845295Y-78113333D02*
X108940533Y-78113333D01*
X108940533Y-78113333D02*
X109083390Y-78065714D01*
X109083390Y-78065714D02*
X109654819Y-77494286D01*
X109654819Y-77494286D02*
X109654819Y-78113333D01*
X108750057Y-78494286D02*
X108702438Y-78541905D01*
X108702438Y-78541905D02*
X108654819Y-78637143D01*
X108654819Y-78637143D02*
X108654819Y-78875238D01*
X108654819Y-78875238D02*
X108702438Y-78970476D01*
X108702438Y-78970476D02*
X108750057Y-79018095D01*
X108750057Y-79018095D02*
X108845295Y-79065714D01*
X108845295Y-79065714D02*
X108940533Y-79065714D01*
X108940533Y-79065714D02*
X109083390Y-79018095D01*
X109083390Y-79018095D02*
X109654819Y-78446667D01*
X109654819Y-78446667D02*
X109654819Y-79065714D01*
X108654819Y-79684762D02*
X108654819Y-79780000D01*
X108654819Y-79780000D02*
X108702438Y-79875238D01*
X108702438Y-79875238D02*
X108750057Y-79922857D01*
X108750057Y-79922857D02*
X108845295Y-79970476D01*
X108845295Y-79970476D02*
X109035771Y-80018095D01*
X109035771Y-80018095D02*
X109273866Y-80018095D01*
X109273866Y-80018095D02*
X109464342Y-79970476D01*
X109464342Y-79970476D02*
X109559580Y-79922857D01*
X109559580Y-79922857D02*
X109607200Y-79875238D01*
X109607200Y-79875238D02*
X109654819Y-79780000D01*
X109654819Y-79780000D02*
X109654819Y-79684762D01*
X109654819Y-79684762D02*
X109607200Y-79589524D01*
X109607200Y-79589524D02*
X109559580Y-79541905D01*
X109559580Y-79541905D02*
X109464342Y-79494286D01*
X109464342Y-79494286D02*
X109273866Y-79446667D01*
X109273866Y-79446667D02*
X109035771Y-79446667D01*
X109035771Y-79446667D02*
X108845295Y-79494286D01*
X108845295Y-79494286D02*
X108750057Y-79541905D01*
X108750057Y-79541905D02*
X108702438Y-79589524D01*
X108702438Y-79589524D02*
X108654819Y-79684762D01*
X109654819Y-80446667D02*
X108654819Y-80446667D01*
X109654819Y-81018095D02*
X109083390Y-80589524D01*
X108654819Y-81018095D02*
X109226247Y-80446667D01*
X107998094Y-147350057D02*
X107950475Y-147302438D01*
X107950475Y-147302438D02*
X107855237Y-147254819D01*
X107855237Y-147254819D02*
X107617142Y-147254819D01*
X107617142Y-147254819D02*
X107521904Y-147302438D01*
X107521904Y-147302438D02*
X107474285Y-147350057D01*
X107474285Y-147350057D02*
X107426666Y-147445295D01*
X107426666Y-147445295D02*
X107426666Y-147540533D01*
X107426666Y-147540533D02*
X107474285Y-147683390D01*
X107474285Y-147683390D02*
X108045713Y-148254819D01*
X108045713Y-148254819D02*
X107426666Y-148254819D01*
X107045713Y-147350057D02*
X106998094Y-147302438D01*
X106998094Y-147302438D02*
X106902856Y-147254819D01*
X106902856Y-147254819D02*
X106664761Y-147254819D01*
X106664761Y-147254819D02*
X106569523Y-147302438D01*
X106569523Y-147302438D02*
X106521904Y-147350057D01*
X106521904Y-147350057D02*
X106474285Y-147445295D01*
X106474285Y-147445295D02*
X106474285Y-147540533D01*
X106474285Y-147540533D02*
X106521904Y-147683390D01*
X106521904Y-147683390D02*
X107093332Y-148254819D01*
X107093332Y-148254819D02*
X106474285Y-148254819D01*
X105855237Y-147254819D02*
X105759999Y-147254819D01*
X105759999Y-147254819D02*
X105664761Y-147302438D01*
X105664761Y-147302438D02*
X105617142Y-147350057D01*
X105617142Y-147350057D02*
X105569523Y-147445295D01*
X105569523Y-147445295D02*
X105521904Y-147635771D01*
X105521904Y-147635771D02*
X105521904Y-147873866D01*
X105521904Y-147873866D02*
X105569523Y-148064342D01*
X105569523Y-148064342D02*
X105617142Y-148159580D01*
X105617142Y-148159580D02*
X105664761Y-148207200D01*
X105664761Y-148207200D02*
X105759999Y-148254819D01*
X105759999Y-148254819D02*
X105855237Y-148254819D01*
X105855237Y-148254819D02*
X105950475Y-148207200D01*
X105950475Y-148207200D02*
X105998094Y-148159580D01*
X105998094Y-148159580D02*
X106045713Y-148064342D01*
X106045713Y-148064342D02*
X106093332Y-147873866D01*
X106093332Y-147873866D02*
X106093332Y-147635771D01*
X106093332Y-147635771D02*
X106045713Y-147445295D01*
X106045713Y-147445295D02*
X105998094Y-147350057D01*
X105998094Y-147350057D02*
X105950475Y-147302438D01*
X105950475Y-147302438D02*
X105855237Y-147254819D01*
X105093332Y-148254819D02*
X105093332Y-147254819D01*
X104521904Y-148254819D02*
X104950475Y-147683390D01*
X104521904Y-147254819D02*
X105093332Y-147826247D01*
X107998094Y-144150057D02*
X107950475Y-144102438D01*
X107950475Y-144102438D02*
X107855237Y-144054819D01*
X107855237Y-144054819D02*
X107617142Y-144054819D01*
X107617142Y-144054819D02*
X107521904Y-144102438D01*
X107521904Y-144102438D02*
X107474285Y-144150057D01*
X107474285Y-144150057D02*
X107426666Y-144245295D01*
X107426666Y-144245295D02*
X107426666Y-144340533D01*
X107426666Y-144340533D02*
X107474285Y-144483390D01*
X107474285Y-144483390D02*
X108045713Y-145054819D01*
X108045713Y-145054819D02*
X107426666Y-145054819D01*
X107045713Y-144150057D02*
X106998094Y-144102438D01*
X106998094Y-144102438D02*
X106902856Y-144054819D01*
X106902856Y-144054819D02*
X106664761Y-144054819D01*
X106664761Y-144054819D02*
X106569523Y-144102438D01*
X106569523Y-144102438D02*
X106521904Y-144150057D01*
X106521904Y-144150057D02*
X106474285Y-144245295D01*
X106474285Y-144245295D02*
X106474285Y-144340533D01*
X106474285Y-144340533D02*
X106521904Y-144483390D01*
X106521904Y-144483390D02*
X107093332Y-145054819D01*
X107093332Y-145054819D02*
X106474285Y-145054819D01*
X105855237Y-144054819D02*
X105759999Y-144054819D01*
X105759999Y-144054819D02*
X105664761Y-144102438D01*
X105664761Y-144102438D02*
X105617142Y-144150057D01*
X105617142Y-144150057D02*
X105569523Y-144245295D01*
X105569523Y-144245295D02*
X105521904Y-144435771D01*
X105521904Y-144435771D02*
X105521904Y-144673866D01*
X105521904Y-144673866D02*
X105569523Y-144864342D01*
X105569523Y-144864342D02*
X105617142Y-144959580D01*
X105617142Y-144959580D02*
X105664761Y-145007200D01*
X105664761Y-145007200D02*
X105759999Y-145054819D01*
X105759999Y-145054819D02*
X105855237Y-145054819D01*
X105855237Y-145054819D02*
X105950475Y-145007200D01*
X105950475Y-145007200D02*
X105998094Y-144959580D01*
X105998094Y-144959580D02*
X106045713Y-144864342D01*
X106045713Y-144864342D02*
X106093332Y-144673866D01*
X106093332Y-144673866D02*
X106093332Y-144435771D01*
X106093332Y-144435771D02*
X106045713Y-144245295D01*
X106045713Y-144245295D02*
X105998094Y-144150057D01*
X105998094Y-144150057D02*
X105950475Y-144102438D01*
X105950475Y-144102438D02*
X105855237Y-144054819D01*
X105093332Y-145054819D02*
X105093332Y-144054819D01*
X104521904Y-145054819D02*
X104950475Y-144483390D01*
X104521904Y-144054819D02*
X105093332Y-144626247D01*
X107998094Y-141150057D02*
X107950475Y-141102438D01*
X107950475Y-141102438D02*
X107855237Y-141054819D01*
X107855237Y-141054819D02*
X107617142Y-141054819D01*
X107617142Y-141054819D02*
X107521904Y-141102438D01*
X107521904Y-141102438D02*
X107474285Y-141150057D01*
X107474285Y-141150057D02*
X107426666Y-141245295D01*
X107426666Y-141245295D02*
X107426666Y-141340533D01*
X107426666Y-141340533D02*
X107474285Y-141483390D01*
X107474285Y-141483390D02*
X108045713Y-142054819D01*
X108045713Y-142054819D02*
X107426666Y-142054819D01*
X107045713Y-141150057D02*
X106998094Y-141102438D01*
X106998094Y-141102438D02*
X106902856Y-141054819D01*
X106902856Y-141054819D02*
X106664761Y-141054819D01*
X106664761Y-141054819D02*
X106569523Y-141102438D01*
X106569523Y-141102438D02*
X106521904Y-141150057D01*
X106521904Y-141150057D02*
X106474285Y-141245295D01*
X106474285Y-141245295D02*
X106474285Y-141340533D01*
X106474285Y-141340533D02*
X106521904Y-141483390D01*
X106521904Y-141483390D02*
X107093332Y-142054819D01*
X107093332Y-142054819D02*
X106474285Y-142054819D01*
X105855237Y-141054819D02*
X105759999Y-141054819D01*
X105759999Y-141054819D02*
X105664761Y-141102438D01*
X105664761Y-141102438D02*
X105617142Y-141150057D01*
X105617142Y-141150057D02*
X105569523Y-141245295D01*
X105569523Y-141245295D02*
X105521904Y-141435771D01*
X105521904Y-141435771D02*
X105521904Y-141673866D01*
X105521904Y-141673866D02*
X105569523Y-141864342D01*
X105569523Y-141864342D02*
X105617142Y-141959580D01*
X105617142Y-141959580D02*
X105664761Y-142007200D01*
X105664761Y-142007200D02*
X105759999Y-142054819D01*
X105759999Y-142054819D02*
X105855237Y-142054819D01*
X105855237Y-142054819D02*
X105950475Y-142007200D01*
X105950475Y-142007200D02*
X105998094Y-141959580D01*
X105998094Y-141959580D02*
X106045713Y-141864342D01*
X106045713Y-141864342D02*
X106093332Y-141673866D01*
X106093332Y-141673866D02*
X106093332Y-141435771D01*
X106093332Y-141435771D02*
X106045713Y-141245295D01*
X106045713Y-141245295D02*
X105998094Y-141150057D01*
X105998094Y-141150057D02*
X105950475Y-141102438D01*
X105950475Y-141102438D02*
X105855237Y-141054819D01*
X105093332Y-142054819D02*
X105093332Y-141054819D01*
X104521904Y-142054819D02*
X104950475Y-141483390D01*
X104521904Y-141054819D02*
X105093332Y-141626247D01*
X107918094Y-137950057D02*
X107870475Y-137902438D01*
X107870475Y-137902438D02*
X107775237Y-137854819D01*
X107775237Y-137854819D02*
X107537142Y-137854819D01*
X107537142Y-137854819D02*
X107441904Y-137902438D01*
X107441904Y-137902438D02*
X107394285Y-137950057D01*
X107394285Y-137950057D02*
X107346666Y-138045295D01*
X107346666Y-138045295D02*
X107346666Y-138140533D01*
X107346666Y-138140533D02*
X107394285Y-138283390D01*
X107394285Y-138283390D02*
X107965713Y-138854819D01*
X107965713Y-138854819D02*
X107346666Y-138854819D01*
X106965713Y-137950057D02*
X106918094Y-137902438D01*
X106918094Y-137902438D02*
X106822856Y-137854819D01*
X106822856Y-137854819D02*
X106584761Y-137854819D01*
X106584761Y-137854819D02*
X106489523Y-137902438D01*
X106489523Y-137902438D02*
X106441904Y-137950057D01*
X106441904Y-137950057D02*
X106394285Y-138045295D01*
X106394285Y-138045295D02*
X106394285Y-138140533D01*
X106394285Y-138140533D02*
X106441904Y-138283390D01*
X106441904Y-138283390D02*
X107013332Y-138854819D01*
X107013332Y-138854819D02*
X106394285Y-138854819D01*
X105775237Y-137854819D02*
X105679999Y-137854819D01*
X105679999Y-137854819D02*
X105584761Y-137902438D01*
X105584761Y-137902438D02*
X105537142Y-137950057D01*
X105537142Y-137950057D02*
X105489523Y-138045295D01*
X105489523Y-138045295D02*
X105441904Y-138235771D01*
X105441904Y-138235771D02*
X105441904Y-138473866D01*
X105441904Y-138473866D02*
X105489523Y-138664342D01*
X105489523Y-138664342D02*
X105537142Y-138759580D01*
X105537142Y-138759580D02*
X105584761Y-138807200D01*
X105584761Y-138807200D02*
X105679999Y-138854819D01*
X105679999Y-138854819D02*
X105775237Y-138854819D01*
X105775237Y-138854819D02*
X105870475Y-138807200D01*
X105870475Y-138807200D02*
X105918094Y-138759580D01*
X105918094Y-138759580D02*
X105965713Y-138664342D01*
X105965713Y-138664342D02*
X106013332Y-138473866D01*
X106013332Y-138473866D02*
X106013332Y-138235771D01*
X106013332Y-138235771D02*
X105965713Y-138045295D01*
X105965713Y-138045295D02*
X105918094Y-137950057D01*
X105918094Y-137950057D02*
X105870475Y-137902438D01*
X105870475Y-137902438D02*
X105775237Y-137854819D01*
X105013332Y-138854819D02*
X105013332Y-137854819D01*
X104441904Y-138854819D02*
X104870475Y-138283390D01*
X104441904Y-137854819D02*
X105013332Y-138426247D01*
X107878094Y-134750057D02*
X107830475Y-134702438D01*
X107830475Y-134702438D02*
X107735237Y-134654819D01*
X107735237Y-134654819D02*
X107497142Y-134654819D01*
X107497142Y-134654819D02*
X107401904Y-134702438D01*
X107401904Y-134702438D02*
X107354285Y-134750057D01*
X107354285Y-134750057D02*
X107306666Y-134845295D01*
X107306666Y-134845295D02*
X107306666Y-134940533D01*
X107306666Y-134940533D02*
X107354285Y-135083390D01*
X107354285Y-135083390D02*
X107925713Y-135654819D01*
X107925713Y-135654819D02*
X107306666Y-135654819D01*
X106925713Y-134750057D02*
X106878094Y-134702438D01*
X106878094Y-134702438D02*
X106782856Y-134654819D01*
X106782856Y-134654819D02*
X106544761Y-134654819D01*
X106544761Y-134654819D02*
X106449523Y-134702438D01*
X106449523Y-134702438D02*
X106401904Y-134750057D01*
X106401904Y-134750057D02*
X106354285Y-134845295D01*
X106354285Y-134845295D02*
X106354285Y-134940533D01*
X106354285Y-134940533D02*
X106401904Y-135083390D01*
X106401904Y-135083390D02*
X106973332Y-135654819D01*
X106973332Y-135654819D02*
X106354285Y-135654819D01*
X105735237Y-134654819D02*
X105639999Y-134654819D01*
X105639999Y-134654819D02*
X105544761Y-134702438D01*
X105544761Y-134702438D02*
X105497142Y-134750057D01*
X105497142Y-134750057D02*
X105449523Y-134845295D01*
X105449523Y-134845295D02*
X105401904Y-135035771D01*
X105401904Y-135035771D02*
X105401904Y-135273866D01*
X105401904Y-135273866D02*
X105449523Y-135464342D01*
X105449523Y-135464342D02*
X105497142Y-135559580D01*
X105497142Y-135559580D02*
X105544761Y-135607200D01*
X105544761Y-135607200D02*
X105639999Y-135654819D01*
X105639999Y-135654819D02*
X105735237Y-135654819D01*
X105735237Y-135654819D02*
X105830475Y-135607200D01*
X105830475Y-135607200D02*
X105878094Y-135559580D01*
X105878094Y-135559580D02*
X105925713Y-135464342D01*
X105925713Y-135464342D02*
X105973332Y-135273866D01*
X105973332Y-135273866D02*
X105973332Y-135035771D01*
X105973332Y-135035771D02*
X105925713Y-134845295D01*
X105925713Y-134845295D02*
X105878094Y-134750057D01*
X105878094Y-134750057D02*
X105830475Y-134702438D01*
X105830475Y-134702438D02*
X105735237Y-134654819D01*
X104973332Y-135654819D02*
X104973332Y-134654819D01*
X104401904Y-135654819D02*
X104830475Y-135083390D01*
X104401904Y-134654819D02*
X104973332Y-135226247D01*
X107878094Y-131550057D02*
X107830475Y-131502438D01*
X107830475Y-131502438D02*
X107735237Y-131454819D01*
X107735237Y-131454819D02*
X107497142Y-131454819D01*
X107497142Y-131454819D02*
X107401904Y-131502438D01*
X107401904Y-131502438D02*
X107354285Y-131550057D01*
X107354285Y-131550057D02*
X107306666Y-131645295D01*
X107306666Y-131645295D02*
X107306666Y-131740533D01*
X107306666Y-131740533D02*
X107354285Y-131883390D01*
X107354285Y-131883390D02*
X107925713Y-132454819D01*
X107925713Y-132454819D02*
X107306666Y-132454819D01*
X106925713Y-131550057D02*
X106878094Y-131502438D01*
X106878094Y-131502438D02*
X106782856Y-131454819D01*
X106782856Y-131454819D02*
X106544761Y-131454819D01*
X106544761Y-131454819D02*
X106449523Y-131502438D01*
X106449523Y-131502438D02*
X106401904Y-131550057D01*
X106401904Y-131550057D02*
X106354285Y-131645295D01*
X106354285Y-131645295D02*
X106354285Y-131740533D01*
X106354285Y-131740533D02*
X106401904Y-131883390D01*
X106401904Y-131883390D02*
X106973332Y-132454819D01*
X106973332Y-132454819D02*
X106354285Y-132454819D01*
X105735237Y-131454819D02*
X105639999Y-131454819D01*
X105639999Y-131454819D02*
X105544761Y-131502438D01*
X105544761Y-131502438D02*
X105497142Y-131550057D01*
X105497142Y-131550057D02*
X105449523Y-131645295D01*
X105449523Y-131645295D02*
X105401904Y-131835771D01*
X105401904Y-131835771D02*
X105401904Y-132073866D01*
X105401904Y-132073866D02*
X105449523Y-132264342D01*
X105449523Y-132264342D02*
X105497142Y-132359580D01*
X105497142Y-132359580D02*
X105544761Y-132407200D01*
X105544761Y-132407200D02*
X105639999Y-132454819D01*
X105639999Y-132454819D02*
X105735237Y-132454819D01*
X105735237Y-132454819D02*
X105830475Y-132407200D01*
X105830475Y-132407200D02*
X105878094Y-132359580D01*
X105878094Y-132359580D02*
X105925713Y-132264342D01*
X105925713Y-132264342D02*
X105973332Y-132073866D01*
X105973332Y-132073866D02*
X105973332Y-131835771D01*
X105973332Y-131835771D02*
X105925713Y-131645295D01*
X105925713Y-131645295D02*
X105878094Y-131550057D01*
X105878094Y-131550057D02*
X105830475Y-131502438D01*
X105830475Y-131502438D02*
X105735237Y-131454819D01*
X104973332Y-132454819D02*
X104973332Y-131454819D01*
X104401904Y-132454819D02*
X104830475Y-131883390D01*
X104401904Y-131454819D02*
X104973332Y-132026247D01*
X107878094Y-128550057D02*
X107830475Y-128502438D01*
X107830475Y-128502438D02*
X107735237Y-128454819D01*
X107735237Y-128454819D02*
X107497142Y-128454819D01*
X107497142Y-128454819D02*
X107401904Y-128502438D01*
X107401904Y-128502438D02*
X107354285Y-128550057D01*
X107354285Y-128550057D02*
X107306666Y-128645295D01*
X107306666Y-128645295D02*
X107306666Y-128740533D01*
X107306666Y-128740533D02*
X107354285Y-128883390D01*
X107354285Y-128883390D02*
X107925713Y-129454819D01*
X107925713Y-129454819D02*
X107306666Y-129454819D01*
X106925713Y-128550057D02*
X106878094Y-128502438D01*
X106878094Y-128502438D02*
X106782856Y-128454819D01*
X106782856Y-128454819D02*
X106544761Y-128454819D01*
X106544761Y-128454819D02*
X106449523Y-128502438D01*
X106449523Y-128502438D02*
X106401904Y-128550057D01*
X106401904Y-128550057D02*
X106354285Y-128645295D01*
X106354285Y-128645295D02*
X106354285Y-128740533D01*
X106354285Y-128740533D02*
X106401904Y-128883390D01*
X106401904Y-128883390D02*
X106973332Y-129454819D01*
X106973332Y-129454819D02*
X106354285Y-129454819D01*
X105735237Y-128454819D02*
X105639999Y-128454819D01*
X105639999Y-128454819D02*
X105544761Y-128502438D01*
X105544761Y-128502438D02*
X105497142Y-128550057D01*
X105497142Y-128550057D02*
X105449523Y-128645295D01*
X105449523Y-128645295D02*
X105401904Y-128835771D01*
X105401904Y-128835771D02*
X105401904Y-129073866D01*
X105401904Y-129073866D02*
X105449523Y-129264342D01*
X105449523Y-129264342D02*
X105497142Y-129359580D01*
X105497142Y-129359580D02*
X105544761Y-129407200D01*
X105544761Y-129407200D02*
X105639999Y-129454819D01*
X105639999Y-129454819D02*
X105735237Y-129454819D01*
X105735237Y-129454819D02*
X105830475Y-129407200D01*
X105830475Y-129407200D02*
X105878094Y-129359580D01*
X105878094Y-129359580D02*
X105925713Y-129264342D01*
X105925713Y-129264342D02*
X105973332Y-129073866D01*
X105973332Y-129073866D02*
X105973332Y-128835771D01*
X105973332Y-128835771D02*
X105925713Y-128645295D01*
X105925713Y-128645295D02*
X105878094Y-128550057D01*
X105878094Y-128550057D02*
X105830475Y-128502438D01*
X105830475Y-128502438D02*
X105735237Y-128454819D01*
X104973332Y-129454819D02*
X104973332Y-128454819D01*
X104401904Y-129454819D02*
X104830475Y-128883390D01*
X104401904Y-128454819D02*
X104973332Y-129026247D01*
X107798094Y-125350057D02*
X107750475Y-125302438D01*
X107750475Y-125302438D02*
X107655237Y-125254819D01*
X107655237Y-125254819D02*
X107417142Y-125254819D01*
X107417142Y-125254819D02*
X107321904Y-125302438D01*
X107321904Y-125302438D02*
X107274285Y-125350057D01*
X107274285Y-125350057D02*
X107226666Y-125445295D01*
X107226666Y-125445295D02*
X107226666Y-125540533D01*
X107226666Y-125540533D02*
X107274285Y-125683390D01*
X107274285Y-125683390D02*
X107845713Y-126254819D01*
X107845713Y-126254819D02*
X107226666Y-126254819D01*
X106845713Y-125350057D02*
X106798094Y-125302438D01*
X106798094Y-125302438D02*
X106702856Y-125254819D01*
X106702856Y-125254819D02*
X106464761Y-125254819D01*
X106464761Y-125254819D02*
X106369523Y-125302438D01*
X106369523Y-125302438D02*
X106321904Y-125350057D01*
X106321904Y-125350057D02*
X106274285Y-125445295D01*
X106274285Y-125445295D02*
X106274285Y-125540533D01*
X106274285Y-125540533D02*
X106321904Y-125683390D01*
X106321904Y-125683390D02*
X106893332Y-126254819D01*
X106893332Y-126254819D02*
X106274285Y-126254819D01*
X105655237Y-125254819D02*
X105559999Y-125254819D01*
X105559999Y-125254819D02*
X105464761Y-125302438D01*
X105464761Y-125302438D02*
X105417142Y-125350057D01*
X105417142Y-125350057D02*
X105369523Y-125445295D01*
X105369523Y-125445295D02*
X105321904Y-125635771D01*
X105321904Y-125635771D02*
X105321904Y-125873866D01*
X105321904Y-125873866D02*
X105369523Y-126064342D01*
X105369523Y-126064342D02*
X105417142Y-126159580D01*
X105417142Y-126159580D02*
X105464761Y-126207200D01*
X105464761Y-126207200D02*
X105559999Y-126254819D01*
X105559999Y-126254819D02*
X105655237Y-126254819D01*
X105655237Y-126254819D02*
X105750475Y-126207200D01*
X105750475Y-126207200D02*
X105798094Y-126159580D01*
X105798094Y-126159580D02*
X105845713Y-126064342D01*
X105845713Y-126064342D02*
X105893332Y-125873866D01*
X105893332Y-125873866D02*
X105893332Y-125635771D01*
X105893332Y-125635771D02*
X105845713Y-125445295D01*
X105845713Y-125445295D02*
X105798094Y-125350057D01*
X105798094Y-125350057D02*
X105750475Y-125302438D01*
X105750475Y-125302438D02*
X105655237Y-125254819D01*
X104893332Y-126254819D02*
X104893332Y-125254819D01*
X104321904Y-126254819D02*
X104750475Y-125683390D01*
X104321904Y-125254819D02*
X104893332Y-125826247D01*
X107958094Y-107874057D02*
X107910475Y-107826438D01*
X107910475Y-107826438D02*
X107815237Y-107778819D01*
X107815237Y-107778819D02*
X107577142Y-107778819D01*
X107577142Y-107778819D02*
X107481904Y-107826438D01*
X107481904Y-107826438D02*
X107434285Y-107874057D01*
X107434285Y-107874057D02*
X107386666Y-107969295D01*
X107386666Y-107969295D02*
X107386666Y-108064533D01*
X107386666Y-108064533D02*
X107434285Y-108207390D01*
X107434285Y-108207390D02*
X108005713Y-108778819D01*
X108005713Y-108778819D02*
X107386666Y-108778819D01*
X107005713Y-107874057D02*
X106958094Y-107826438D01*
X106958094Y-107826438D02*
X106862856Y-107778819D01*
X106862856Y-107778819D02*
X106624761Y-107778819D01*
X106624761Y-107778819D02*
X106529523Y-107826438D01*
X106529523Y-107826438D02*
X106481904Y-107874057D01*
X106481904Y-107874057D02*
X106434285Y-107969295D01*
X106434285Y-107969295D02*
X106434285Y-108064533D01*
X106434285Y-108064533D02*
X106481904Y-108207390D01*
X106481904Y-108207390D02*
X107053332Y-108778819D01*
X107053332Y-108778819D02*
X106434285Y-108778819D01*
X105815237Y-107778819D02*
X105719999Y-107778819D01*
X105719999Y-107778819D02*
X105624761Y-107826438D01*
X105624761Y-107826438D02*
X105577142Y-107874057D01*
X105577142Y-107874057D02*
X105529523Y-107969295D01*
X105529523Y-107969295D02*
X105481904Y-108159771D01*
X105481904Y-108159771D02*
X105481904Y-108397866D01*
X105481904Y-108397866D02*
X105529523Y-108588342D01*
X105529523Y-108588342D02*
X105577142Y-108683580D01*
X105577142Y-108683580D02*
X105624761Y-108731200D01*
X105624761Y-108731200D02*
X105719999Y-108778819D01*
X105719999Y-108778819D02*
X105815237Y-108778819D01*
X105815237Y-108778819D02*
X105910475Y-108731200D01*
X105910475Y-108731200D02*
X105958094Y-108683580D01*
X105958094Y-108683580D02*
X106005713Y-108588342D01*
X106005713Y-108588342D02*
X106053332Y-108397866D01*
X106053332Y-108397866D02*
X106053332Y-108159771D01*
X106053332Y-108159771D02*
X106005713Y-107969295D01*
X106005713Y-107969295D02*
X105958094Y-107874057D01*
X105958094Y-107874057D02*
X105910475Y-107826438D01*
X105910475Y-107826438D02*
X105815237Y-107778819D01*
X105053332Y-108778819D02*
X105053332Y-107778819D01*
X104481904Y-108778819D02*
X104910475Y-108207390D01*
X104481904Y-107778819D02*
X105053332Y-108350247D01*
X107878094Y-104750057D02*
X107830475Y-104702438D01*
X107830475Y-104702438D02*
X107735237Y-104654819D01*
X107735237Y-104654819D02*
X107497142Y-104654819D01*
X107497142Y-104654819D02*
X107401904Y-104702438D01*
X107401904Y-104702438D02*
X107354285Y-104750057D01*
X107354285Y-104750057D02*
X107306666Y-104845295D01*
X107306666Y-104845295D02*
X107306666Y-104940533D01*
X107306666Y-104940533D02*
X107354285Y-105083390D01*
X107354285Y-105083390D02*
X107925713Y-105654819D01*
X107925713Y-105654819D02*
X107306666Y-105654819D01*
X106925713Y-104750057D02*
X106878094Y-104702438D01*
X106878094Y-104702438D02*
X106782856Y-104654819D01*
X106782856Y-104654819D02*
X106544761Y-104654819D01*
X106544761Y-104654819D02*
X106449523Y-104702438D01*
X106449523Y-104702438D02*
X106401904Y-104750057D01*
X106401904Y-104750057D02*
X106354285Y-104845295D01*
X106354285Y-104845295D02*
X106354285Y-104940533D01*
X106354285Y-104940533D02*
X106401904Y-105083390D01*
X106401904Y-105083390D02*
X106973332Y-105654819D01*
X106973332Y-105654819D02*
X106354285Y-105654819D01*
X105735237Y-104654819D02*
X105639999Y-104654819D01*
X105639999Y-104654819D02*
X105544761Y-104702438D01*
X105544761Y-104702438D02*
X105497142Y-104750057D01*
X105497142Y-104750057D02*
X105449523Y-104845295D01*
X105449523Y-104845295D02*
X105401904Y-105035771D01*
X105401904Y-105035771D02*
X105401904Y-105273866D01*
X105401904Y-105273866D02*
X105449523Y-105464342D01*
X105449523Y-105464342D02*
X105497142Y-105559580D01*
X105497142Y-105559580D02*
X105544761Y-105607200D01*
X105544761Y-105607200D02*
X105639999Y-105654819D01*
X105639999Y-105654819D02*
X105735237Y-105654819D01*
X105735237Y-105654819D02*
X105830475Y-105607200D01*
X105830475Y-105607200D02*
X105878094Y-105559580D01*
X105878094Y-105559580D02*
X105925713Y-105464342D01*
X105925713Y-105464342D02*
X105973332Y-105273866D01*
X105973332Y-105273866D02*
X105973332Y-105035771D01*
X105973332Y-105035771D02*
X105925713Y-104845295D01*
X105925713Y-104845295D02*
X105878094Y-104750057D01*
X105878094Y-104750057D02*
X105830475Y-104702438D01*
X105830475Y-104702438D02*
X105735237Y-104654819D01*
X104973332Y-105654819D02*
X104973332Y-104654819D01*
X104401904Y-105654819D02*
X104830475Y-105083390D01*
X104401904Y-104654819D02*
X104973332Y-105226247D01*
X107878094Y-89798057D02*
X107830475Y-89750438D01*
X107830475Y-89750438D02*
X107735237Y-89702819D01*
X107735237Y-89702819D02*
X107497142Y-89702819D01*
X107497142Y-89702819D02*
X107401904Y-89750438D01*
X107401904Y-89750438D02*
X107354285Y-89798057D01*
X107354285Y-89798057D02*
X107306666Y-89893295D01*
X107306666Y-89893295D02*
X107306666Y-89988533D01*
X107306666Y-89988533D02*
X107354285Y-90131390D01*
X107354285Y-90131390D02*
X107925713Y-90702819D01*
X107925713Y-90702819D02*
X107306666Y-90702819D01*
X106925713Y-89798057D02*
X106878094Y-89750438D01*
X106878094Y-89750438D02*
X106782856Y-89702819D01*
X106782856Y-89702819D02*
X106544761Y-89702819D01*
X106544761Y-89702819D02*
X106449523Y-89750438D01*
X106449523Y-89750438D02*
X106401904Y-89798057D01*
X106401904Y-89798057D02*
X106354285Y-89893295D01*
X106354285Y-89893295D02*
X106354285Y-89988533D01*
X106354285Y-89988533D02*
X106401904Y-90131390D01*
X106401904Y-90131390D02*
X106973332Y-90702819D01*
X106973332Y-90702819D02*
X106354285Y-90702819D01*
X105735237Y-89702819D02*
X105639999Y-89702819D01*
X105639999Y-89702819D02*
X105544761Y-89750438D01*
X105544761Y-89750438D02*
X105497142Y-89798057D01*
X105497142Y-89798057D02*
X105449523Y-89893295D01*
X105449523Y-89893295D02*
X105401904Y-90083771D01*
X105401904Y-90083771D02*
X105401904Y-90321866D01*
X105401904Y-90321866D02*
X105449523Y-90512342D01*
X105449523Y-90512342D02*
X105497142Y-90607580D01*
X105497142Y-90607580D02*
X105544761Y-90655200D01*
X105544761Y-90655200D02*
X105639999Y-90702819D01*
X105639999Y-90702819D02*
X105735237Y-90702819D01*
X105735237Y-90702819D02*
X105830475Y-90655200D01*
X105830475Y-90655200D02*
X105878094Y-90607580D01*
X105878094Y-90607580D02*
X105925713Y-90512342D01*
X105925713Y-90512342D02*
X105973332Y-90321866D01*
X105973332Y-90321866D02*
X105973332Y-90083771D01*
X105973332Y-90083771D02*
X105925713Y-89893295D01*
X105925713Y-89893295D02*
X105878094Y-89798057D01*
X105878094Y-89798057D02*
X105830475Y-89750438D01*
X105830475Y-89750438D02*
X105735237Y-89702819D01*
X104973332Y-90702819D02*
X104973332Y-89702819D01*
X104401904Y-90702819D02*
X104830475Y-90131390D01*
X104401904Y-89702819D02*
X104973332Y-90274247D01*
X107878094Y-86750057D02*
X107830475Y-86702438D01*
X107830475Y-86702438D02*
X107735237Y-86654819D01*
X107735237Y-86654819D02*
X107497142Y-86654819D01*
X107497142Y-86654819D02*
X107401904Y-86702438D01*
X107401904Y-86702438D02*
X107354285Y-86750057D01*
X107354285Y-86750057D02*
X107306666Y-86845295D01*
X107306666Y-86845295D02*
X107306666Y-86940533D01*
X107306666Y-86940533D02*
X107354285Y-87083390D01*
X107354285Y-87083390D02*
X107925713Y-87654819D01*
X107925713Y-87654819D02*
X107306666Y-87654819D01*
X106925713Y-86750057D02*
X106878094Y-86702438D01*
X106878094Y-86702438D02*
X106782856Y-86654819D01*
X106782856Y-86654819D02*
X106544761Y-86654819D01*
X106544761Y-86654819D02*
X106449523Y-86702438D01*
X106449523Y-86702438D02*
X106401904Y-86750057D01*
X106401904Y-86750057D02*
X106354285Y-86845295D01*
X106354285Y-86845295D02*
X106354285Y-86940533D01*
X106354285Y-86940533D02*
X106401904Y-87083390D01*
X106401904Y-87083390D02*
X106973332Y-87654819D01*
X106973332Y-87654819D02*
X106354285Y-87654819D01*
X105735237Y-86654819D02*
X105639999Y-86654819D01*
X105639999Y-86654819D02*
X105544761Y-86702438D01*
X105544761Y-86702438D02*
X105497142Y-86750057D01*
X105497142Y-86750057D02*
X105449523Y-86845295D01*
X105449523Y-86845295D02*
X105401904Y-87035771D01*
X105401904Y-87035771D02*
X105401904Y-87273866D01*
X105401904Y-87273866D02*
X105449523Y-87464342D01*
X105449523Y-87464342D02*
X105497142Y-87559580D01*
X105497142Y-87559580D02*
X105544761Y-87607200D01*
X105544761Y-87607200D02*
X105639999Y-87654819D01*
X105639999Y-87654819D02*
X105735237Y-87654819D01*
X105735237Y-87654819D02*
X105830475Y-87607200D01*
X105830475Y-87607200D02*
X105878094Y-87559580D01*
X105878094Y-87559580D02*
X105925713Y-87464342D01*
X105925713Y-87464342D02*
X105973332Y-87273866D01*
X105973332Y-87273866D02*
X105973332Y-87035771D01*
X105973332Y-87035771D02*
X105925713Y-86845295D01*
X105925713Y-86845295D02*
X105878094Y-86750057D01*
X105878094Y-86750057D02*
X105830475Y-86702438D01*
X105830475Y-86702438D02*
X105735237Y-86654819D01*
X104973332Y-87654819D02*
X104973332Y-86654819D01*
X104401904Y-87654819D02*
X104830475Y-87083390D01*
X104401904Y-86654819D02*
X104973332Y-87226247D01*
X107678094Y-70990057D02*
X107630475Y-70942438D01*
X107630475Y-70942438D02*
X107535237Y-70894819D01*
X107535237Y-70894819D02*
X107297142Y-70894819D01*
X107297142Y-70894819D02*
X107201904Y-70942438D01*
X107201904Y-70942438D02*
X107154285Y-70990057D01*
X107154285Y-70990057D02*
X107106666Y-71085295D01*
X107106666Y-71085295D02*
X107106666Y-71180533D01*
X107106666Y-71180533D02*
X107154285Y-71323390D01*
X107154285Y-71323390D02*
X107725713Y-71894819D01*
X107725713Y-71894819D02*
X107106666Y-71894819D01*
X106725713Y-70990057D02*
X106678094Y-70942438D01*
X106678094Y-70942438D02*
X106582856Y-70894819D01*
X106582856Y-70894819D02*
X106344761Y-70894819D01*
X106344761Y-70894819D02*
X106249523Y-70942438D01*
X106249523Y-70942438D02*
X106201904Y-70990057D01*
X106201904Y-70990057D02*
X106154285Y-71085295D01*
X106154285Y-71085295D02*
X106154285Y-71180533D01*
X106154285Y-71180533D02*
X106201904Y-71323390D01*
X106201904Y-71323390D02*
X106773332Y-71894819D01*
X106773332Y-71894819D02*
X106154285Y-71894819D01*
X105535237Y-70894819D02*
X105439999Y-70894819D01*
X105439999Y-70894819D02*
X105344761Y-70942438D01*
X105344761Y-70942438D02*
X105297142Y-70990057D01*
X105297142Y-70990057D02*
X105249523Y-71085295D01*
X105249523Y-71085295D02*
X105201904Y-71275771D01*
X105201904Y-71275771D02*
X105201904Y-71513866D01*
X105201904Y-71513866D02*
X105249523Y-71704342D01*
X105249523Y-71704342D02*
X105297142Y-71799580D01*
X105297142Y-71799580D02*
X105344761Y-71847200D01*
X105344761Y-71847200D02*
X105439999Y-71894819D01*
X105439999Y-71894819D02*
X105535237Y-71894819D01*
X105535237Y-71894819D02*
X105630475Y-71847200D01*
X105630475Y-71847200D02*
X105678094Y-71799580D01*
X105678094Y-71799580D02*
X105725713Y-71704342D01*
X105725713Y-71704342D02*
X105773332Y-71513866D01*
X105773332Y-71513866D02*
X105773332Y-71275771D01*
X105773332Y-71275771D02*
X105725713Y-71085295D01*
X105725713Y-71085295D02*
X105678094Y-70990057D01*
X105678094Y-70990057D02*
X105630475Y-70942438D01*
X105630475Y-70942438D02*
X105535237Y-70894819D01*
X104773332Y-71894819D02*
X104773332Y-70894819D01*
X104201904Y-71894819D02*
X104630475Y-71323390D01*
X104201904Y-70894819D02*
X104773332Y-71466247D01*
X108078094Y-53350057D02*
X108030475Y-53302438D01*
X108030475Y-53302438D02*
X107935237Y-53254819D01*
X107935237Y-53254819D02*
X107697142Y-53254819D01*
X107697142Y-53254819D02*
X107601904Y-53302438D01*
X107601904Y-53302438D02*
X107554285Y-53350057D01*
X107554285Y-53350057D02*
X107506666Y-53445295D01*
X107506666Y-53445295D02*
X107506666Y-53540533D01*
X107506666Y-53540533D02*
X107554285Y-53683390D01*
X107554285Y-53683390D02*
X108125713Y-54254819D01*
X108125713Y-54254819D02*
X107506666Y-54254819D01*
X107125713Y-53350057D02*
X107078094Y-53302438D01*
X107078094Y-53302438D02*
X106982856Y-53254819D01*
X106982856Y-53254819D02*
X106744761Y-53254819D01*
X106744761Y-53254819D02*
X106649523Y-53302438D01*
X106649523Y-53302438D02*
X106601904Y-53350057D01*
X106601904Y-53350057D02*
X106554285Y-53445295D01*
X106554285Y-53445295D02*
X106554285Y-53540533D01*
X106554285Y-53540533D02*
X106601904Y-53683390D01*
X106601904Y-53683390D02*
X107173332Y-54254819D01*
X107173332Y-54254819D02*
X106554285Y-54254819D01*
X105935237Y-53254819D02*
X105839999Y-53254819D01*
X105839999Y-53254819D02*
X105744761Y-53302438D01*
X105744761Y-53302438D02*
X105697142Y-53350057D01*
X105697142Y-53350057D02*
X105649523Y-53445295D01*
X105649523Y-53445295D02*
X105601904Y-53635771D01*
X105601904Y-53635771D02*
X105601904Y-53873866D01*
X105601904Y-53873866D02*
X105649523Y-54064342D01*
X105649523Y-54064342D02*
X105697142Y-54159580D01*
X105697142Y-54159580D02*
X105744761Y-54207200D01*
X105744761Y-54207200D02*
X105839999Y-54254819D01*
X105839999Y-54254819D02*
X105935237Y-54254819D01*
X105935237Y-54254819D02*
X106030475Y-54207200D01*
X106030475Y-54207200D02*
X106078094Y-54159580D01*
X106078094Y-54159580D02*
X106125713Y-54064342D01*
X106125713Y-54064342D02*
X106173332Y-53873866D01*
X106173332Y-53873866D02*
X106173332Y-53635771D01*
X106173332Y-53635771D02*
X106125713Y-53445295D01*
X106125713Y-53445295D02*
X106078094Y-53350057D01*
X106078094Y-53350057D02*
X106030475Y-53302438D01*
X106030475Y-53302438D02*
X105935237Y-53254819D01*
X105173332Y-54254819D02*
X105173332Y-53254819D01*
X104601904Y-54254819D02*
X105030475Y-53683390D01*
X104601904Y-53254819D02*
X105173332Y-53826247D01*
X121003333Y-44324819D02*
X121003333Y-45039104D01*
X121003333Y-45039104D02*
X121050952Y-45181961D01*
X121050952Y-45181961D02*
X121146190Y-45277200D01*
X121146190Y-45277200D02*
X121289047Y-45324819D01*
X121289047Y-45324819D02*
X121384285Y-45324819D01*
X120003333Y-45324819D02*
X120574761Y-45324819D01*
X120289047Y-45324819D02*
X120289047Y-44324819D01*
X120289047Y-44324819D02*
X120384285Y-44467676D01*
X120384285Y-44467676D02*
X120479523Y-44562914D01*
X120479523Y-44562914D02*
X120574761Y-44610533D01*
X126122380Y-59621009D02*
X125789047Y-59621009D01*
X125646190Y-60144819D02*
X126122380Y-60144819D01*
X126122380Y-60144819D02*
X126122380Y-59144819D01*
X126122380Y-59144819D02*
X125646190Y-59144819D01*
X125217618Y-59144819D02*
X125217618Y-59954342D01*
X125217618Y-59954342D02*
X125169999Y-60049580D01*
X125169999Y-60049580D02*
X125122380Y-60097200D01*
X125122380Y-60097200D02*
X125027142Y-60144819D01*
X125027142Y-60144819D02*
X124836666Y-60144819D01*
X124836666Y-60144819D02*
X124741428Y-60097200D01*
X124741428Y-60097200D02*
X124693809Y-60049580D01*
X124693809Y-60049580D02*
X124646190Y-59954342D01*
X124646190Y-59954342D02*
X124646190Y-59144819D01*
X123598571Y-60144819D02*
X123931904Y-59668628D01*
X124169999Y-60144819D02*
X124169999Y-59144819D01*
X124169999Y-59144819D02*
X123789047Y-59144819D01*
X123789047Y-59144819D02*
X123693809Y-59192438D01*
X123693809Y-59192438D02*
X123646190Y-59240057D01*
X123646190Y-59240057D02*
X123598571Y-59335295D01*
X123598571Y-59335295D02*
X123598571Y-59478152D01*
X123598571Y-59478152D02*
X123646190Y-59573390D01*
X123646190Y-59573390D02*
X123693809Y-59621009D01*
X123693809Y-59621009D02*
X123789047Y-59668628D01*
X123789047Y-59668628D02*
X124169999Y-59668628D01*
X122979523Y-59144819D02*
X122789047Y-59144819D01*
X122789047Y-59144819D02*
X122693809Y-59192438D01*
X122693809Y-59192438D02*
X122598571Y-59287676D01*
X122598571Y-59287676D02*
X122550952Y-59478152D01*
X122550952Y-59478152D02*
X122550952Y-59811485D01*
X122550952Y-59811485D02*
X122598571Y-60001961D01*
X122598571Y-60001961D02*
X122693809Y-60097200D01*
X122693809Y-60097200D02*
X122789047Y-60144819D01*
X122789047Y-60144819D02*
X122979523Y-60144819D01*
X122979523Y-60144819D02*
X123074761Y-60097200D01*
X123074761Y-60097200D02*
X123169999Y-60001961D01*
X123169999Y-60001961D02*
X123217618Y-59811485D01*
X123217618Y-59811485D02*
X123217618Y-59478152D01*
X123217618Y-59478152D02*
X123169999Y-59287676D01*
X123169999Y-59287676D02*
X123074761Y-59192438D01*
X123074761Y-59192438D02*
X122979523Y-59144819D01*
X122360476Y-60240057D02*
X121598571Y-60240057D01*
X121360475Y-60144819D02*
X121360475Y-59144819D01*
X121360475Y-59144819D02*
X120979523Y-59144819D01*
X120979523Y-59144819D02*
X120884285Y-59192438D01*
X120884285Y-59192438D02*
X120836666Y-59240057D01*
X120836666Y-59240057D02*
X120789047Y-59335295D01*
X120789047Y-59335295D02*
X120789047Y-59478152D01*
X120789047Y-59478152D02*
X120836666Y-59573390D01*
X120836666Y-59573390D02*
X120884285Y-59621009D01*
X120884285Y-59621009D02*
X120979523Y-59668628D01*
X120979523Y-59668628D02*
X121360475Y-59668628D01*
X120455713Y-59144819D02*
X120217618Y-60144819D01*
X120217618Y-60144819D02*
X120027142Y-59430533D01*
X120027142Y-59430533D02*
X119836666Y-60144819D01*
X119836666Y-60144819D02*
X119598571Y-59144819D01*
X118646190Y-60144819D02*
X118979523Y-59668628D01*
X119217618Y-60144819D02*
X119217618Y-59144819D01*
X119217618Y-59144819D02*
X118836666Y-59144819D01*
X118836666Y-59144819D02*
X118741428Y-59192438D01*
X118741428Y-59192438D02*
X118693809Y-59240057D01*
X118693809Y-59240057D02*
X118646190Y-59335295D01*
X118646190Y-59335295D02*
X118646190Y-59478152D01*
X118646190Y-59478152D02*
X118693809Y-59573390D01*
X118693809Y-59573390D02*
X118741428Y-59621009D01*
X118741428Y-59621009D02*
X118836666Y-59668628D01*
X118836666Y-59668628D02*
X119217618Y-59668628D01*
X118455714Y-60240057D02*
X117693809Y-60240057D01*
X117503332Y-59240057D02*
X117455713Y-59192438D01*
X117455713Y-59192438D02*
X117360475Y-59144819D01*
X117360475Y-59144819D02*
X117122380Y-59144819D01*
X117122380Y-59144819D02*
X117027142Y-59192438D01*
X117027142Y-59192438D02*
X116979523Y-59240057D01*
X116979523Y-59240057D02*
X116931904Y-59335295D01*
X116931904Y-59335295D02*
X116931904Y-59430533D01*
X116931904Y-59430533D02*
X116979523Y-59573390D01*
X116979523Y-59573390D02*
X117550951Y-60144819D01*
X117550951Y-60144819D02*
X116931904Y-60144819D01*
X116598570Y-60144819D02*
X116074761Y-59478152D01*
X116598570Y-59478152D02*
X116074761Y-60144819D01*
X115217618Y-59144819D02*
X115693808Y-59144819D01*
X115693808Y-59144819D02*
X115741427Y-59621009D01*
X115741427Y-59621009D02*
X115693808Y-59573390D01*
X115693808Y-59573390D02*
X115598570Y-59525771D01*
X115598570Y-59525771D02*
X115360475Y-59525771D01*
X115360475Y-59525771D02*
X115265237Y-59573390D01*
X115265237Y-59573390D02*
X115217618Y-59621009D01*
X115217618Y-59621009D02*
X115169999Y-59716247D01*
X115169999Y-59716247D02*
X115169999Y-59954342D01*
X115169999Y-59954342D02*
X115217618Y-60049580D01*
X115217618Y-60049580D02*
X115265237Y-60097200D01*
X115265237Y-60097200D02*
X115360475Y-60144819D01*
X115360475Y-60144819D02*
X115598570Y-60144819D01*
X115598570Y-60144819D02*
X115693808Y-60097200D01*
X115693808Y-60097200D02*
X115741427Y-60049580D01*
X111712857Y-114854819D02*
X112189047Y-114854819D01*
X112189047Y-114854819D02*
X112189047Y-113854819D01*
X111379523Y-114331009D02*
X111046190Y-114331009D01*
X110903333Y-114854819D02*
X111379523Y-114854819D01*
X111379523Y-114854819D02*
X111379523Y-113854819D01*
X111379523Y-113854819D02*
X110903333Y-113854819D01*
X110474761Y-114854819D02*
X110474761Y-113854819D01*
X110474761Y-113854819D02*
X110236666Y-113854819D01*
X110236666Y-113854819D02*
X110093809Y-113902438D01*
X110093809Y-113902438D02*
X109998571Y-113997676D01*
X109998571Y-113997676D02*
X109950952Y-114092914D01*
X109950952Y-114092914D02*
X109903333Y-114283390D01*
X109903333Y-114283390D02*
X109903333Y-114426247D01*
X109903333Y-114426247D02*
X109950952Y-114616723D01*
X109950952Y-114616723D02*
X109998571Y-114711961D01*
X109998571Y-114711961D02*
X110093809Y-114807200D01*
X110093809Y-114807200D02*
X110236666Y-114854819D01*
X110236666Y-114854819D02*
X110474761Y-114854819D01*
X101642857Y-122254819D02*
X102119047Y-122254819D01*
X102119047Y-122254819D02*
X102119047Y-121254819D01*
X101309523Y-121731009D02*
X100976190Y-121731009D01*
X100833333Y-122254819D02*
X101309523Y-122254819D01*
X101309523Y-122254819D02*
X101309523Y-121254819D01*
X101309523Y-121254819D02*
X100833333Y-121254819D01*
X100404761Y-122254819D02*
X100404761Y-121254819D01*
X100404761Y-121254819D02*
X100166666Y-121254819D01*
X100166666Y-121254819D02*
X100023809Y-121302438D01*
X100023809Y-121302438D02*
X99928571Y-121397676D01*
X99928571Y-121397676D02*
X99880952Y-121492914D01*
X99880952Y-121492914D02*
X99833333Y-121683390D01*
X99833333Y-121683390D02*
X99833333Y-121826247D01*
X99833333Y-121826247D02*
X99880952Y-122016723D01*
X99880952Y-122016723D02*
X99928571Y-122111961D01*
X99928571Y-122111961D02*
X100023809Y-122207200D01*
X100023809Y-122207200D02*
X100166666Y-122254819D01*
X100166666Y-122254819D02*
X100404761Y-122254819D01*
X100982857Y-115054819D02*
X101459047Y-115054819D01*
X101459047Y-115054819D02*
X101459047Y-114054819D01*
X100649523Y-114531009D02*
X100316190Y-114531009D01*
X100173333Y-115054819D02*
X100649523Y-115054819D01*
X100649523Y-115054819D02*
X100649523Y-114054819D01*
X100649523Y-114054819D02*
X100173333Y-114054819D01*
X99744761Y-115054819D02*
X99744761Y-114054819D01*
X99744761Y-114054819D02*
X99506666Y-114054819D01*
X99506666Y-114054819D02*
X99363809Y-114102438D01*
X99363809Y-114102438D02*
X99268571Y-114197676D01*
X99268571Y-114197676D02*
X99220952Y-114292914D01*
X99220952Y-114292914D02*
X99173333Y-114483390D01*
X99173333Y-114483390D02*
X99173333Y-114626247D01*
X99173333Y-114626247D02*
X99220952Y-114816723D01*
X99220952Y-114816723D02*
X99268571Y-114911961D01*
X99268571Y-114911961D02*
X99363809Y-115007200D01*
X99363809Y-115007200D02*
X99506666Y-115054819D01*
X99506666Y-115054819D02*
X99744761Y-115054819D01*
X115582857Y-103654819D02*
X116059047Y-103654819D01*
X116059047Y-103654819D02*
X116059047Y-102654819D01*
X115249523Y-103131009D02*
X114916190Y-103131009D01*
X114773333Y-103654819D02*
X115249523Y-103654819D01*
X115249523Y-103654819D02*
X115249523Y-102654819D01*
X115249523Y-102654819D02*
X114773333Y-102654819D01*
X114344761Y-103654819D02*
X114344761Y-102654819D01*
X114344761Y-102654819D02*
X114106666Y-102654819D01*
X114106666Y-102654819D02*
X113963809Y-102702438D01*
X113963809Y-102702438D02*
X113868571Y-102797676D01*
X113868571Y-102797676D02*
X113820952Y-102892914D01*
X113820952Y-102892914D02*
X113773333Y-103083390D01*
X113773333Y-103083390D02*
X113773333Y-103226247D01*
X113773333Y-103226247D02*
X113820952Y-103416723D01*
X113820952Y-103416723D02*
X113868571Y-103511961D01*
X113868571Y-103511961D02*
X113963809Y-103607200D01*
X113963809Y-103607200D02*
X114106666Y-103654819D01*
X114106666Y-103654819D02*
X114344761Y-103654819D01*
X108582857Y-96054819D02*
X109059047Y-96054819D01*
X109059047Y-96054819D02*
X109059047Y-95054819D01*
X108249523Y-95531009D02*
X107916190Y-95531009D01*
X107773333Y-96054819D02*
X108249523Y-96054819D01*
X108249523Y-96054819D02*
X108249523Y-95054819D01*
X108249523Y-95054819D02*
X107773333Y-95054819D01*
X107344761Y-96054819D02*
X107344761Y-95054819D01*
X107344761Y-95054819D02*
X107106666Y-95054819D01*
X107106666Y-95054819D02*
X106963809Y-95102438D01*
X106963809Y-95102438D02*
X106868571Y-95197676D01*
X106868571Y-95197676D02*
X106820952Y-95292914D01*
X106820952Y-95292914D02*
X106773333Y-95483390D01*
X106773333Y-95483390D02*
X106773333Y-95626247D01*
X106773333Y-95626247D02*
X106820952Y-95816723D01*
X106820952Y-95816723D02*
X106868571Y-95911961D01*
X106868571Y-95911961D02*
X106963809Y-96007200D01*
X106963809Y-96007200D02*
X107106666Y-96054819D01*
X107106666Y-96054819D02*
X107344761Y-96054819D01*
X101382857Y-99254819D02*
X101859047Y-99254819D01*
X101859047Y-99254819D02*
X101859047Y-98254819D01*
X101049523Y-98731009D02*
X100716190Y-98731009D01*
X100573333Y-99254819D02*
X101049523Y-99254819D01*
X101049523Y-99254819D02*
X101049523Y-98254819D01*
X101049523Y-98254819D02*
X100573333Y-98254819D01*
X100144761Y-99254819D02*
X100144761Y-98254819D01*
X100144761Y-98254819D02*
X99906666Y-98254819D01*
X99906666Y-98254819D02*
X99763809Y-98302438D01*
X99763809Y-98302438D02*
X99668571Y-98397676D01*
X99668571Y-98397676D02*
X99620952Y-98492914D01*
X99620952Y-98492914D02*
X99573333Y-98683390D01*
X99573333Y-98683390D02*
X99573333Y-98826247D01*
X99573333Y-98826247D02*
X99620952Y-99016723D01*
X99620952Y-99016723D02*
X99668571Y-99111961D01*
X99668571Y-99111961D02*
X99763809Y-99207200D01*
X99763809Y-99207200D02*
X99906666Y-99254819D01*
X99906666Y-99254819D02*
X100144761Y-99254819D01*
X113772857Y-83254819D02*
X114249047Y-83254819D01*
X114249047Y-83254819D02*
X114249047Y-82254819D01*
X113439523Y-82731009D02*
X113106190Y-82731009D01*
X112963333Y-83254819D02*
X113439523Y-83254819D01*
X113439523Y-83254819D02*
X113439523Y-82254819D01*
X113439523Y-82254819D02*
X112963333Y-82254819D01*
X112534761Y-83254819D02*
X112534761Y-82254819D01*
X112534761Y-82254819D02*
X112296666Y-82254819D01*
X112296666Y-82254819D02*
X112153809Y-82302438D01*
X112153809Y-82302438D02*
X112058571Y-82397676D01*
X112058571Y-82397676D02*
X112010952Y-82492914D01*
X112010952Y-82492914D02*
X111963333Y-82683390D01*
X111963333Y-82683390D02*
X111963333Y-82826247D01*
X111963333Y-82826247D02*
X112010952Y-83016723D01*
X112010952Y-83016723D02*
X112058571Y-83111961D01*
X112058571Y-83111961D02*
X112153809Y-83207200D01*
X112153809Y-83207200D02*
X112296666Y-83254819D01*
X112296666Y-83254819D02*
X112534761Y-83254819D01*
X105842857Y-85454819D02*
X106319047Y-85454819D01*
X106319047Y-85454819D02*
X106319047Y-84454819D01*
X105509523Y-84931009D02*
X105176190Y-84931009D01*
X105033333Y-85454819D02*
X105509523Y-85454819D01*
X105509523Y-85454819D02*
X105509523Y-84454819D01*
X105509523Y-84454819D02*
X105033333Y-84454819D01*
X104604761Y-85454819D02*
X104604761Y-84454819D01*
X104604761Y-84454819D02*
X104366666Y-84454819D01*
X104366666Y-84454819D02*
X104223809Y-84502438D01*
X104223809Y-84502438D02*
X104128571Y-84597676D01*
X104128571Y-84597676D02*
X104080952Y-84692914D01*
X104080952Y-84692914D02*
X104033333Y-84883390D01*
X104033333Y-84883390D02*
X104033333Y-85026247D01*
X104033333Y-85026247D02*
X104080952Y-85216723D01*
X104080952Y-85216723D02*
X104128571Y-85311961D01*
X104128571Y-85311961D02*
X104223809Y-85407200D01*
X104223809Y-85407200D02*
X104366666Y-85454819D01*
X104366666Y-85454819D02*
X104604761Y-85454819D01*
X111382857Y-61654819D02*
X111859047Y-61654819D01*
X111859047Y-61654819D02*
X111859047Y-60654819D01*
X111049523Y-61131009D02*
X110716190Y-61131009D01*
X110573333Y-61654819D02*
X111049523Y-61654819D01*
X111049523Y-61654819D02*
X111049523Y-60654819D01*
X111049523Y-60654819D02*
X110573333Y-60654819D01*
X110144761Y-61654819D02*
X110144761Y-60654819D01*
X110144761Y-60654819D02*
X109906666Y-60654819D01*
X109906666Y-60654819D02*
X109763809Y-60702438D01*
X109763809Y-60702438D02*
X109668571Y-60797676D01*
X109668571Y-60797676D02*
X109620952Y-60892914D01*
X109620952Y-60892914D02*
X109573333Y-61083390D01*
X109573333Y-61083390D02*
X109573333Y-61226247D01*
X109573333Y-61226247D02*
X109620952Y-61416723D01*
X109620952Y-61416723D02*
X109668571Y-61511961D01*
X109668571Y-61511961D02*
X109763809Y-61607200D01*
X109763809Y-61607200D02*
X109906666Y-61654819D01*
X109906666Y-61654819D02*
X110144761Y-61654819D01*
X103382857Y-68254819D02*
X103859047Y-68254819D01*
X103859047Y-68254819D02*
X103859047Y-67254819D01*
X103049523Y-67731009D02*
X102716190Y-67731009D01*
X102573333Y-68254819D02*
X103049523Y-68254819D01*
X103049523Y-68254819D02*
X103049523Y-67254819D01*
X103049523Y-67254819D02*
X102573333Y-67254819D01*
X102144761Y-68254819D02*
X102144761Y-67254819D01*
X102144761Y-67254819D02*
X101906666Y-67254819D01*
X101906666Y-67254819D02*
X101763809Y-67302438D01*
X101763809Y-67302438D02*
X101668571Y-67397676D01*
X101668571Y-67397676D02*
X101620952Y-67492914D01*
X101620952Y-67492914D02*
X101573333Y-67683390D01*
X101573333Y-67683390D02*
X101573333Y-67826247D01*
X101573333Y-67826247D02*
X101620952Y-68016723D01*
X101620952Y-68016723D02*
X101668571Y-68111961D01*
X101668571Y-68111961D02*
X101763809Y-68207200D01*
X101763809Y-68207200D02*
X101906666Y-68254819D01*
X101906666Y-68254819D02*
X102144761Y-68254819D01*
X106842857Y-45454819D02*
X107319047Y-45454819D01*
X107319047Y-45454819D02*
X107319047Y-44454819D01*
X106509523Y-44931009D02*
X106176190Y-44931009D01*
X106033333Y-45454819D02*
X106509523Y-45454819D01*
X106509523Y-45454819D02*
X106509523Y-44454819D01*
X106509523Y-44454819D02*
X106033333Y-44454819D01*
X105604761Y-45454819D02*
X105604761Y-44454819D01*
X105604761Y-44454819D02*
X105366666Y-44454819D01*
X105366666Y-44454819D02*
X105223809Y-44502438D01*
X105223809Y-44502438D02*
X105128571Y-44597676D01*
X105128571Y-44597676D02*
X105080952Y-44692914D01*
X105080952Y-44692914D02*
X105033333Y-44883390D01*
X105033333Y-44883390D02*
X105033333Y-45026247D01*
X105033333Y-45026247D02*
X105080952Y-45216723D01*
X105080952Y-45216723D02*
X105128571Y-45311961D01*
X105128571Y-45311961D02*
X105223809Y-45407200D01*
X105223809Y-45407200D02*
X105366666Y-45454819D01*
X105366666Y-45454819D02*
X105604761Y-45454819D01*
X119582857Y-86054819D02*
X120059047Y-86054819D01*
X120059047Y-86054819D02*
X120059047Y-85054819D01*
X119249523Y-85531009D02*
X118916190Y-85531009D01*
X118773333Y-86054819D02*
X119249523Y-86054819D01*
X119249523Y-86054819D02*
X119249523Y-85054819D01*
X119249523Y-85054819D02*
X118773333Y-85054819D01*
X118344761Y-86054819D02*
X118344761Y-85054819D01*
X118344761Y-85054819D02*
X118106666Y-85054819D01*
X118106666Y-85054819D02*
X117963809Y-85102438D01*
X117963809Y-85102438D02*
X117868571Y-85197676D01*
X117868571Y-85197676D02*
X117820952Y-85292914D01*
X117820952Y-85292914D02*
X117773333Y-85483390D01*
X117773333Y-85483390D02*
X117773333Y-85626247D01*
X117773333Y-85626247D02*
X117820952Y-85816723D01*
X117820952Y-85816723D02*
X117868571Y-85911961D01*
X117868571Y-85911961D02*
X117963809Y-86007200D01*
X117963809Y-86007200D02*
X118106666Y-86054819D01*
X118106666Y-86054819D02*
X118344761Y-86054819D01*
X93782857Y-104454819D02*
X94259047Y-104454819D01*
X94259047Y-104454819D02*
X94259047Y-103454819D01*
X93449523Y-103931009D02*
X93116190Y-103931009D01*
X92973333Y-104454819D02*
X93449523Y-104454819D01*
X93449523Y-104454819D02*
X93449523Y-103454819D01*
X93449523Y-103454819D02*
X92973333Y-103454819D01*
X92544761Y-104454819D02*
X92544761Y-103454819D01*
X92544761Y-103454819D02*
X92306666Y-103454819D01*
X92306666Y-103454819D02*
X92163809Y-103502438D01*
X92163809Y-103502438D02*
X92068571Y-103597676D01*
X92068571Y-103597676D02*
X92020952Y-103692914D01*
X92020952Y-103692914D02*
X91973333Y-103883390D01*
X91973333Y-103883390D02*
X91973333Y-104026247D01*
X91973333Y-104026247D02*
X92020952Y-104216723D01*
X92020952Y-104216723D02*
X92068571Y-104311961D01*
X92068571Y-104311961D02*
X92163809Y-104407200D01*
X92163809Y-104407200D02*
X92306666Y-104454819D01*
X92306666Y-104454819D02*
X92544761Y-104454819D01*
X124442857Y-126054819D02*
X124919047Y-126054819D01*
X124919047Y-126054819D02*
X124919047Y-125054819D01*
X124109523Y-125531009D02*
X123776190Y-125531009D01*
X123633333Y-126054819D02*
X124109523Y-126054819D01*
X124109523Y-126054819D02*
X124109523Y-125054819D01*
X124109523Y-125054819D02*
X123633333Y-125054819D01*
X123204761Y-126054819D02*
X123204761Y-125054819D01*
X123204761Y-125054819D02*
X122966666Y-125054819D01*
X122966666Y-125054819D02*
X122823809Y-125102438D01*
X122823809Y-125102438D02*
X122728571Y-125197676D01*
X122728571Y-125197676D02*
X122680952Y-125292914D01*
X122680952Y-125292914D02*
X122633333Y-125483390D01*
X122633333Y-125483390D02*
X122633333Y-125626247D01*
X122633333Y-125626247D02*
X122680952Y-125816723D01*
X122680952Y-125816723D02*
X122728571Y-125911961D01*
X122728571Y-125911961D02*
X122823809Y-126007200D01*
X122823809Y-126007200D02*
X122966666Y-126054819D01*
X122966666Y-126054819D02*
X123204761Y-126054819D01*
X90157142Y-126854819D02*
X89680952Y-126854819D01*
X89680952Y-126854819D02*
X89680952Y-125854819D01*
X90490476Y-126331009D02*
X90823809Y-126331009D01*
X90966666Y-126854819D02*
X90490476Y-126854819D01*
X90490476Y-126854819D02*
X90490476Y-125854819D01*
X90490476Y-125854819D02*
X90966666Y-125854819D01*
X91395238Y-126854819D02*
X91395238Y-125854819D01*
X91395238Y-125854819D02*
X91633333Y-125854819D01*
X91633333Y-125854819D02*
X91776190Y-125902438D01*
X91776190Y-125902438D02*
X91871428Y-125997676D01*
X91871428Y-125997676D02*
X91919047Y-126092914D01*
X91919047Y-126092914D02*
X91966666Y-126283390D01*
X91966666Y-126283390D02*
X91966666Y-126426247D01*
X91966666Y-126426247D02*
X91919047Y-126616723D01*
X91919047Y-126616723D02*
X91871428Y-126711961D01*
X91871428Y-126711961D02*
X91776190Y-126807200D01*
X91776190Y-126807200D02*
X91633333Y-126854819D01*
X91633333Y-126854819D02*
X91395238Y-126854819D01*
X95777857Y-86254819D02*
X96254047Y-86254819D01*
X96254047Y-86254819D02*
X96254047Y-85254819D01*
X95444523Y-85731009D02*
X95111190Y-85731009D01*
X94968333Y-86254819D02*
X95444523Y-86254819D01*
X95444523Y-86254819D02*
X95444523Y-85254819D01*
X95444523Y-85254819D02*
X94968333Y-85254819D01*
X94539761Y-86254819D02*
X94539761Y-85254819D01*
X94539761Y-85254819D02*
X94301666Y-85254819D01*
X94301666Y-85254819D02*
X94158809Y-85302438D01*
X94158809Y-85302438D02*
X94063571Y-85397676D01*
X94063571Y-85397676D02*
X94015952Y-85492914D01*
X94015952Y-85492914D02*
X93968333Y-85683390D01*
X93968333Y-85683390D02*
X93968333Y-85826247D01*
X93968333Y-85826247D02*
X94015952Y-86016723D01*
X94015952Y-86016723D02*
X94063571Y-86111961D01*
X94063571Y-86111961D02*
X94158809Y-86207200D01*
X94158809Y-86207200D02*
X94301666Y-86254819D01*
X94301666Y-86254819D02*
X94539761Y-86254819D01*
X122182857Y-104454819D02*
X122659047Y-104454819D01*
X122659047Y-104454819D02*
X122659047Y-103454819D01*
X121849523Y-103931009D02*
X121516190Y-103931009D01*
X121373333Y-104454819D02*
X121849523Y-104454819D01*
X121849523Y-104454819D02*
X121849523Y-103454819D01*
X121849523Y-103454819D02*
X121373333Y-103454819D01*
X120944761Y-104454819D02*
X120944761Y-103454819D01*
X120944761Y-103454819D02*
X120706666Y-103454819D01*
X120706666Y-103454819D02*
X120563809Y-103502438D01*
X120563809Y-103502438D02*
X120468571Y-103597676D01*
X120468571Y-103597676D02*
X120420952Y-103692914D01*
X120420952Y-103692914D02*
X120373333Y-103883390D01*
X120373333Y-103883390D02*
X120373333Y-104026247D01*
X120373333Y-104026247D02*
X120420952Y-104216723D01*
X120420952Y-104216723D02*
X120468571Y-104311961D01*
X120468571Y-104311961D02*
X120563809Y-104407200D01*
X120563809Y-104407200D02*
X120706666Y-104454819D01*
X120706666Y-104454819D02*
X120944761Y-104454819D01*
X117870857Y-69454819D02*
X118347047Y-69454819D01*
X118347047Y-69454819D02*
X118347047Y-68454819D01*
X117537523Y-68931009D02*
X117204190Y-68931009D01*
X117061333Y-69454819D02*
X117537523Y-69454819D01*
X117537523Y-69454819D02*
X117537523Y-68454819D01*
X117537523Y-68454819D02*
X117061333Y-68454819D01*
X116632761Y-69454819D02*
X116632761Y-68454819D01*
X116632761Y-68454819D02*
X116394666Y-68454819D01*
X116394666Y-68454819D02*
X116251809Y-68502438D01*
X116251809Y-68502438D02*
X116156571Y-68597676D01*
X116156571Y-68597676D02*
X116108952Y-68692914D01*
X116108952Y-68692914D02*
X116061333Y-68883390D01*
X116061333Y-68883390D02*
X116061333Y-69026247D01*
X116061333Y-69026247D02*
X116108952Y-69216723D01*
X116108952Y-69216723D02*
X116156571Y-69311961D01*
X116156571Y-69311961D02*
X116251809Y-69407200D01*
X116251809Y-69407200D02*
X116394666Y-69454819D01*
X116394666Y-69454819D02*
X116632761Y-69454819D01*
X97172857Y-69422619D02*
X97649047Y-69422619D01*
X97649047Y-69422619D02*
X97649047Y-68422619D01*
X96839523Y-68898809D02*
X96506190Y-68898809D01*
X96363333Y-69422619D02*
X96839523Y-69422619D01*
X96839523Y-69422619D02*
X96839523Y-68422619D01*
X96839523Y-68422619D02*
X96363333Y-68422619D01*
X95934761Y-69422619D02*
X95934761Y-68422619D01*
X95934761Y-68422619D02*
X95696666Y-68422619D01*
X95696666Y-68422619D02*
X95553809Y-68470238D01*
X95553809Y-68470238D02*
X95458571Y-68565476D01*
X95458571Y-68565476D02*
X95410952Y-68660714D01*
X95410952Y-68660714D02*
X95363333Y-68851190D01*
X95363333Y-68851190D02*
X95363333Y-68994047D01*
X95363333Y-68994047D02*
X95410952Y-69184523D01*
X95410952Y-69184523D02*
X95458571Y-69279761D01*
X95458571Y-69279761D02*
X95553809Y-69375000D01*
X95553809Y-69375000D02*
X95696666Y-69422619D01*
X95696666Y-69422619D02*
X95934761Y-69422619D01*
X113837857Y-51058819D02*
X114314047Y-51058819D01*
X114314047Y-51058819D02*
X114314047Y-50058819D01*
X113504523Y-50535009D02*
X113171190Y-50535009D01*
X113028333Y-51058819D02*
X113504523Y-51058819D01*
X113504523Y-51058819D02*
X113504523Y-50058819D01*
X113504523Y-50058819D02*
X113028333Y-50058819D01*
X112599761Y-51058819D02*
X112599761Y-50058819D01*
X112599761Y-50058819D02*
X112361666Y-50058819D01*
X112361666Y-50058819D02*
X112218809Y-50106438D01*
X112218809Y-50106438D02*
X112123571Y-50201676D01*
X112123571Y-50201676D02*
X112075952Y-50296914D01*
X112075952Y-50296914D02*
X112028333Y-50487390D01*
X112028333Y-50487390D02*
X112028333Y-50630247D01*
X112028333Y-50630247D02*
X112075952Y-50820723D01*
X112075952Y-50820723D02*
X112123571Y-50915961D01*
X112123571Y-50915961D02*
X112218809Y-51011200D01*
X112218809Y-51011200D02*
X112361666Y-51058819D01*
X112361666Y-51058819D02*
X112599761Y-51058819D01*
X107190957Y-37454819D02*
X107667147Y-37454819D01*
X107667147Y-37454819D02*
X107667147Y-36454819D01*
X106857623Y-36931009D02*
X106524290Y-36931009D01*
X106381433Y-37454819D02*
X106857623Y-37454819D01*
X106857623Y-37454819D02*
X106857623Y-36454819D01*
X106857623Y-36454819D02*
X106381433Y-36454819D01*
X105952861Y-37454819D02*
X105952861Y-36454819D01*
X105952861Y-36454819D02*
X105714766Y-36454819D01*
X105714766Y-36454819D02*
X105571909Y-36502438D01*
X105571909Y-36502438D02*
X105476671Y-36597676D01*
X105476671Y-36597676D02*
X105429052Y-36692914D01*
X105429052Y-36692914D02*
X105381433Y-36883390D01*
X105381433Y-36883390D02*
X105381433Y-37026247D01*
X105381433Y-37026247D02*
X105429052Y-37216723D01*
X105429052Y-37216723D02*
X105476671Y-37311961D01*
X105476671Y-37311961D02*
X105571909Y-37407200D01*
X105571909Y-37407200D02*
X105714766Y-37454819D01*
X105714766Y-37454819D02*
X105952861Y-37454819D01*
X110982857Y-122054819D02*
X111459047Y-122054819D01*
X111459047Y-122054819D02*
X111506666Y-122531009D01*
X111506666Y-122531009D02*
X111459047Y-122483390D01*
X111459047Y-122483390D02*
X111363809Y-122435771D01*
X111363809Y-122435771D02*
X111125714Y-122435771D01*
X111125714Y-122435771D02*
X111030476Y-122483390D01*
X111030476Y-122483390D02*
X110982857Y-122531009D01*
X110982857Y-122531009D02*
X110935238Y-122626247D01*
X110935238Y-122626247D02*
X110935238Y-122864342D01*
X110935238Y-122864342D02*
X110982857Y-122959580D01*
X110982857Y-122959580D02*
X111030476Y-123007200D01*
X111030476Y-123007200D02*
X111125714Y-123054819D01*
X111125714Y-123054819D02*
X111363809Y-123054819D01*
X111363809Y-123054819D02*
X111459047Y-123007200D01*
X111459047Y-123007200D02*
X111506666Y-122959580D01*
X110078095Y-122388152D02*
X110078095Y-123054819D01*
X110506666Y-122388152D02*
X110506666Y-122911961D01*
X110506666Y-122911961D02*
X110459047Y-123007200D01*
X110459047Y-123007200D02*
X110363809Y-123054819D01*
X110363809Y-123054819D02*
X110220952Y-123054819D01*
X110220952Y-123054819D02*
X110125714Y-123007200D01*
X110125714Y-123007200D02*
X110078095Y-122959580D01*
X109268571Y-122531009D02*
X109601904Y-122531009D01*
X109601904Y-123054819D02*
X109601904Y-122054819D01*
X109601904Y-122054819D02*
X109125714Y-122054819D01*
X112211428Y-68054819D02*
X112782856Y-68054819D01*
X112497142Y-68054819D02*
X112497142Y-67054819D01*
X112497142Y-67054819D02*
X112592380Y-67197676D01*
X112592380Y-67197676D02*
X112687618Y-67292914D01*
X112687618Y-67292914D02*
X112782856Y-67340533D01*
X111592380Y-67054819D02*
X111497142Y-67054819D01*
X111497142Y-67054819D02*
X111401904Y-67102438D01*
X111401904Y-67102438D02*
X111354285Y-67150057D01*
X111354285Y-67150057D02*
X111306666Y-67245295D01*
X111306666Y-67245295D02*
X111259047Y-67435771D01*
X111259047Y-67435771D02*
X111259047Y-67673866D01*
X111259047Y-67673866D02*
X111306666Y-67864342D01*
X111306666Y-67864342D02*
X111354285Y-67959580D01*
X111354285Y-67959580D02*
X111401904Y-68007200D01*
X111401904Y-68007200D02*
X111497142Y-68054819D01*
X111497142Y-68054819D02*
X111592380Y-68054819D01*
X111592380Y-68054819D02*
X111687618Y-68007200D01*
X111687618Y-68007200D02*
X111735237Y-67959580D01*
X111735237Y-67959580D02*
X111782856Y-67864342D01*
X111782856Y-67864342D02*
X111830475Y-67673866D01*
X111830475Y-67673866D02*
X111830475Y-67435771D01*
X111830475Y-67435771D02*
X111782856Y-67245295D01*
X111782856Y-67245295D02*
X111735237Y-67150057D01*
X111735237Y-67150057D02*
X111687618Y-67102438D01*
X111687618Y-67102438D02*
X111592380Y-67054819D01*
X110830475Y-67388152D02*
X110830475Y-68054819D01*
X110830475Y-67483390D02*
X110782856Y-67435771D01*
X110782856Y-67435771D02*
X110687618Y-67388152D01*
X110687618Y-67388152D02*
X110544761Y-67388152D01*
X110544761Y-67388152D02*
X110449523Y-67435771D01*
X110449523Y-67435771D02*
X110401904Y-67531009D01*
X110401904Y-67531009D02*
X110401904Y-68054819D01*
X109592380Y-67531009D02*
X109925713Y-67531009D01*
X109925713Y-68054819D02*
X109925713Y-67054819D01*
X109925713Y-67054819D02*
X109449523Y-67054819D01*
X115227757Y-94454819D02*
X115703947Y-94454819D01*
X115703947Y-94454819D02*
X115751566Y-94931009D01*
X115751566Y-94931009D02*
X115703947Y-94883390D01*
X115703947Y-94883390D02*
X115608709Y-94835771D01*
X115608709Y-94835771D02*
X115370614Y-94835771D01*
X115370614Y-94835771D02*
X115275376Y-94883390D01*
X115275376Y-94883390D02*
X115227757Y-94931009D01*
X115227757Y-94931009D02*
X115180138Y-95026247D01*
X115180138Y-95026247D02*
X115180138Y-95264342D01*
X115180138Y-95264342D02*
X115227757Y-95359580D01*
X115227757Y-95359580D02*
X115275376Y-95407200D01*
X115275376Y-95407200D02*
X115370614Y-95454819D01*
X115370614Y-95454819D02*
X115608709Y-95454819D01*
X115608709Y-95454819D02*
X115703947Y-95407200D01*
X115703947Y-95407200D02*
X115751566Y-95359580D01*
X114322995Y-94788152D02*
X114322995Y-95454819D01*
X114751566Y-94788152D02*
X114751566Y-95311961D01*
X114751566Y-95311961D02*
X114703947Y-95407200D01*
X114703947Y-95407200D02*
X114608709Y-95454819D01*
X114608709Y-95454819D02*
X114465852Y-95454819D01*
X114465852Y-95454819D02*
X114370614Y-95407200D01*
X114370614Y-95407200D02*
X114322995Y-95359580D01*
X113513471Y-94931009D02*
X113846804Y-94931009D01*
X113846804Y-95454819D02*
X113846804Y-94454819D01*
X113846804Y-94454819D02*
X113370614Y-94454819D01*
X101772857Y-51058819D02*
X102249047Y-51058819D01*
X102249047Y-51058819D02*
X102249047Y-50058819D01*
X101439523Y-50535009D02*
X101106190Y-50535009D01*
X100963333Y-51058819D02*
X101439523Y-51058819D01*
X101439523Y-51058819D02*
X101439523Y-50058819D01*
X101439523Y-50058819D02*
X100963333Y-50058819D01*
X100534761Y-51058819D02*
X100534761Y-50058819D01*
X100534761Y-50058819D02*
X100296666Y-50058819D01*
X100296666Y-50058819D02*
X100153809Y-50106438D01*
X100153809Y-50106438D02*
X100058571Y-50201676D01*
X100058571Y-50201676D02*
X100010952Y-50296914D01*
X100010952Y-50296914D02*
X99963333Y-50487390D01*
X99963333Y-50487390D02*
X99963333Y-50630247D01*
X99963333Y-50630247D02*
X100010952Y-50820723D01*
X100010952Y-50820723D02*
X100058571Y-50915961D01*
X100058571Y-50915961D02*
X100153809Y-51011200D01*
X100153809Y-51011200D02*
X100296666Y-51058819D01*
X100296666Y-51058819D02*
X100534761Y-51058819D01*
X108256328Y-51054819D02*
X108827756Y-51054819D01*
X108542042Y-51054819D02*
X108542042Y-50054819D01*
X108542042Y-50054819D02*
X108637280Y-50197676D01*
X108637280Y-50197676D02*
X108732518Y-50292914D01*
X108732518Y-50292914D02*
X108827756Y-50340533D01*
X107637280Y-50054819D02*
X107542042Y-50054819D01*
X107542042Y-50054819D02*
X107446804Y-50102438D01*
X107446804Y-50102438D02*
X107399185Y-50150057D01*
X107399185Y-50150057D02*
X107351566Y-50245295D01*
X107351566Y-50245295D02*
X107303947Y-50435771D01*
X107303947Y-50435771D02*
X107303947Y-50673866D01*
X107303947Y-50673866D02*
X107351566Y-50864342D01*
X107351566Y-50864342D02*
X107399185Y-50959580D01*
X107399185Y-50959580D02*
X107446804Y-51007200D01*
X107446804Y-51007200D02*
X107542042Y-51054819D01*
X107542042Y-51054819D02*
X107637280Y-51054819D01*
X107637280Y-51054819D02*
X107732518Y-51007200D01*
X107732518Y-51007200D02*
X107780137Y-50959580D01*
X107780137Y-50959580D02*
X107827756Y-50864342D01*
X107827756Y-50864342D02*
X107875375Y-50673866D01*
X107875375Y-50673866D02*
X107875375Y-50435771D01*
X107875375Y-50435771D02*
X107827756Y-50245295D01*
X107827756Y-50245295D02*
X107780137Y-50150057D01*
X107780137Y-50150057D02*
X107732518Y-50102438D01*
X107732518Y-50102438D02*
X107637280Y-50054819D01*
X106875375Y-50388152D02*
X106875375Y-51054819D01*
X106875375Y-50483390D02*
X106827756Y-50435771D01*
X106827756Y-50435771D02*
X106732518Y-50388152D01*
X106732518Y-50388152D02*
X106589661Y-50388152D01*
X106589661Y-50388152D02*
X106494423Y-50435771D01*
X106494423Y-50435771D02*
X106446804Y-50531009D01*
X106446804Y-50531009D02*
X106446804Y-51054819D01*
X105637280Y-50531009D02*
X105970613Y-50531009D01*
X105970613Y-51054819D02*
X105970613Y-50054819D01*
X105970613Y-50054819D02*
X105494423Y-50054819D01*
D12*
G04 #@! TO.C,R25*
X123210000Y-152570000D02*
X123210000Y-149830000D01*
X116670000Y-152570000D02*
X123210000Y-152570000D01*
X116670000Y-149830000D02*
X116670000Y-152570000D01*
X123210000Y-149830000D02*
X116670000Y-149830000D01*
X123210000Y-151200000D02*
X123980000Y-151200000D01*
X116670000Y-151200000D02*
X115900000Y-151200000D01*
G04 #@! TO.C,R24*
X110730000Y-152570000D02*
X110730000Y-149830000D01*
X104190000Y-152570000D02*
X110730000Y-152570000D01*
X104190000Y-149830000D02*
X104190000Y-152570000D01*
X110730000Y-149830000D02*
X104190000Y-149830000D01*
X110730000Y-151200000D02*
X111500000Y-151200000D01*
X104190000Y-151200000D02*
X103420000Y-151200000D01*
G04 #@! TO.C,R23*
X98330000Y-152570000D02*
X98330000Y-149830000D01*
X91790000Y-152570000D02*
X98330000Y-152570000D01*
X91790000Y-149830000D02*
X91790000Y-152570000D01*
X98330000Y-149830000D02*
X91790000Y-149830000D01*
X98330000Y-151200000D02*
X99100000Y-151200000D01*
X91790000Y-151200000D02*
X91020000Y-151200000D01*
G04 #@! TO.C,J1*
X121940000Y-45870000D02*
X123270000Y-45870000D01*
X123270000Y-45870000D02*
X123270000Y-47200000D01*
X118070000Y-45870000D02*
X120670000Y-45870000D01*
X120670000Y-45870000D02*
X120670000Y-48470000D01*
X120670000Y-48470000D02*
X123270000Y-48470000D01*
X118070000Y-58690000D02*
X118070000Y-45870000D01*
X123270000Y-58690000D02*
X123270000Y-48470000D01*
X118070000Y-58690000D02*
X123270000Y-58690000D01*
G04 #@! TD*
M02*
