G04 #@! TF.GenerationSoftware,KiCad,Pcbnew,8.0.6*
G04 #@! TF.CreationDate,2024-11-25T12:48:21+01:00*
G04 #@! TF.ProjectId,SS-XMAS-1,53532d58-4d41-4532-9d31-2e6b69636164,rev?*
G04 #@! TF.SameCoordinates,Original*
G04 #@! TF.FileFunction,Copper,L1,Top*
G04 #@! TF.FilePolarity,Positive*
%FSLAX46Y46*%
G04 Gerber Fmt 4.6, Leading zero omitted, Abs format (unit mm)*
G04 Created by KiCad (PCBNEW 8.0.6) date 2024-11-25 12:48:21*
%MOMM*%
%LPD*%
G01*
G04 APERTURE LIST*
G04 Aperture macros list*
%AMHorizOval*
0 Thick line with rounded ends*
0 $1 width*
0 $2 $3 position (X,Y) of the first rounded end (center of the circle)*
0 $4 $5 position (X,Y) of the second rounded end (center of the circle)*
0 Add line between two ends*
20,1,$1,$2,$3,$4,$5,0*
0 Add two circle primitives to create the rounded ends*
1,1,$1,$2,$3*
1,1,$1,$4,$5*%
G04 Aperture macros list end*
G04 #@! TA.AperFunction,ComponentPad*
%ADD10R,1.600000X1.600000*%
G04 #@! TD*
G04 #@! TA.AperFunction,ComponentPad*
%ADD11C,1.600000*%
G04 #@! TD*
G04 #@! TA.AperFunction,ComponentPad*
%ADD12R,1.800000X1.800000*%
G04 #@! TD*
G04 #@! TA.AperFunction,ComponentPad*
%ADD13C,1.800000*%
G04 #@! TD*
G04 #@! TA.AperFunction,ComponentPad*
%ADD14O,1.600000X1.600000*%
G04 #@! TD*
G04 #@! TA.AperFunction,ComponentPad*
%ADD15HorizOval,1.600000X0.000000X0.000000X0.000000X0.000000X0*%
G04 #@! TD*
G04 #@! TA.AperFunction,ComponentPad*
%ADD16R,1.700000X1.700000*%
G04 #@! TD*
G04 #@! TA.AperFunction,ComponentPad*
%ADD17O,1.700000X1.700000*%
G04 #@! TD*
G04 #@! TA.AperFunction,ViaPad*
%ADD18C,0.600000*%
G04 #@! TD*
G04 #@! TA.AperFunction,Conductor*
%ADD19C,0.200000*%
G04 #@! TD*
G04 APERTURE END LIST*
D10*
G04 #@! TO.P,C3,1*
G04 #@! TO.N,Net-(U2-CV)*
X109840000Y-66000000D03*
D11*
G04 #@! TO.P,C3,2*
G04 #@! TO.N,/GND*
X112340000Y-66000000D03*
G04 #@! TD*
D10*
G04 #@! TO.P,C4,1*
G04 #@! TO.N,/THR1*
X109040000Y-121000000D03*
D11*
G04 #@! TO.P,C4,2*
G04 #@! TO.N,/GND*
X111540000Y-121000000D03*
G04 #@! TD*
D12*
G04 #@! TO.P,D1,1,K*
G04 #@! TO.N,/GND*
X105278100Y-35372000D03*
D13*
G04 #@! TO.P,D1,2,A*
G04 #@! TO.N,Net-(D1-A)*
X107818100Y-35372000D03*
G04 #@! TD*
D12*
G04 #@! TO.P,D18,1,K*
G04 #@! TO.N,/GND*
X99400000Y-97200000D03*
D13*
G04 #@! TO.P,D18,2,A*
G04 #@! TO.N,Net-(D18-A)*
X101940000Y-97200000D03*
G04 #@! TD*
D12*
G04 #@! TO.P,D21,1,K*
G04 #@! TO.N,/GND*
X99000000Y-113000000D03*
D13*
G04 #@! TO.P,D21,2,A*
G04 #@! TO.N,Net-(D21-A)*
X101540000Y-113000000D03*
G04 #@! TD*
D11*
G04 #@! TO.P,R9,1*
G04 #@! TO.N,/OUT0*
X101060000Y-132000000D03*
D14*
G04 #@! TO.P,R9,2*
G04 #@! TO.N,Net-(D9-A)*
X111220000Y-132000000D03*
G04 #@! TD*
D11*
G04 #@! TO.P,R11,1*
G04 #@! TO.N,/OUT0*
X101100000Y-138400000D03*
D14*
G04 #@! TO.P,R11,2*
G04 #@! TO.N,Net-(D11-A)*
X111260000Y-138400000D03*
G04 #@! TD*
D12*
G04 #@! TO.P,D16,1,K*
G04 #@! TO.N,/GND*
X103860000Y-83400000D03*
D13*
G04 #@! TO.P,D16,2,A*
G04 #@! TO.N,Net-(D16-A)*
X106400000Y-83400000D03*
G04 #@! TD*
D10*
G04 #@! TO.P,U2,1,GND*
G04 #@! TO.N,/GND*
X121340000Y-144620000D03*
D14*
G04 #@! TO.P,U2,2,TR*
G04 #@! TO.N,/THR1*
X121340000Y-142080000D03*
G04 #@! TO.P,U2,3,Q*
G04 #@! TO.N,/OUT1*
X121340000Y-139540000D03*
G04 #@! TO.P,U2,4,R*
G04 #@! TO.N,/+12V*
X121340000Y-137000000D03*
G04 #@! TO.P,U2,5,CV*
G04 #@! TO.N,Net-(U2-CV)*
X113720000Y-137000000D03*
G04 #@! TO.P,U2,6,THR*
G04 #@! TO.N,/THR1*
X113720000Y-139540000D03*
G04 #@! TO.P,U2,7,DIS*
G04 #@! TO.N,Net-(U2-DIS)*
X113720000Y-142080000D03*
G04 #@! TO.P,U2,8,VCC*
G04 #@! TO.N,/+12V*
X113720000Y-144620000D03*
G04 #@! TD*
D12*
G04 #@! TO.P,D23,1,K*
G04 #@! TO.N,/GND*
X109800000Y-112800000D03*
D13*
G04 #@! TO.P,D23,2,A*
G04 #@! TO.N,Net-(D23-A)*
X112340000Y-112800000D03*
G04 #@! TD*
D12*
G04 #@! TO.P,D5,1,K*
G04 #@! TO.N,/GND*
X115925000Y-67376000D03*
D13*
G04 #@! TO.P,D5,2,A*
G04 #@! TO.N,Net-(D5-A)*
X118465000Y-67376000D03*
G04 #@! TD*
D12*
G04 #@! TO.P,D10,1,K*
G04 #@! TO.N,/GND*
X91665000Y-102200000D03*
D13*
G04 #@! TO.P,D10,2,A*
G04 #@! TO.N,Net-(D10-A)*
X94205000Y-102200000D03*
G04 #@! TD*
D11*
G04 #@! TO.P,R3,1*
G04 #@! TO.N,/OUT0*
X101060000Y-87200000D03*
D14*
G04 #@! TO.P,R3,2*
G04 #@! TO.N,Net-(D3-A)*
X111220000Y-87200000D03*
G04 #@! TD*
D11*
G04 #@! TO.P,R18,1*
G04 #@! TO.N,/OUT1*
X105460000Y-97800000D03*
D14*
G04 #@! TO.P,R18,2*
G04 #@! TO.N,Net-(D18-A)*
X115620000Y-97800000D03*
G04 #@! TD*
D11*
G04 #@! TO.P,R1,1*
G04 #@! TO.N,/OUT0*
X101260000Y-53800000D03*
D14*
G04 #@! TO.P,R1,2*
G04 #@! TO.N,Net-(D1-A)*
X111420000Y-53800000D03*
G04 #@! TD*
D11*
G04 #@! TO.P,R10,1*
G04 #@! TO.N,/OUT0*
X101060000Y-135200000D03*
D14*
G04 #@! TO.P,R10,2*
G04 #@! TO.N,Net-(D10-A)*
X111220000Y-135200000D03*
G04 #@! TD*
D12*
G04 #@! TO.P,D13,1,K*
G04 #@! TO.N,/GND*
X104860000Y-43400000D03*
D13*
G04 #@! TO.P,D13,2,A*
G04 #@! TO.N,Net-(D13-A)*
X107400000Y-43400000D03*
G04 #@! TD*
D11*
G04 #@! TO.P,R8,1*
G04 #@! TO.N,/OUT0*
X101060000Y-129000000D03*
D14*
G04 #@! TO.P,R8,2*
G04 #@! TO.N,Net-(D8-A)*
X111220000Y-129000000D03*
G04 #@! TD*
D11*
G04 #@! TO.P,R2,1*
G04 #@! TO.N,/OUT0*
X100860000Y-71440000D03*
D14*
G04 #@! TO.P,R2,2*
G04 #@! TO.N,Net-(D2-A)*
X111020000Y-71440000D03*
G04 #@! TD*
D11*
G04 #@! TO.P,R6,1*
G04 #@! TO.N,/OUT0*
X101140000Y-108324000D03*
D14*
G04 #@! TO.P,R6,2*
G04 #@! TO.N,Net-(D6-A)*
X111300000Y-108324000D03*
G04 #@! TD*
D10*
G04 #@! TO.P,U1,1,GND*
G04 #@! TO.N,/GND*
X98740000Y-144620000D03*
D14*
G04 #@! TO.P,U1,2,TR*
G04 #@! TO.N,/THR0*
X98740000Y-142080000D03*
G04 #@! TO.P,U1,3,Q*
G04 #@! TO.N,/OUT0*
X98740000Y-139540000D03*
G04 #@! TO.P,U1,4,R*
G04 #@! TO.N,/+12V*
X98740000Y-137000000D03*
G04 #@! TO.P,U1,5,CV*
G04 #@! TO.N,Net-(U1-CV)*
X91120000Y-137000000D03*
G04 #@! TO.P,U1,6,THR*
G04 #@! TO.N,/THR0*
X91120000Y-139540000D03*
G04 #@! TO.P,U1,7,DIS*
G04 #@! TO.N,Net-(U1-DIS)*
X91120000Y-142080000D03*
G04 #@! TO.P,U1,8,VCC*
G04 #@! TO.N,/+12V*
X91120000Y-144620000D03*
G04 #@! TD*
D12*
G04 #@! TO.P,D20,1,K*
G04 #@! TO.N,/GND*
X113600000Y-101600000D03*
D13*
G04 #@! TO.P,D20,2,A*
G04 #@! TO.N,Net-(D20-A)*
X116140000Y-101600000D03*
G04 #@! TD*
D12*
G04 #@! TO.P,D7,1,K*
G04 #@! TO.N,/GND*
X93865000Y-84200000D03*
D13*
G04 #@! TO.P,D7,2,A*
G04 #@! TO.N,Net-(D7-A)*
X96405000Y-84200000D03*
G04 #@! TD*
D11*
G04 #@! TO.P,R27,1*
G04 #@! TO.N,/OUT1*
X113740000Y-147800000D03*
D14*
G04 #@! TO.P,R27,2*
G04 #@! TO.N,Net-(D23-A)*
X123900000Y-147800000D03*
G04 #@! TD*
D11*
G04 #@! TO.P,R26,1*
G04 #@! TO.N,Net-(U2-DIS)*
X88660000Y-147800000D03*
D14*
G04 #@! TO.P,R26,2*
G04 #@! TO.N,/THR1*
X98820000Y-147800000D03*
G04 #@! TD*
D11*
G04 #@! TO.P,R7,1*
G04 #@! TO.N,/OUT0*
X100980000Y-125800000D03*
D14*
G04 #@! TO.P,R7,2*
G04 #@! TO.N,Net-(D7-A)*
X111140000Y-125800000D03*
G04 #@! TD*
D10*
G04 #@! TO.P,C1,1*
G04 #@! TO.N,/THR0*
X113334900Y-93400000D03*
D11*
G04 #@! TO.P,C1,2*
G04 #@! TO.N,/GND*
X115834900Y-93400000D03*
G04 #@! TD*
D10*
G04 #@! TO.P,C2,1*
G04 #@! TO.N,Net-(U1-CV)*
X105934900Y-49000000D03*
D11*
G04 #@! TO.P,C2,2*
G04 #@! TO.N,/GND*
X108434900Y-49000000D03*
G04 #@! TD*
G04 #@! TO.P,R330,1*
G04 #@! TO.N,/OUT1*
X119620000Y-116600000D03*
D14*
G04 #@! TO.P,R330,2*
G04 #@! TO.N,Net-(D17-A)*
X109460000Y-116600000D03*
G04 #@! TD*
D12*
G04 #@! TO.P,D17,1,K*
G04 #@! TO.N,/GND*
X111860000Y-81200000D03*
D13*
G04 #@! TO.P,D17,2,A*
G04 #@! TO.N,Net-(D17-A)*
X114400000Y-81200000D03*
G04 #@! TD*
D11*
G04 #@! TO.P,R22,1*
G04 #@! TO.N,/OUT1*
X100170400Y-84213800D03*
D15*
G04 #@! TO.P,R22,2*
G04 #@! TO.N,Net-(D22-A)*
X102800002Y-74399994D03*
G04 #@! TD*
D12*
G04 #@! TO.P,D2,1,K*
G04 #@! TO.N,/GND*
X99860000Y-49000000D03*
D13*
G04 #@! TO.P,D2,2,A*
G04 #@! TO.N,Net-(D2-A)*
X102400000Y-49000000D03*
G04 #@! TD*
D11*
G04 #@! TO.P,R5,1*
G04 #@! TO.N,/OUT0*
X101060000Y-105200000D03*
D14*
G04 #@! TO.P,R5,2*
G04 #@! TO.N,Net-(D5-A)*
X111220000Y-105200000D03*
G04 #@! TD*
D12*
G04 #@! TO.P,D14,1,K*
G04 #@! TO.N,/GND*
X101400000Y-66200000D03*
D13*
G04 #@! TO.P,D14,2,A*
G04 #@! TO.N,Net-(D14-A)*
X103940000Y-66200000D03*
G04 #@! TD*
D11*
G04 #@! TO.P,R4,1*
G04 #@! TO.N,/OUT0*
X101060000Y-90248000D03*
D14*
G04 #@! TO.P,R4,2*
G04 #@! TO.N,Net-(D4-A)*
X111220000Y-90248000D03*
G04 #@! TD*
D12*
G04 #@! TO.P,D9,1,K*
G04 #@! TO.N,/GND*
X122325000Y-123800000D03*
D13*
G04 #@! TO.P,D9,2,A*
G04 #@! TO.N,Net-(D9-A)*
X124865000Y-123800000D03*
G04 #@! TD*
D11*
G04 #@! TO.P,R19,1*
G04 #@! TO.N,/OUT1*
X98640000Y-101600000D03*
D14*
G04 #@! TO.P,R19,2*
G04 #@! TO.N,Net-(D19-A)*
X108800000Y-101600000D03*
G04 #@! TD*
D11*
G04 #@! TO.P,R15,1*
G04 #@! TO.N,/OUT1*
X109200000Y-84360000D03*
D14*
G04 #@! TO.P,R15,2*
G04 #@! TO.N,Net-(D15-A)*
X109200000Y-74200000D03*
G04 #@! TD*
D12*
G04 #@! TO.P,D4,1,K*
G04 #@! TO.N,/GND*
X95260000Y-67400000D03*
D13*
G04 #@! TO.P,D4,2,A*
G04 #@! TO.N,Net-(D4-A)*
X97800000Y-67400000D03*
G04 #@! TD*
D11*
G04 #@! TO.P,R20,1*
G04 #@! TO.N,/OUT1*
X96000000Y-123280000D03*
D14*
G04 #@! TO.P,R20,2*
G04 #@! TO.N,Net-(D20-A)*
X96000000Y-113120000D03*
G04 #@! TD*
D12*
G04 #@! TO.P,D12,1,K*
G04 #@! TO.N,/GND*
X114600000Y-120800000D03*
D13*
G04 #@! TO.P,D12,2,A*
G04 #@! TO.N,Net-(D12-A)*
X117140000Y-120800000D03*
G04 #@! TD*
D12*
G04 #@! TO.P,D6,1,K*
G04 #@! TO.N,/GND*
X120200000Y-102200000D03*
D13*
G04 #@! TO.P,D6,2,A*
G04 #@! TO.N,Net-(D6-A)*
X122740000Y-102200000D03*
G04 #@! TD*
D11*
G04 #@! TO.P,R12,1*
G04 #@! TO.N,/OUT1*
X101180000Y-141600000D03*
D14*
G04 #@! TO.P,R12,2*
G04 #@! TO.N,Net-(D12-A)*
X111340000Y-141600000D03*
G04 #@! TD*
D11*
G04 #@! TO.P,R14,1*
G04 #@! TO.N,/OUT1*
X101180000Y-147800000D03*
D14*
G04 #@! TO.P,R14,2*
G04 #@! TO.N,Net-(D14-A)*
X111340000Y-147800000D03*
G04 #@! TD*
D12*
G04 #@! TO.P,D11,1,K*
G04 #@! TO.N,/GND*
X117600000Y-84000000D03*
D13*
G04 #@! TO.P,D11,2,A*
G04 #@! TO.N,Net-(D11-A)*
X120140000Y-84000000D03*
G04 #@! TD*
D11*
G04 #@! TO.P,R16,1*
G04 #@! TO.N,/OUT1*
X105740000Y-121880000D03*
D14*
G04 #@! TO.P,R16,2*
G04 #@! TO.N,Net-(D16-A)*
X105740000Y-111720000D03*
G04 #@! TD*
D11*
G04 #@! TO.P,R21,1*
G04 #@! TO.N,/OUT1*
X106740000Y-67080000D03*
D14*
G04 #@! TO.P,R21,2*
G04 #@! TO.N,Net-(D21-A)*
X106740000Y-56920000D03*
G04 #@! TD*
D12*
G04 #@! TO.P,D8,1,K*
G04 #@! TO.N,/GND*
X89460000Y-124600000D03*
D13*
G04 #@! TO.P,D8,2,A*
G04 #@! TO.N,Net-(D8-A)*
X92000000Y-124600000D03*
G04 #@! TD*
D11*
G04 #@! TO.P,R13,1*
G04 #@! TO.N,/OUT1*
X101180000Y-144600000D03*
D14*
G04 #@! TO.P,R13,2*
G04 #@! TO.N,Net-(D13-A)*
X111340000Y-144600000D03*
G04 #@! TD*
D12*
G04 #@! TO.P,D15,1,K*
G04 #@! TO.N,/GND*
X109400000Y-59600000D03*
D13*
G04 #@! TO.P,D15,2,A*
G04 #@! TO.N,Net-(D15-A)*
X111940000Y-59600000D03*
G04 #@! TD*
D12*
G04 #@! TO.P,D19,1,K*
G04 #@! TO.N,/GND*
X106600000Y-94000000D03*
D13*
G04 #@! TO.P,D19,2,A*
G04 #@! TO.N,Net-(D19-A)*
X109140000Y-94000000D03*
G04 #@! TD*
D12*
G04 #@! TO.P,D22,1,K*
G04 #@! TO.N,/GND*
X99660000Y-120200000D03*
D13*
G04 #@! TO.P,D22,2,A*
G04 #@! TO.N,Net-(D22-A)*
X102200000Y-120200000D03*
G04 #@! TD*
D12*
G04 #@! TO.P,D3,1,K*
G04 #@! TO.N,/GND*
X111925000Y-49000000D03*
D13*
G04 #@! TO.P,D3,2,A*
G04 #@! TO.N,Net-(D3-A)*
X114465000Y-49000000D03*
G04 #@! TD*
D11*
G04 #@! TO.P,R23,1*
G04 #@! TO.N,Net-(U1-DIS)*
X100140000Y-151200000D03*
D14*
G04 #@! TO.P,R23,2*
G04 #@! TO.N,/THR0*
X89980000Y-151200000D03*
G04 #@! TD*
D11*
G04 #@! TO.P,R25,1*
G04 #@! TO.N,/+12V*
X125020000Y-151200000D03*
D14*
G04 #@! TO.P,R25,2*
G04 #@! TO.N,Net-(U2-DIS)*
X114860000Y-151200000D03*
G04 #@! TD*
D11*
G04 #@! TO.P,R24,1*
G04 #@! TO.N,/+12V*
X112540000Y-151200000D03*
D14*
G04 #@! TO.P,R24,2*
G04 #@! TO.N,Net-(U1-DIS)*
X102380000Y-151200000D03*
G04 #@! TD*
D16*
G04 #@! TO.P,J1,1,+12V*
G04 #@! TO.N,/+12V*
X121940000Y-47200000D03*
D17*
G04 #@! TO.P,J1,2,+12V*
X119400000Y-47200000D03*
G04 #@! TO.P,J1,3,GND*
G04 #@! TO.N,/GND*
X121940000Y-49740000D03*
G04 #@! TO.P,J1,4,GND*
X119400000Y-49740000D03*
G04 #@! TO.P,J1,5,GND*
X121940000Y-52280000D03*
G04 #@! TO.P,J1,6,GND*
X119400000Y-52280000D03*
G04 #@! TO.P,J1,7,GND*
X121940000Y-54820000D03*
G04 #@! TO.P,J1,8,GND*
X119400000Y-54820000D03*
G04 #@! TO.P,J1,9,-12V*
G04 #@! TO.N,/-12V*
X121940000Y-57360000D03*
G04 #@! TO.P,J1,10,-12V*
X119400000Y-57360000D03*
G04 #@! TD*
D18*
G04 #@! TO.N,Net-(D2-A)*
X105579100Y-65270200D03*
G04 #@! TO.N,Net-(D4-A)*
X97800000Y-85912400D03*
G04 #@! TO.N,Net-(D7-A)*
X97321900Y-123538400D03*
G04 #@! TO.N,Net-(D10-A)*
X94205000Y-130874200D03*
G04 #@! TD*
D19*
G04 #@! TO.N,Net-(U1-CV)*
X103584100Y-47750900D02*
X101938600Y-47750900D01*
X104833200Y-49000000D02*
X103584100Y-47750900D01*
X93234100Y-133784200D02*
X91120000Y-135898300D01*
X101191100Y-48498400D02*
X101191100Y-51401600D01*
X101191100Y-51401600D02*
X96591100Y-56001600D01*
X93234100Y-114425400D02*
X93234100Y-133784200D01*
X101938600Y-47750900D02*
X101191100Y-48498400D01*
X96591100Y-56001600D02*
X96591100Y-80838100D01*
X96591100Y-80838100D02*
X95196100Y-82233100D01*
X95196100Y-97596000D02*
X92988100Y-99804000D01*
X105934900Y-49000000D02*
X104833200Y-49000000D01*
X91120000Y-137000000D02*
X91120000Y-135898300D01*
X92988100Y-99804000D02*
X92988100Y-114179400D01*
X92988100Y-114179400D02*
X93234100Y-114425400D01*
X95196100Y-82233100D02*
X95196100Y-97596000D01*
G04 #@! TO.N,/OUT0*
X100860000Y-71440000D02*
X100860000Y-82095300D01*
X101140000Y-105280000D02*
X101060000Y-105200000D01*
X100980000Y-125800000D02*
X100980000Y-118980000D01*
X101140000Y-108324000D02*
X101140000Y-105280000D01*
X101060000Y-129000000D02*
X101060000Y-125880000D01*
X100182100Y-54877900D02*
X100182100Y-70762100D01*
X101060000Y-105200000D02*
X100731000Y-104871000D01*
X101060000Y-135200000D02*
X101060000Y-138360000D01*
X101060000Y-90248000D02*
X101060000Y-87200000D01*
X101060000Y-132000000D02*
X101060000Y-135200000D01*
X100731000Y-104871000D02*
X100731000Y-90577000D01*
X101260000Y-53800000D02*
X100182100Y-54877900D01*
X101060000Y-129000000D02*
X101060000Y-132000000D01*
X100182100Y-70762100D02*
X100860000Y-71440000D01*
X100860000Y-82095300D02*
X101283400Y-82518700D01*
X100333200Y-109130800D02*
X101140000Y-108324000D01*
X100731000Y-90577000D02*
X101060000Y-90248000D01*
X101060000Y-125880000D02*
X100980000Y-125800000D01*
X100333200Y-118333200D02*
X100333200Y-109130800D01*
X100980000Y-118980000D02*
X100333200Y-118333200D01*
X101283400Y-86976600D02*
X101060000Y-87200000D01*
X101283400Y-82518700D02*
X101283400Y-86976600D01*
X101060000Y-138360000D02*
X101100000Y-138400000D01*
G04 #@! TO.N,/+12V*
X101780500Y-140440500D02*
X99895000Y-140440500D01*
X98740000Y-138101700D02*
X98877700Y-138101700D01*
X121469900Y-121860400D02*
X121105200Y-122225100D01*
X120788300Y-60418900D02*
X121469900Y-61100500D01*
X121105200Y-135663500D02*
X121340000Y-135898300D01*
X119400000Y-47200000D02*
X120551700Y-47200000D01*
X121321000Y-48351700D02*
X120788300Y-48884400D01*
X91120000Y-144620000D02*
X92221700Y-144620000D01*
X99895000Y-139119000D02*
X99895000Y-140440500D01*
X99646700Y-145771200D02*
X93372900Y-145771200D01*
X112540000Y-151200000D02*
X101780500Y-140440500D01*
X99895000Y-140440500D02*
X99895000Y-145522900D01*
X98740000Y-137000000D02*
X98740000Y-138101700D01*
X93372900Y-145771200D02*
X92221700Y-144620000D01*
X121940000Y-48351700D02*
X121321000Y-48351700D01*
X121940000Y-47200000D02*
X121940000Y-48351700D01*
X98877700Y-138101700D02*
X99895000Y-139119000D01*
X99895000Y-145522900D02*
X99646700Y-145771200D01*
X120788300Y-48884400D02*
X120788300Y-60418900D01*
X121105200Y-122225100D02*
X121105200Y-135663500D01*
X120551700Y-47582400D02*
X120551700Y-47200000D01*
X121469900Y-61100500D02*
X121469900Y-121860400D01*
X121321000Y-48351700D02*
X120551700Y-47582400D01*
X121340000Y-137000000D02*
X121340000Y-135898300D01*
G04 #@! TO.N,/THR0*
X90891700Y-140641700D02*
X91120000Y-140641700D01*
X89980000Y-141553400D02*
X90891700Y-140641700D01*
X91120000Y-139540000D02*
X91120000Y-140641700D01*
X89980000Y-151200000D02*
X89980000Y-141553400D01*
G04 #@! TO.N,/GND*
X122325000Y-125001700D02*
X122441700Y-125118400D01*
X113600000Y-101600000D02*
X113600000Y-95634900D01*
X122441700Y-142554400D02*
X121477800Y-143518300D01*
X111540000Y-115741700D02*
X111540000Y-121000000D01*
X93865000Y-84200000D02*
X93865000Y-82998300D01*
X98740000Y-144620000D02*
X98740000Y-143518300D01*
X99572400Y-103600000D02*
X99572400Y-111225900D01*
X108890700Y-57889000D02*
X108890700Y-49455700D01*
X95260000Y-67400000D02*
X95260000Y-68601700D01*
X99660000Y-120200000D02*
X99660000Y-118998300D01*
X98602300Y-143518300D02*
X97614200Y-142530200D01*
X99572400Y-111225900D02*
X99000000Y-111798300D01*
X97200000Y-103600000D02*
X97000000Y-103400000D01*
X99400000Y-98401700D02*
X99572400Y-98574100D01*
X121340000Y-144620000D02*
X121340000Y-143518300D01*
X99000000Y-113000000D02*
X99000000Y-118338300D01*
X108890600Y-49455700D02*
X108434900Y-49000000D01*
X98740000Y-143518300D02*
X98602300Y-143518300D01*
X121940000Y-49740000D02*
X121940000Y-52280000D01*
X108890700Y-49455700D02*
X108890600Y-49455700D01*
X99660000Y-124583500D02*
X99660000Y-120200000D01*
X109400000Y-59600000D02*
X109400000Y-58398300D01*
X105278100Y-36573700D02*
X104860000Y-36991800D01*
X121477800Y-143518300D02*
X121340000Y-143518300D01*
X119400000Y-52280000D02*
X119400000Y-54820000D01*
X122441700Y-125118400D02*
X122441700Y-142554400D01*
X99000000Y-113000000D02*
X99000000Y-111798300D01*
X117600000Y-91634900D02*
X115834900Y-93400000D01*
X99572400Y-103600000D02*
X97200000Y-103600000D01*
X97000000Y-99800000D02*
X99572400Y-99800000D01*
X97614200Y-126629300D02*
X99660000Y-124583500D01*
X109800000Y-112800000D02*
X109800000Y-114001700D01*
X93865000Y-69996700D02*
X93865000Y-82998300D01*
X105278100Y-35372000D02*
X105278100Y-36573700D01*
X97614200Y-142530200D02*
X97614200Y-126629300D01*
X99400000Y-97200000D02*
X99400000Y-98401700D01*
X99572400Y-98574100D02*
X99572400Y-99800000D01*
X113600000Y-95634900D02*
X115834900Y-93400000D01*
X109800000Y-114001700D02*
X111540000Y-115741700D01*
X121940000Y-52280000D02*
X121940000Y-54820000D01*
X95260000Y-68601700D02*
X93865000Y-69996700D01*
X97000000Y-103400000D02*
X97000000Y-99800000D01*
X99000000Y-118338300D02*
X99660000Y-118998300D01*
X117600000Y-84000000D02*
X117600000Y-91634900D01*
X109400000Y-58398300D02*
X108890700Y-57889000D01*
X104860000Y-36991800D02*
X104860000Y-43400000D01*
X119400000Y-49740000D02*
X119400000Y-52280000D01*
X122325000Y-123800000D02*
X122325000Y-125001700D01*
G04 #@! TO.N,/THR1*
X113491700Y-140641700D02*
X113720000Y-140641700D01*
X109040000Y-140917200D02*
X110835200Y-142712400D01*
X110835200Y-142712400D02*
X111794300Y-142712400D01*
X112530000Y-141603400D02*
X113491700Y-140641700D01*
X111794300Y-142712400D02*
X112530000Y-141976700D01*
X109040000Y-121000000D02*
X109040000Y-140917200D01*
X113720000Y-139540000D02*
X113720000Y-140641700D01*
X112530000Y-141976700D02*
X112530000Y-141603400D01*
G04 #@! TO.N,Net-(U2-DIS)*
X113948300Y-143181700D02*
X113720000Y-143181700D01*
X114860000Y-144093400D02*
X113948300Y-143181700D01*
X114860000Y-151200000D02*
X114860000Y-144093400D01*
X113720000Y-142080000D02*
X113720000Y-143181700D01*
G04 #@! TO.N,/OUT1*
X105460000Y-97800000D02*
X106899200Y-99239200D01*
X121340000Y-139540000D02*
X121340000Y-138438300D01*
X109200000Y-84360000D02*
X105337800Y-88222200D01*
X106899200Y-99239200D02*
X106899200Y-120720800D01*
X119620000Y-136856000D02*
X119620000Y-116600000D01*
X106740000Y-81900000D02*
X109200000Y-84360000D01*
X101180000Y-144600000D02*
X101180000Y-147800000D01*
X121202300Y-138438300D02*
X119620000Y-136856000D01*
X106899200Y-120720800D02*
X105740000Y-121880000D01*
X121340000Y-138438300D02*
X121202300Y-138438300D01*
X106740000Y-67080000D02*
X106740000Y-81900000D01*
X101180000Y-141600000D02*
X101180000Y-144600000D01*
X105337800Y-97677800D02*
X105460000Y-97800000D01*
X105337800Y-88222200D02*
X105337800Y-97677800D01*
G04 #@! TO.N,Net-(D1-A)*
X111420000Y-53800000D02*
X111420000Y-52698300D01*
X107818100Y-35372000D02*
X109539500Y-37093400D01*
X109539500Y-50817800D02*
X111420000Y-52698300D01*
X109539500Y-37093400D02*
X109539500Y-50817800D01*
G04 #@! TO.N,Net-(D2-A)*
X105579100Y-52179100D02*
X105579100Y-65270200D01*
X102400000Y-49000000D02*
X105579100Y-52179100D01*
G04 #@! TO.N,Net-(D3-A)*
X111220000Y-86098300D02*
X111220000Y-83480000D01*
X110631800Y-79554300D02*
X114465000Y-75721100D01*
X111220000Y-83480000D02*
X110631800Y-82891800D01*
X114465000Y-75721100D02*
X114465000Y-49000000D01*
X111220000Y-87200000D02*
X111220000Y-86098300D01*
X110631800Y-82891800D02*
X110631800Y-79554300D01*
G04 #@! TO.N,Net-(D4-A)*
X97800000Y-67400000D02*
X97800000Y-85912400D01*
G04 #@! TO.N,Net-(D5-A)*
X111220000Y-105200000D02*
X111220000Y-92827400D01*
X111220000Y-92827400D02*
X115846000Y-88201400D01*
X115846000Y-88201400D02*
X115846000Y-69995000D01*
X115846000Y-69995000D02*
X118465000Y-67376000D01*
G04 #@! TO.N,Net-(D7-A)*
X97321900Y-108046200D02*
X97321900Y-123538400D01*
X96405000Y-107129300D02*
X97321900Y-108046200D01*
X96405000Y-84200000D02*
X96405000Y-107129300D01*
G04 #@! TO.N,Net-(D10-A)*
X94205000Y-102200000D02*
X94205000Y-130874200D01*
G04 #@! TO.N,Net-(D11-A)*
X112660500Y-115590700D02*
X112660500Y-121487400D01*
X113818600Y-106115800D02*
X113818600Y-108126100D01*
X111260000Y-138400000D02*
X111260000Y-137298300D01*
X111136500Y-114066700D02*
X112660500Y-115590700D01*
X111136500Y-110808200D02*
X111136500Y-114066700D01*
X113818600Y-108126100D02*
X111136500Y-110808200D01*
X112660500Y-121487400D02*
X110013900Y-124134000D01*
X120140000Y-84000000D02*
X120140000Y-99794400D01*
X110013900Y-124134000D02*
X110013900Y-136052200D01*
X110013900Y-136052200D02*
X111260000Y-137298300D01*
X120140000Y-99794400D02*
X113818600Y-106115800D01*
G04 #@! TO.N,Net-(D12-A)*
X111340000Y-140498300D02*
X112364200Y-139474100D01*
X112364200Y-125575800D02*
X117140000Y-120800000D01*
X111340000Y-141600000D02*
X111340000Y-140498300D01*
X112364200Y-139474100D02*
X112364200Y-125575800D01*
G04 #@! TO.N,Net-(D13-A)*
X108034700Y-81062900D02*
X108034700Y-52353800D01*
X107870000Y-88054600D02*
X110331600Y-85593000D01*
X107679800Y-96803200D02*
X107870000Y-96613000D01*
X107310800Y-51629900D02*
X107310800Y-43489200D01*
X107679800Y-140193100D02*
X107679800Y-96803200D01*
X110331600Y-85593000D02*
X110331600Y-83359800D01*
X107870000Y-96613000D02*
X107870000Y-88054600D01*
X110331600Y-83359800D02*
X108034700Y-81062900D01*
X107310800Y-43489200D02*
X107400000Y-43400000D01*
X111340000Y-143498300D02*
X110985000Y-143498300D01*
X111340000Y-144600000D02*
X111340000Y-143498300D01*
X108034700Y-52353800D02*
X107310800Y-51629900D01*
X110985000Y-143498300D02*
X107679800Y-140193100D01*
G04 #@! TO.N,Net-(D14-A)*
X102628500Y-84922800D02*
X102628500Y-82404800D01*
X103948900Y-86243200D02*
X102628500Y-84922800D01*
X103980100Y-66240100D02*
X103940000Y-66200000D01*
X103948900Y-139307200D02*
X103948900Y-86243200D01*
X103980100Y-81053200D02*
X103980100Y-66240100D01*
X102628500Y-82404800D02*
X103980100Y-81053200D01*
X111340000Y-147800000D02*
X111340000Y-146698300D01*
X111340000Y-146698300D02*
X103948900Y-139307200D01*
G04 #@! TO.N,Net-(D15-A)*
X111238300Y-60301700D02*
X111238300Y-69174800D01*
X111238300Y-69174800D02*
X109200000Y-71213100D01*
X109200000Y-71213100D02*
X109200000Y-74200000D01*
X111940000Y-59600000D02*
X111238300Y-60301700D01*
G04 #@! TO.N,Net-(D16-A)*
X105740000Y-110618300D02*
X104357200Y-109235500D01*
X104357200Y-109235500D02*
X104357200Y-85442800D01*
X105740000Y-111720000D02*
X105740000Y-110618300D01*
X104357200Y-85442800D02*
X106400000Y-83400000D01*
G04 #@! TO.N,Net-(D17-A)*
X108556800Y-105006400D02*
X110761100Y-102802100D01*
X108556800Y-114595100D02*
X108556800Y-105006400D01*
X109460000Y-116600000D02*
X109460000Y-115498300D01*
X114400000Y-88626100D02*
X114400000Y-81200000D01*
X110761100Y-102802100D02*
X110761100Y-92265000D01*
X110761100Y-92265000D02*
X114400000Y-88626100D01*
X109460000Y-115498300D02*
X108556800Y-114595100D01*
G04 #@! TO.N,Net-(D19-A)*
X108800000Y-94340000D02*
X109140000Y-94000000D01*
X108800000Y-101600000D02*
X108800000Y-94340000D01*
G04 #@! TO.N,Net-(D21-A)*
X102232200Y-90235300D02*
X102232200Y-86569900D01*
X104371600Y-64932100D02*
X105314500Y-65875000D01*
X102232200Y-86569900D02*
X101709300Y-86047000D01*
X103145500Y-98723300D02*
X103145500Y-91148600D01*
X101588600Y-73776700D02*
X102669900Y-72695400D01*
X102342900Y-99525900D02*
X103145500Y-98723300D01*
X105314500Y-65875000D02*
X105861800Y-65875000D01*
X103145500Y-91148600D02*
X102232200Y-90235300D01*
X102669900Y-72695400D02*
X102669900Y-65676600D01*
X101588600Y-75605600D02*
X101588600Y-73776700D01*
X102342900Y-112197100D02*
X102342900Y-99525900D01*
X101709300Y-75726300D02*
X101588600Y-75605600D01*
X101540000Y-113000000D02*
X102342900Y-112197100D01*
X102669900Y-65676600D02*
X103414400Y-64932100D01*
X106740000Y-64996800D02*
X106740000Y-56920000D01*
X105861800Y-65875000D02*
X106740000Y-64996800D01*
X101709300Y-86047000D02*
X101709300Y-75726300D01*
X103414400Y-64932100D02*
X104371600Y-64932100D01*
G04 #@! TO.N,Net-(D22-A)*
X102226800Y-85371900D02*
X102226800Y-82233500D01*
X103547200Y-98989500D02*
X103547200Y-90026000D01*
X102744000Y-86172200D02*
X102685400Y-86113600D01*
X103145500Y-99698000D02*
X103341700Y-99501800D01*
X102483300Y-81977000D02*
X102483300Y-75582300D01*
X102744000Y-89222800D02*
X102744000Y-86172200D01*
X102685400Y-85830500D02*
X102226800Y-85371900D01*
X103341700Y-99195000D02*
X103547200Y-98989500D01*
X103145500Y-119254500D02*
X103145500Y-99698000D01*
X102226800Y-82233500D02*
X102483300Y-81977000D01*
X102685400Y-86113600D02*
X102685400Y-85830500D01*
X102800000Y-74400000D02*
X102483200Y-75582300D01*
X103547200Y-90026000D02*
X102744000Y-89222800D01*
X103341700Y-99501800D02*
X103341700Y-99195000D01*
X102483300Y-75582300D02*
X102483200Y-75582300D01*
X102200000Y-120200000D02*
X103145500Y-119254500D01*
G04 #@! TO.N,Net-(D23-A)*
X121391600Y-146698300D02*
X118922000Y-144228700D01*
X123900000Y-146698300D02*
X121391600Y-146698300D01*
X123900000Y-147800000D02*
X123900000Y-146698300D01*
X118922000Y-144228700D02*
X118922000Y-119382000D01*
X118922000Y-119382000D02*
X112340000Y-112800000D01*
G04 #@! TD*
M02*
