M48
INCH,TZ
T1C0.0118
T2C0.0315
T3C0.0354
T4C0.0394
%
G90
G05
T1
X37089Y-51525
X38316Y-48637
X38504Y-33824
X41567Y-25697
T2
X34906Y-58189
X35425Y-59528
X35874Y-53937
X35874Y-54937
X35874Y-55937
X35874Y-56937
X37795Y-44535
X37795Y-48535
X38835Y-40000
X38874Y-53937
X38874Y-54937
X38874Y-55937
X38874Y-56937
X38906Y-58189
X39425Y-59528
X39437Y-33155
X39709Y-28126
X39756Y-49528
X39787Y-34331
X39787Y-35531
X39787Y-41417
X39787Y-50787
X39787Y-51969
X39787Y-53228
X39803Y-54488
X39819Y-42647
X39835Y-55748
X39835Y-56929
X39835Y-58189
X39866Y-21181
X40307Y-59528
X40472Y-29291
X41520Y-38504
X41630Y-43984
X41630Y-47984
X41707Y-19291
X42024Y-22409
X42024Y-26409
X42691Y-19291
X42835Y-40000
X42929Y-47638
X42992Y-29213
X42992Y-33213
X43094Y-45906
X43244Y-25984
X43709Y-28126
X43756Y-49528
X43787Y-34331
X43787Y-35531
X43787Y-41417
X43787Y-50787
X43787Y-51969
X43787Y-53228
X43803Y-54488
X43819Y-42647
X43835Y-55748
X43835Y-56929
X43835Y-58189
X43866Y-21181
X43913Y-47638
X44228Y-25984
X44307Y-59528
X44620Y-36772
X44772Y-53937
X44772Y-54937
X44772Y-55937
X44772Y-56937
X44780Y-58189
X45220Y-59528
X45520Y-38504
X45604Y-36772
X47094Y-45906
X47772Y-53937
X47772Y-54937
X47772Y-55937
X47772Y-56937
X48780Y-58189
X49220Y-59528
T3
X35220Y-49055
X36089Y-40236
X36220Y-49055
X36955Y-33150
X37089Y-40236
X37504Y-26535
X37955Y-33150
X38504Y-26535
X38976Y-44488
X39134Y-38268
X39236Y-47323
X39315Y-19291
X39921Y-26063
X39976Y-44488
X40134Y-38268
X40236Y-47323
X40315Y-19291
X40890Y-32835
X40921Y-26063
X41283Y-17087
X41448Y-13926
X41890Y-32835
X41969Y-37008
X42283Y-17087
X42448Y-13926
X42969Y-37008
X43071Y-23465
X43228Y-44409
X44039Y-31969
X44065Y-19291
X44071Y-23465
X44228Y-44409
X44724Y-40000
X45039Y-31969
X45065Y-19291
X45118Y-47559
X45640Y-26526
X45724Y-40000
X46118Y-47559
X46299Y-33071
X46640Y-26526
X47299Y-33071
X47323Y-40236
X48159Y-48740
X48323Y-40236
X49159Y-48740
T4
X47008Y-18583
X47008Y-19583
X47008Y-20583
X47008Y-21583
X47008Y-22583
X48008Y-18583
X48008Y-19583
X48008Y-20583
X48008Y-21583
X48008Y-22583
M30
