G04 #@! TF.GenerationSoftware,KiCad,Pcbnew,8.0.6*
G04 #@! TF.CreationDate,2024-11-25T12:48:25+01:00*
G04 #@! TF.ProjectId,SS-XMAS-1,53532d58-4d41-4532-9d31-2e6b69636164,rev?*
G04 #@! TF.SameCoordinates,Original*
G04 #@! TF.FileFunction,Legend,Bot*
G04 #@! TF.FilePolarity,Positive*
%FSLAX46Y46*%
G04 Gerber Fmt 4.6, Leading zero omitted, Abs format (unit mm)*
G04 Created by KiCad (PCBNEW 8.0.6) date 2024-11-25 12:48:25*
%MOMM*%
%LPD*%
G01*
G04 APERTURE LIST*
%ADD10C,0.300000*%
%ADD11C,0.150000*%
%ADD12C,0.120000*%
G04 APERTURE END LIST*
D10*
X89499171Y-90859774D02*
X89499171Y-90002632D01*
X87999171Y-90431203D02*
X89499171Y-90431203D01*
X87999171Y-89502632D02*
X89499171Y-89502632D01*
X87999171Y-88859775D02*
X88784885Y-88859775D01*
X88784885Y-88859775D02*
X88927742Y-88931203D01*
X88927742Y-88931203D02*
X88999171Y-89074060D01*
X88999171Y-89074060D02*
X88999171Y-89288346D01*
X88999171Y-89288346D02*
X88927742Y-89431203D01*
X88927742Y-89431203D02*
X88856314Y-89502632D01*
X87999171Y-88145489D02*
X88999171Y-88145489D01*
X89499171Y-88145489D02*
X89427742Y-88216917D01*
X89427742Y-88216917D02*
X89356314Y-88145489D01*
X89356314Y-88145489D02*
X89427742Y-88074060D01*
X89427742Y-88074060D02*
X89499171Y-88145489D01*
X89499171Y-88145489D02*
X89356314Y-88145489D01*
X88070600Y-87502631D02*
X87999171Y-87359774D01*
X87999171Y-87359774D02*
X87999171Y-87074060D01*
X87999171Y-87074060D02*
X88070600Y-86931203D01*
X88070600Y-86931203D02*
X88213457Y-86859774D01*
X88213457Y-86859774D02*
X88284885Y-86859774D01*
X88284885Y-86859774D02*
X88427742Y-86931203D01*
X88427742Y-86931203D02*
X88499171Y-87074060D01*
X88499171Y-87074060D02*
X88499171Y-87288346D01*
X88499171Y-87288346D02*
X88570600Y-87431203D01*
X88570600Y-87431203D02*
X88713457Y-87502631D01*
X88713457Y-87502631D02*
X88784885Y-87502631D01*
X88784885Y-87502631D02*
X88927742Y-87431203D01*
X88927742Y-87431203D02*
X88999171Y-87288346D01*
X88999171Y-87288346D02*
X88999171Y-87074060D01*
X88999171Y-87074060D02*
X88927742Y-86931203D01*
X87999171Y-85074060D02*
X88999171Y-85074060D01*
X88856314Y-85074060D02*
X88927742Y-85002631D01*
X88927742Y-85002631D02*
X88999171Y-84859774D01*
X88999171Y-84859774D02*
X88999171Y-84645488D01*
X88999171Y-84645488D02*
X88927742Y-84502631D01*
X88927742Y-84502631D02*
X88784885Y-84431203D01*
X88784885Y-84431203D02*
X87999171Y-84431203D01*
X88784885Y-84431203D02*
X88927742Y-84359774D01*
X88927742Y-84359774D02*
X88999171Y-84216917D01*
X88999171Y-84216917D02*
X88999171Y-84002631D01*
X88999171Y-84002631D02*
X88927742Y-83859774D01*
X88927742Y-83859774D02*
X88784885Y-83788345D01*
X88784885Y-83788345D02*
X87999171Y-83788345D01*
X87999171Y-82431203D02*
X88784885Y-82431203D01*
X88784885Y-82431203D02*
X88927742Y-82502631D01*
X88927742Y-82502631D02*
X88999171Y-82645488D01*
X88999171Y-82645488D02*
X88999171Y-82931203D01*
X88999171Y-82931203D02*
X88927742Y-83074060D01*
X88070600Y-82431203D02*
X87999171Y-82574060D01*
X87999171Y-82574060D02*
X87999171Y-82931203D01*
X87999171Y-82931203D02*
X88070600Y-83074060D01*
X88070600Y-83074060D02*
X88213457Y-83145488D01*
X88213457Y-83145488D02*
X88356314Y-83145488D01*
X88356314Y-83145488D02*
X88499171Y-83074060D01*
X88499171Y-83074060D02*
X88570600Y-82931203D01*
X88570600Y-82931203D02*
X88570600Y-82574060D01*
X88570600Y-82574060D02*
X88642028Y-82431203D01*
X88070600Y-81074060D02*
X87999171Y-81216917D01*
X87999171Y-81216917D02*
X87999171Y-81502631D01*
X87999171Y-81502631D02*
X88070600Y-81645488D01*
X88070600Y-81645488D02*
X88142028Y-81716917D01*
X88142028Y-81716917D02*
X88284885Y-81788345D01*
X88284885Y-81788345D02*
X88713457Y-81788345D01*
X88713457Y-81788345D02*
X88856314Y-81716917D01*
X88856314Y-81716917D02*
X88927742Y-81645488D01*
X88927742Y-81645488D02*
X88999171Y-81502631D01*
X88999171Y-81502631D02*
X88999171Y-81216917D01*
X88999171Y-81216917D02*
X88927742Y-81074060D01*
X87999171Y-80431203D02*
X89499171Y-80431203D01*
X87999171Y-79788346D02*
X88784885Y-79788346D01*
X88784885Y-79788346D02*
X88927742Y-79859774D01*
X88927742Y-79859774D02*
X88999171Y-80002631D01*
X88999171Y-80002631D02*
X88999171Y-80216917D01*
X88999171Y-80216917D02*
X88927742Y-80359774D01*
X88927742Y-80359774D02*
X88856314Y-80431203D01*
X87999171Y-79074060D02*
X88999171Y-79074060D01*
X89499171Y-79074060D02*
X89427742Y-79145488D01*
X89427742Y-79145488D02*
X89356314Y-79074060D01*
X89356314Y-79074060D02*
X89427742Y-79002631D01*
X89427742Y-79002631D02*
X89499171Y-79074060D01*
X89499171Y-79074060D02*
X89356314Y-79074060D01*
X88999171Y-78359774D02*
X87999171Y-78359774D01*
X88856314Y-78359774D02*
X88927742Y-78288345D01*
X88927742Y-78288345D02*
X88999171Y-78145488D01*
X88999171Y-78145488D02*
X88999171Y-77931202D01*
X88999171Y-77931202D02*
X88927742Y-77788345D01*
X88927742Y-77788345D02*
X88784885Y-77716917D01*
X88784885Y-77716917D02*
X87999171Y-77716917D01*
X88070600Y-76431202D02*
X87999171Y-76574059D01*
X87999171Y-76574059D02*
X87999171Y-76859774D01*
X87999171Y-76859774D02*
X88070600Y-77002631D01*
X88070600Y-77002631D02*
X88213457Y-77074059D01*
X88213457Y-77074059D02*
X88784885Y-77074059D01*
X88784885Y-77074059D02*
X88927742Y-77002631D01*
X88927742Y-77002631D02*
X88999171Y-76859774D01*
X88999171Y-76859774D02*
X88999171Y-76574059D01*
X88999171Y-76574059D02*
X88927742Y-76431202D01*
X88927742Y-76431202D02*
X88784885Y-76359774D01*
X88784885Y-76359774D02*
X88642028Y-76359774D01*
X88642028Y-76359774D02*
X88499171Y-77074059D01*
X87999171Y-74574060D02*
X89499171Y-74574060D01*
X88570600Y-74431203D02*
X87999171Y-74002631D01*
X88999171Y-74002631D02*
X88427742Y-74574060D01*
X87999171Y-73359774D02*
X88999171Y-73359774D01*
X89499171Y-73359774D02*
X89427742Y-73431202D01*
X89427742Y-73431202D02*
X89356314Y-73359774D01*
X89356314Y-73359774D02*
X89427742Y-73288345D01*
X89427742Y-73288345D02*
X89499171Y-73359774D01*
X89499171Y-73359774D02*
X89356314Y-73359774D01*
X87999171Y-72431202D02*
X88070600Y-72574059D01*
X88070600Y-72574059D02*
X88213457Y-72645488D01*
X88213457Y-72645488D02*
X89499171Y-72645488D01*
X87999171Y-71645488D02*
X88070600Y-71788345D01*
X88070600Y-71788345D02*
X88213457Y-71859774D01*
X88213457Y-71859774D02*
X89499171Y-71859774D01*
X88070600Y-71145488D02*
X87999171Y-71002631D01*
X87999171Y-71002631D02*
X87999171Y-70716917D01*
X87999171Y-70716917D02*
X88070600Y-70574060D01*
X88070600Y-70574060D02*
X88213457Y-70502631D01*
X88213457Y-70502631D02*
X88284885Y-70502631D01*
X88284885Y-70502631D02*
X88427742Y-70574060D01*
X88427742Y-70574060D02*
X88499171Y-70716917D01*
X88499171Y-70716917D02*
X88499171Y-70931203D01*
X88499171Y-70931203D02*
X88570600Y-71074060D01*
X88570600Y-71074060D02*
X88713457Y-71145488D01*
X88713457Y-71145488D02*
X88784885Y-71145488D01*
X88784885Y-71145488D02*
X88927742Y-71074060D01*
X88927742Y-71074060D02*
X88999171Y-70931203D01*
X88999171Y-70931203D02*
X88999171Y-70716917D01*
X88999171Y-70716917D02*
X88927742Y-70574060D01*
X88999171Y-68931202D02*
X88999171Y-68359774D01*
X87999171Y-68716917D02*
X89284885Y-68716917D01*
X89284885Y-68716917D02*
X89427742Y-68645488D01*
X89427742Y-68645488D02*
X89499171Y-68502631D01*
X89499171Y-68502631D02*
X89499171Y-68359774D01*
X87999171Y-67216917D02*
X88784885Y-67216917D01*
X88784885Y-67216917D02*
X88927742Y-67288345D01*
X88927742Y-67288345D02*
X88999171Y-67431202D01*
X88999171Y-67431202D02*
X88999171Y-67716917D01*
X88999171Y-67716917D02*
X88927742Y-67859774D01*
X88070600Y-67216917D02*
X87999171Y-67359774D01*
X87999171Y-67359774D02*
X87999171Y-67716917D01*
X87999171Y-67716917D02*
X88070600Y-67859774D01*
X88070600Y-67859774D02*
X88213457Y-67931202D01*
X88213457Y-67931202D02*
X88356314Y-67931202D01*
X88356314Y-67931202D02*
X88499171Y-67859774D01*
X88499171Y-67859774D02*
X88570600Y-67716917D01*
X88570600Y-67716917D02*
X88570600Y-67359774D01*
X88570600Y-67359774D02*
X88642028Y-67216917D01*
X88070600Y-66574059D02*
X87999171Y-66431202D01*
X87999171Y-66431202D02*
X87999171Y-66145488D01*
X87999171Y-66145488D02*
X88070600Y-66002631D01*
X88070600Y-66002631D02*
X88213457Y-65931202D01*
X88213457Y-65931202D02*
X88284885Y-65931202D01*
X88284885Y-65931202D02*
X88427742Y-66002631D01*
X88427742Y-66002631D02*
X88499171Y-66145488D01*
X88499171Y-66145488D02*
X88499171Y-66359774D01*
X88499171Y-66359774D02*
X88570600Y-66502631D01*
X88570600Y-66502631D02*
X88713457Y-66574059D01*
X88713457Y-66574059D02*
X88784885Y-66574059D01*
X88784885Y-66574059D02*
X88927742Y-66502631D01*
X88927742Y-66502631D02*
X88999171Y-66359774D01*
X88999171Y-66359774D02*
X88999171Y-66145488D01*
X88999171Y-66145488D02*
X88927742Y-66002631D01*
X88070600Y-64645488D02*
X87999171Y-64788345D01*
X87999171Y-64788345D02*
X87999171Y-65074059D01*
X87999171Y-65074059D02*
X88070600Y-65216916D01*
X88070600Y-65216916D02*
X88142028Y-65288345D01*
X88142028Y-65288345D02*
X88284885Y-65359773D01*
X88284885Y-65359773D02*
X88713457Y-65359773D01*
X88713457Y-65359773D02*
X88856314Y-65288345D01*
X88856314Y-65288345D02*
X88927742Y-65216916D01*
X88927742Y-65216916D02*
X88999171Y-65074059D01*
X88999171Y-65074059D02*
X88999171Y-64788345D01*
X88999171Y-64788345D02*
X88927742Y-64645488D01*
X87999171Y-64002631D02*
X88999171Y-64002631D01*
X89499171Y-64002631D02*
X89427742Y-64074059D01*
X89427742Y-64074059D02*
X89356314Y-64002631D01*
X89356314Y-64002631D02*
X89427742Y-63931202D01*
X89427742Y-63931202D02*
X89499171Y-64002631D01*
X89499171Y-64002631D02*
X89356314Y-64002631D01*
X88070600Y-63359773D02*
X87999171Y-63216916D01*
X87999171Y-63216916D02*
X87999171Y-62931202D01*
X87999171Y-62931202D02*
X88070600Y-62788345D01*
X88070600Y-62788345D02*
X88213457Y-62716916D01*
X88213457Y-62716916D02*
X88284885Y-62716916D01*
X88284885Y-62716916D02*
X88427742Y-62788345D01*
X88427742Y-62788345D02*
X88499171Y-62931202D01*
X88499171Y-62931202D02*
X88499171Y-63145488D01*
X88499171Y-63145488D02*
X88570600Y-63288345D01*
X88570600Y-63288345D02*
X88713457Y-63359773D01*
X88713457Y-63359773D02*
X88784885Y-63359773D01*
X88784885Y-63359773D02*
X88927742Y-63288345D01*
X88927742Y-63288345D02*
X88999171Y-63145488D01*
X88999171Y-63145488D02*
X88999171Y-62931202D01*
X88999171Y-62931202D02*
X88927742Y-62788345D01*
X88999171Y-62288344D02*
X88999171Y-61716916D01*
X89499171Y-62074059D02*
X88213457Y-62074059D01*
X88213457Y-62074059D02*
X88070600Y-62002630D01*
X88070600Y-62002630D02*
X87999171Y-61859773D01*
X87999171Y-61859773D02*
X87999171Y-61716916D01*
X88070600Y-61288344D02*
X87999171Y-61145487D01*
X87999171Y-61145487D02*
X87999171Y-60859773D01*
X87999171Y-60859773D02*
X88070600Y-60716916D01*
X88070600Y-60716916D02*
X88213457Y-60645487D01*
X88213457Y-60645487D02*
X88284885Y-60645487D01*
X88284885Y-60645487D02*
X88427742Y-60716916D01*
X88427742Y-60716916D02*
X88499171Y-60859773D01*
X88499171Y-60859773D02*
X88499171Y-61074059D01*
X88499171Y-61074059D02*
X88570600Y-61216916D01*
X88570600Y-61216916D02*
X88713457Y-61288344D01*
X88713457Y-61288344D02*
X88784885Y-61288344D01*
X88784885Y-61288344D02*
X88927742Y-61216916D01*
X88927742Y-61216916D02*
X88999171Y-61074059D01*
X88999171Y-61074059D02*
X88999171Y-60859773D01*
X88999171Y-60859773D02*
X88927742Y-60716916D01*
X88142028Y-60002630D02*
X88070600Y-59931201D01*
X88070600Y-59931201D02*
X87999171Y-60002630D01*
X87999171Y-60002630D02*
X88070600Y-60074058D01*
X88070600Y-60074058D02*
X88142028Y-60002630D01*
X88142028Y-60002630D02*
X87999171Y-60002630D01*
X123399171Y-87588346D02*
X124113457Y-88088346D01*
X123399171Y-88445489D02*
X124899171Y-88445489D01*
X124899171Y-88445489D02*
X124899171Y-87874060D01*
X124899171Y-87874060D02*
X124827742Y-87731203D01*
X124827742Y-87731203D02*
X124756314Y-87659774D01*
X124756314Y-87659774D02*
X124613457Y-87588346D01*
X124613457Y-87588346D02*
X124399171Y-87588346D01*
X124399171Y-87588346D02*
X124256314Y-87659774D01*
X124256314Y-87659774D02*
X124184885Y-87731203D01*
X124184885Y-87731203D02*
X124113457Y-87874060D01*
X124113457Y-87874060D02*
X124113457Y-88445489D01*
X123470600Y-86374060D02*
X123399171Y-86516917D01*
X123399171Y-86516917D02*
X123399171Y-86802632D01*
X123399171Y-86802632D02*
X123470600Y-86945489D01*
X123470600Y-86945489D02*
X123613457Y-87016917D01*
X123613457Y-87016917D02*
X124184885Y-87016917D01*
X124184885Y-87016917D02*
X124327742Y-86945489D01*
X124327742Y-86945489D02*
X124399171Y-86802632D01*
X124399171Y-86802632D02*
X124399171Y-86516917D01*
X124399171Y-86516917D02*
X124327742Y-86374060D01*
X124327742Y-86374060D02*
X124184885Y-86302632D01*
X124184885Y-86302632D02*
X124042028Y-86302632D01*
X124042028Y-86302632D02*
X123899171Y-87016917D01*
X124399171Y-85802632D02*
X123399171Y-85445489D01*
X123399171Y-85445489D02*
X124399171Y-85088346D01*
X123542028Y-84516918D02*
X123470600Y-84445489D01*
X123470600Y-84445489D02*
X123399171Y-84516918D01*
X123399171Y-84516918D02*
X123470600Y-84588346D01*
X123470600Y-84588346D02*
X123542028Y-84516918D01*
X123542028Y-84516918D02*
X123399171Y-84516918D01*
X123399171Y-81874060D02*
X123399171Y-82731203D01*
X123399171Y-82302632D02*
X124899171Y-82302632D01*
X124899171Y-82302632D02*
X124684885Y-82445489D01*
X124684885Y-82445489D02*
X124542028Y-82588346D01*
X124542028Y-82588346D02*
X124470600Y-82731203D01*
X122899171Y-79659775D02*
X122899171Y-80016918D01*
X122899171Y-80016918D02*
X125042028Y-80016918D01*
X125042028Y-80016918D02*
X125042028Y-79659775D01*
X124756314Y-79159775D02*
X124827742Y-79088347D01*
X124827742Y-79088347D02*
X124899171Y-78945490D01*
X124899171Y-78945490D02*
X124899171Y-78588347D01*
X124899171Y-78588347D02*
X124827742Y-78445490D01*
X124827742Y-78445490D02*
X124756314Y-78374061D01*
X124756314Y-78374061D02*
X124613457Y-78302632D01*
X124613457Y-78302632D02*
X124470600Y-78302632D01*
X124470600Y-78302632D02*
X124256314Y-78374061D01*
X124256314Y-78374061D02*
X123399171Y-79231204D01*
X123399171Y-79231204D02*
X123399171Y-78302632D01*
X124899171Y-77374061D02*
X124899171Y-77231204D01*
X124899171Y-77231204D02*
X124827742Y-77088347D01*
X124827742Y-77088347D02*
X124756314Y-77016919D01*
X124756314Y-77016919D02*
X124613457Y-76945490D01*
X124613457Y-76945490D02*
X124327742Y-76874061D01*
X124327742Y-76874061D02*
X123970600Y-76874061D01*
X123970600Y-76874061D02*
X123684885Y-76945490D01*
X123684885Y-76945490D02*
X123542028Y-77016919D01*
X123542028Y-77016919D02*
X123470600Y-77088347D01*
X123470600Y-77088347D02*
X123399171Y-77231204D01*
X123399171Y-77231204D02*
X123399171Y-77374061D01*
X123399171Y-77374061D02*
X123470600Y-77516919D01*
X123470600Y-77516919D02*
X123542028Y-77588347D01*
X123542028Y-77588347D02*
X123684885Y-77659776D01*
X123684885Y-77659776D02*
X123970600Y-77731204D01*
X123970600Y-77731204D02*
X124327742Y-77731204D01*
X124327742Y-77731204D02*
X124613457Y-77659776D01*
X124613457Y-77659776D02*
X124756314Y-77588347D01*
X124756314Y-77588347D02*
X124827742Y-77516919D01*
X124827742Y-77516919D02*
X124899171Y-77374061D01*
X124756314Y-76302633D02*
X124827742Y-76231205D01*
X124827742Y-76231205D02*
X124899171Y-76088348D01*
X124899171Y-76088348D02*
X124899171Y-75731205D01*
X124899171Y-75731205D02*
X124827742Y-75588348D01*
X124827742Y-75588348D02*
X124756314Y-75516919D01*
X124756314Y-75516919D02*
X124613457Y-75445490D01*
X124613457Y-75445490D02*
X124470600Y-75445490D01*
X124470600Y-75445490D02*
X124256314Y-75516919D01*
X124256314Y-75516919D02*
X123399171Y-76374062D01*
X123399171Y-76374062D02*
X123399171Y-75445490D01*
X124399171Y-74159777D02*
X123399171Y-74159777D01*
X124970600Y-74516919D02*
X123899171Y-74874062D01*
X123899171Y-74874062D02*
X123899171Y-73945491D01*
X123970600Y-73374063D02*
X123970600Y-72231206D01*
X123399171Y-70731205D02*
X123399171Y-71588348D01*
X123399171Y-71159777D02*
X124899171Y-71159777D01*
X124899171Y-71159777D02*
X124684885Y-71302634D01*
X124684885Y-71302634D02*
X124542028Y-71445491D01*
X124542028Y-71445491D02*
X124470600Y-71588348D01*
X123399171Y-69302634D02*
X123399171Y-70159777D01*
X123399171Y-69731206D02*
X124899171Y-69731206D01*
X124899171Y-69731206D02*
X124684885Y-69874063D01*
X124684885Y-69874063D02*
X124542028Y-70016920D01*
X124542028Y-70016920D02*
X124470600Y-70159777D01*
X123970600Y-68659778D02*
X123970600Y-67516921D01*
X124756314Y-66874063D02*
X124827742Y-66802635D01*
X124827742Y-66802635D02*
X124899171Y-66659778D01*
X124899171Y-66659778D02*
X124899171Y-66302635D01*
X124899171Y-66302635D02*
X124827742Y-66159778D01*
X124827742Y-66159778D02*
X124756314Y-66088349D01*
X124756314Y-66088349D02*
X124613457Y-66016920D01*
X124613457Y-66016920D02*
X124470600Y-66016920D01*
X124470600Y-66016920D02*
X124256314Y-66088349D01*
X124256314Y-66088349D02*
X123399171Y-66945492D01*
X123399171Y-66945492D02*
X123399171Y-66016920D01*
X124399171Y-64731207D02*
X123399171Y-64731207D01*
X124970600Y-65088349D02*
X123899171Y-65445492D01*
X123899171Y-65445492D02*
X123899171Y-64516921D01*
X122899171Y-64088350D02*
X122899171Y-63731207D01*
X122899171Y-63731207D02*
X125042028Y-63731207D01*
X125042028Y-63731207D02*
X125042028Y-64088350D01*
D11*
X112211428Y-68054819D02*
X112782856Y-68054819D01*
X112497142Y-68054819D02*
X112497142Y-67054819D01*
X112497142Y-67054819D02*
X112592380Y-67197676D01*
X112592380Y-67197676D02*
X112687618Y-67292914D01*
X112687618Y-67292914D02*
X112782856Y-67340533D01*
X111592380Y-67054819D02*
X111497142Y-67054819D01*
X111497142Y-67054819D02*
X111401904Y-67102438D01*
X111401904Y-67102438D02*
X111354285Y-67150057D01*
X111354285Y-67150057D02*
X111306666Y-67245295D01*
X111306666Y-67245295D02*
X111259047Y-67435771D01*
X111259047Y-67435771D02*
X111259047Y-67673866D01*
X111259047Y-67673866D02*
X111306666Y-67864342D01*
X111306666Y-67864342D02*
X111354285Y-67959580D01*
X111354285Y-67959580D02*
X111401904Y-68007200D01*
X111401904Y-68007200D02*
X111497142Y-68054819D01*
X111497142Y-68054819D02*
X111592380Y-68054819D01*
X111592380Y-68054819D02*
X111687618Y-68007200D01*
X111687618Y-68007200D02*
X111735237Y-67959580D01*
X111735237Y-67959580D02*
X111782856Y-67864342D01*
X111782856Y-67864342D02*
X111830475Y-67673866D01*
X111830475Y-67673866D02*
X111830475Y-67435771D01*
X111830475Y-67435771D02*
X111782856Y-67245295D01*
X111782856Y-67245295D02*
X111735237Y-67150057D01*
X111735237Y-67150057D02*
X111687618Y-67102438D01*
X111687618Y-67102438D02*
X111592380Y-67054819D01*
X110830475Y-67388152D02*
X110830475Y-68054819D01*
X110830475Y-67483390D02*
X110782856Y-67435771D01*
X110782856Y-67435771D02*
X110687618Y-67388152D01*
X110687618Y-67388152D02*
X110544761Y-67388152D01*
X110544761Y-67388152D02*
X110449523Y-67435771D01*
X110449523Y-67435771D02*
X110401904Y-67531009D01*
X110401904Y-67531009D02*
X110401904Y-68054819D01*
X109592380Y-67531009D02*
X109925713Y-67531009D01*
X109925713Y-68054819D02*
X109925713Y-67054819D01*
X109925713Y-67054819D02*
X109449523Y-67054819D01*
X110982857Y-122054819D02*
X111459047Y-122054819D01*
X111459047Y-122054819D02*
X111506666Y-122531009D01*
X111506666Y-122531009D02*
X111459047Y-122483390D01*
X111459047Y-122483390D02*
X111363809Y-122435771D01*
X111363809Y-122435771D02*
X111125714Y-122435771D01*
X111125714Y-122435771D02*
X111030476Y-122483390D01*
X111030476Y-122483390D02*
X110982857Y-122531009D01*
X110982857Y-122531009D02*
X110935238Y-122626247D01*
X110935238Y-122626247D02*
X110935238Y-122864342D01*
X110935238Y-122864342D02*
X110982857Y-122959580D01*
X110982857Y-122959580D02*
X111030476Y-123007200D01*
X111030476Y-123007200D02*
X111125714Y-123054819D01*
X111125714Y-123054819D02*
X111363809Y-123054819D01*
X111363809Y-123054819D02*
X111459047Y-123007200D01*
X111459047Y-123007200D02*
X111506666Y-122959580D01*
X110078095Y-122388152D02*
X110078095Y-123054819D01*
X110506666Y-122388152D02*
X110506666Y-122911961D01*
X110506666Y-122911961D02*
X110459047Y-123007200D01*
X110459047Y-123007200D02*
X110363809Y-123054819D01*
X110363809Y-123054819D02*
X110220952Y-123054819D01*
X110220952Y-123054819D02*
X110125714Y-123007200D01*
X110125714Y-123007200D02*
X110078095Y-122959580D01*
X109268571Y-122531009D02*
X109601904Y-122531009D01*
X109601904Y-123054819D02*
X109601904Y-122054819D01*
X109601904Y-122054819D02*
X109125714Y-122054819D01*
X107190957Y-37454819D02*
X107667147Y-37454819D01*
X107667147Y-37454819D02*
X107667147Y-36454819D01*
X106857623Y-36931009D02*
X106524290Y-36931009D01*
X106381433Y-37454819D02*
X106857623Y-37454819D01*
X106857623Y-37454819D02*
X106857623Y-36454819D01*
X106857623Y-36454819D02*
X106381433Y-36454819D01*
X105952861Y-37454819D02*
X105952861Y-36454819D01*
X105952861Y-36454819D02*
X105714766Y-36454819D01*
X105714766Y-36454819D02*
X105571909Y-36502438D01*
X105571909Y-36502438D02*
X105476671Y-36597676D01*
X105476671Y-36597676D02*
X105429052Y-36692914D01*
X105429052Y-36692914D02*
X105381433Y-36883390D01*
X105381433Y-36883390D02*
X105381433Y-37026247D01*
X105381433Y-37026247D02*
X105429052Y-37216723D01*
X105429052Y-37216723D02*
X105476671Y-37311961D01*
X105476671Y-37311961D02*
X105571909Y-37407200D01*
X105571909Y-37407200D02*
X105714766Y-37454819D01*
X105714766Y-37454819D02*
X105952861Y-37454819D01*
X101382857Y-99254819D02*
X101859047Y-99254819D01*
X101859047Y-99254819D02*
X101859047Y-98254819D01*
X101049523Y-98731009D02*
X100716190Y-98731009D01*
X100573333Y-99254819D02*
X101049523Y-99254819D01*
X101049523Y-99254819D02*
X101049523Y-98254819D01*
X101049523Y-98254819D02*
X100573333Y-98254819D01*
X100144761Y-99254819D02*
X100144761Y-98254819D01*
X100144761Y-98254819D02*
X99906666Y-98254819D01*
X99906666Y-98254819D02*
X99763809Y-98302438D01*
X99763809Y-98302438D02*
X99668571Y-98397676D01*
X99668571Y-98397676D02*
X99620952Y-98492914D01*
X99620952Y-98492914D02*
X99573333Y-98683390D01*
X99573333Y-98683390D02*
X99573333Y-98826247D01*
X99573333Y-98826247D02*
X99620952Y-99016723D01*
X99620952Y-99016723D02*
X99668571Y-99111961D01*
X99668571Y-99111961D02*
X99763809Y-99207200D01*
X99763809Y-99207200D02*
X99906666Y-99254819D01*
X99906666Y-99254819D02*
X100144761Y-99254819D01*
X100982857Y-115054819D02*
X101459047Y-115054819D01*
X101459047Y-115054819D02*
X101459047Y-114054819D01*
X100649523Y-114531009D02*
X100316190Y-114531009D01*
X100173333Y-115054819D02*
X100649523Y-115054819D01*
X100649523Y-115054819D02*
X100649523Y-114054819D01*
X100649523Y-114054819D02*
X100173333Y-114054819D01*
X99744761Y-115054819D02*
X99744761Y-114054819D01*
X99744761Y-114054819D02*
X99506666Y-114054819D01*
X99506666Y-114054819D02*
X99363809Y-114102438D01*
X99363809Y-114102438D02*
X99268571Y-114197676D01*
X99268571Y-114197676D02*
X99220952Y-114292914D01*
X99220952Y-114292914D02*
X99173333Y-114483390D01*
X99173333Y-114483390D02*
X99173333Y-114626247D01*
X99173333Y-114626247D02*
X99220952Y-114816723D01*
X99220952Y-114816723D02*
X99268571Y-114911961D01*
X99268571Y-114911961D02*
X99363809Y-115007200D01*
X99363809Y-115007200D02*
X99506666Y-115054819D01*
X99506666Y-115054819D02*
X99744761Y-115054819D01*
X107425713Y-131454819D02*
X106806666Y-131454819D01*
X106806666Y-131454819D02*
X107139999Y-131835771D01*
X107139999Y-131835771D02*
X106997142Y-131835771D01*
X106997142Y-131835771D02*
X106901904Y-131883390D01*
X106901904Y-131883390D02*
X106854285Y-131931009D01*
X106854285Y-131931009D02*
X106806666Y-132026247D01*
X106806666Y-132026247D02*
X106806666Y-132264342D01*
X106806666Y-132264342D02*
X106854285Y-132359580D01*
X106854285Y-132359580D02*
X106901904Y-132407200D01*
X106901904Y-132407200D02*
X106997142Y-132454819D01*
X106997142Y-132454819D02*
X107282856Y-132454819D01*
X107282856Y-132454819D02*
X107378094Y-132407200D01*
X107378094Y-132407200D02*
X107425713Y-132359580D01*
X106473332Y-131454819D02*
X105854285Y-131454819D01*
X105854285Y-131454819D02*
X106187618Y-131835771D01*
X106187618Y-131835771D02*
X106044761Y-131835771D01*
X106044761Y-131835771D02*
X105949523Y-131883390D01*
X105949523Y-131883390D02*
X105901904Y-131931009D01*
X105901904Y-131931009D02*
X105854285Y-132026247D01*
X105854285Y-132026247D02*
X105854285Y-132264342D01*
X105854285Y-132264342D02*
X105901904Y-132359580D01*
X105901904Y-132359580D02*
X105949523Y-132407200D01*
X105949523Y-132407200D02*
X106044761Y-132454819D01*
X106044761Y-132454819D02*
X106330475Y-132454819D01*
X106330475Y-132454819D02*
X106425713Y-132407200D01*
X106425713Y-132407200D02*
X106473332Y-132359580D01*
X105235237Y-131454819D02*
X105139999Y-131454819D01*
X105139999Y-131454819D02*
X105044761Y-131502438D01*
X105044761Y-131502438D02*
X104997142Y-131550057D01*
X104997142Y-131550057D02*
X104949523Y-131645295D01*
X104949523Y-131645295D02*
X104901904Y-131835771D01*
X104901904Y-131835771D02*
X104901904Y-132073866D01*
X104901904Y-132073866D02*
X104949523Y-132264342D01*
X104949523Y-132264342D02*
X104997142Y-132359580D01*
X104997142Y-132359580D02*
X105044761Y-132407200D01*
X105044761Y-132407200D02*
X105139999Y-132454819D01*
X105139999Y-132454819D02*
X105235237Y-132454819D01*
X105235237Y-132454819D02*
X105330475Y-132407200D01*
X105330475Y-132407200D02*
X105378094Y-132359580D01*
X105378094Y-132359580D02*
X105425713Y-132264342D01*
X105425713Y-132264342D02*
X105473332Y-132073866D01*
X105473332Y-132073866D02*
X105473332Y-131835771D01*
X105473332Y-131835771D02*
X105425713Y-131645295D01*
X105425713Y-131645295D02*
X105378094Y-131550057D01*
X105378094Y-131550057D02*
X105330475Y-131502438D01*
X105330475Y-131502438D02*
X105235237Y-131454819D01*
X107465713Y-137854819D02*
X106846666Y-137854819D01*
X106846666Y-137854819D02*
X107179999Y-138235771D01*
X107179999Y-138235771D02*
X107037142Y-138235771D01*
X107037142Y-138235771D02*
X106941904Y-138283390D01*
X106941904Y-138283390D02*
X106894285Y-138331009D01*
X106894285Y-138331009D02*
X106846666Y-138426247D01*
X106846666Y-138426247D02*
X106846666Y-138664342D01*
X106846666Y-138664342D02*
X106894285Y-138759580D01*
X106894285Y-138759580D02*
X106941904Y-138807200D01*
X106941904Y-138807200D02*
X107037142Y-138854819D01*
X107037142Y-138854819D02*
X107322856Y-138854819D01*
X107322856Y-138854819D02*
X107418094Y-138807200D01*
X107418094Y-138807200D02*
X107465713Y-138759580D01*
X106513332Y-137854819D02*
X105894285Y-137854819D01*
X105894285Y-137854819D02*
X106227618Y-138235771D01*
X106227618Y-138235771D02*
X106084761Y-138235771D01*
X106084761Y-138235771D02*
X105989523Y-138283390D01*
X105989523Y-138283390D02*
X105941904Y-138331009D01*
X105941904Y-138331009D02*
X105894285Y-138426247D01*
X105894285Y-138426247D02*
X105894285Y-138664342D01*
X105894285Y-138664342D02*
X105941904Y-138759580D01*
X105941904Y-138759580D02*
X105989523Y-138807200D01*
X105989523Y-138807200D02*
X106084761Y-138854819D01*
X106084761Y-138854819D02*
X106370475Y-138854819D01*
X106370475Y-138854819D02*
X106465713Y-138807200D01*
X106465713Y-138807200D02*
X106513332Y-138759580D01*
X105275237Y-137854819D02*
X105179999Y-137854819D01*
X105179999Y-137854819D02*
X105084761Y-137902438D01*
X105084761Y-137902438D02*
X105037142Y-137950057D01*
X105037142Y-137950057D02*
X104989523Y-138045295D01*
X104989523Y-138045295D02*
X104941904Y-138235771D01*
X104941904Y-138235771D02*
X104941904Y-138473866D01*
X104941904Y-138473866D02*
X104989523Y-138664342D01*
X104989523Y-138664342D02*
X105037142Y-138759580D01*
X105037142Y-138759580D02*
X105084761Y-138807200D01*
X105084761Y-138807200D02*
X105179999Y-138854819D01*
X105179999Y-138854819D02*
X105275237Y-138854819D01*
X105275237Y-138854819D02*
X105370475Y-138807200D01*
X105370475Y-138807200D02*
X105418094Y-138759580D01*
X105418094Y-138759580D02*
X105465713Y-138664342D01*
X105465713Y-138664342D02*
X105513332Y-138473866D01*
X105513332Y-138473866D02*
X105513332Y-138235771D01*
X105513332Y-138235771D02*
X105465713Y-138045295D01*
X105465713Y-138045295D02*
X105418094Y-137950057D01*
X105418094Y-137950057D02*
X105370475Y-137902438D01*
X105370475Y-137902438D02*
X105275237Y-137854819D01*
X105842857Y-85454819D02*
X106319047Y-85454819D01*
X106319047Y-85454819D02*
X106319047Y-84454819D01*
X105509523Y-84931009D02*
X105176190Y-84931009D01*
X105033333Y-85454819D02*
X105509523Y-85454819D01*
X105509523Y-85454819D02*
X105509523Y-84454819D01*
X105509523Y-84454819D02*
X105033333Y-84454819D01*
X104604761Y-85454819D02*
X104604761Y-84454819D01*
X104604761Y-84454819D02*
X104366666Y-84454819D01*
X104366666Y-84454819D02*
X104223809Y-84502438D01*
X104223809Y-84502438D02*
X104128571Y-84597676D01*
X104128571Y-84597676D02*
X104080952Y-84692914D01*
X104080952Y-84692914D02*
X104033333Y-84883390D01*
X104033333Y-84883390D02*
X104033333Y-85026247D01*
X104033333Y-85026247D02*
X104080952Y-85216723D01*
X104080952Y-85216723D02*
X104128571Y-85311961D01*
X104128571Y-85311961D02*
X104223809Y-85407200D01*
X104223809Y-85407200D02*
X104366666Y-85454819D01*
X104366666Y-85454819D02*
X104604761Y-85454819D01*
X116778095Y-140274819D02*
X116778095Y-141084342D01*
X116778095Y-141084342D02*
X116825714Y-141179580D01*
X116825714Y-141179580D02*
X116873333Y-141227200D01*
X116873333Y-141227200D02*
X116968571Y-141274819D01*
X116968571Y-141274819D02*
X117159047Y-141274819D01*
X117159047Y-141274819D02*
X117254285Y-141227200D01*
X117254285Y-141227200D02*
X117301904Y-141179580D01*
X117301904Y-141179580D02*
X117349523Y-141084342D01*
X117349523Y-141084342D02*
X117349523Y-140274819D01*
X117778095Y-140370057D02*
X117825714Y-140322438D01*
X117825714Y-140322438D02*
X117920952Y-140274819D01*
X117920952Y-140274819D02*
X118159047Y-140274819D01*
X118159047Y-140274819D02*
X118254285Y-140322438D01*
X118254285Y-140322438D02*
X118301904Y-140370057D01*
X118301904Y-140370057D02*
X118349523Y-140465295D01*
X118349523Y-140465295D02*
X118349523Y-140560533D01*
X118349523Y-140560533D02*
X118301904Y-140703390D01*
X118301904Y-140703390D02*
X117730476Y-141274819D01*
X117730476Y-141274819D02*
X118349523Y-141274819D01*
X113649048Y-135124819D02*
X113649048Y-134124819D01*
X114696666Y-135029580D02*
X114649047Y-135077200D01*
X114649047Y-135077200D02*
X114506190Y-135124819D01*
X114506190Y-135124819D02*
X114410952Y-135124819D01*
X114410952Y-135124819D02*
X114268095Y-135077200D01*
X114268095Y-135077200D02*
X114172857Y-134981961D01*
X114172857Y-134981961D02*
X114125238Y-134886723D01*
X114125238Y-134886723D02*
X114077619Y-134696247D01*
X114077619Y-134696247D02*
X114077619Y-134553390D01*
X114077619Y-134553390D02*
X114125238Y-134362914D01*
X114125238Y-134362914D02*
X114172857Y-134267676D01*
X114172857Y-134267676D02*
X114268095Y-134172438D01*
X114268095Y-134172438D02*
X114410952Y-134124819D01*
X114410952Y-134124819D02*
X114506190Y-134124819D01*
X114506190Y-134124819D02*
X114649047Y-134172438D01*
X114649047Y-134172438D02*
X114696666Y-134220057D01*
X115125238Y-135124819D02*
X115125238Y-134124819D01*
X115125238Y-134124819D02*
X115458571Y-134839104D01*
X115458571Y-134839104D02*
X115791904Y-134124819D01*
X115791904Y-134124819D02*
X115791904Y-135124819D01*
X116172857Y-134124819D02*
X116839523Y-134124819D01*
X116839523Y-134124819D02*
X116410952Y-135124819D01*
X117696666Y-134124819D02*
X117220476Y-134124819D01*
X117220476Y-134124819D02*
X117172857Y-134601009D01*
X117172857Y-134601009D02*
X117220476Y-134553390D01*
X117220476Y-134553390D02*
X117315714Y-134505771D01*
X117315714Y-134505771D02*
X117553809Y-134505771D01*
X117553809Y-134505771D02*
X117649047Y-134553390D01*
X117649047Y-134553390D02*
X117696666Y-134601009D01*
X117696666Y-134601009D02*
X117744285Y-134696247D01*
X117744285Y-134696247D02*
X117744285Y-134934342D01*
X117744285Y-134934342D02*
X117696666Y-135029580D01*
X117696666Y-135029580D02*
X117649047Y-135077200D01*
X117649047Y-135077200D02*
X117553809Y-135124819D01*
X117553809Y-135124819D02*
X117315714Y-135124819D01*
X117315714Y-135124819D02*
X117220476Y-135077200D01*
X117220476Y-135077200D02*
X117172857Y-135029580D01*
X118649047Y-134124819D02*
X118172857Y-134124819D01*
X118172857Y-134124819D02*
X118125238Y-134601009D01*
X118125238Y-134601009D02*
X118172857Y-134553390D01*
X118172857Y-134553390D02*
X118268095Y-134505771D01*
X118268095Y-134505771D02*
X118506190Y-134505771D01*
X118506190Y-134505771D02*
X118601428Y-134553390D01*
X118601428Y-134553390D02*
X118649047Y-134601009D01*
X118649047Y-134601009D02*
X118696666Y-134696247D01*
X118696666Y-134696247D02*
X118696666Y-134934342D01*
X118696666Y-134934342D02*
X118649047Y-135029580D01*
X118649047Y-135029580D02*
X118601428Y-135077200D01*
X118601428Y-135077200D02*
X118506190Y-135124819D01*
X118506190Y-135124819D02*
X118268095Y-135124819D01*
X118268095Y-135124819D02*
X118172857Y-135077200D01*
X118172857Y-135077200D02*
X118125238Y-135029580D01*
X119601428Y-134124819D02*
X119125238Y-134124819D01*
X119125238Y-134124819D02*
X119077619Y-134601009D01*
X119077619Y-134601009D02*
X119125238Y-134553390D01*
X119125238Y-134553390D02*
X119220476Y-134505771D01*
X119220476Y-134505771D02*
X119458571Y-134505771D01*
X119458571Y-134505771D02*
X119553809Y-134553390D01*
X119553809Y-134553390D02*
X119601428Y-134601009D01*
X119601428Y-134601009D02*
X119649047Y-134696247D01*
X119649047Y-134696247D02*
X119649047Y-134934342D01*
X119649047Y-134934342D02*
X119601428Y-135029580D01*
X119601428Y-135029580D02*
X119553809Y-135077200D01*
X119553809Y-135077200D02*
X119458571Y-135124819D01*
X119458571Y-135124819D02*
X119220476Y-135124819D01*
X119220476Y-135124819D02*
X119125238Y-135077200D01*
X119125238Y-135077200D02*
X119077619Y-135029580D01*
X119982381Y-135124819D02*
X120506190Y-134458152D01*
X119982381Y-134458152D02*
X120506190Y-135124819D01*
X120887143Y-135124819D02*
X120887143Y-134124819D01*
X120887143Y-134124819D02*
X121268095Y-134124819D01*
X121268095Y-134124819D02*
X121363333Y-134172438D01*
X121363333Y-134172438D02*
X121410952Y-134220057D01*
X121410952Y-134220057D02*
X121458571Y-134315295D01*
X121458571Y-134315295D02*
X121458571Y-134458152D01*
X121458571Y-134458152D02*
X121410952Y-134553390D01*
X121410952Y-134553390D02*
X121363333Y-134601009D01*
X121363333Y-134601009D02*
X121268095Y-134648628D01*
X121268095Y-134648628D02*
X120887143Y-134648628D01*
X111712857Y-114854819D02*
X112189047Y-114854819D01*
X112189047Y-114854819D02*
X112189047Y-113854819D01*
X111379523Y-114331009D02*
X111046190Y-114331009D01*
X110903333Y-114854819D02*
X111379523Y-114854819D01*
X111379523Y-114854819D02*
X111379523Y-113854819D01*
X111379523Y-113854819D02*
X110903333Y-113854819D01*
X110474761Y-114854819D02*
X110474761Y-113854819D01*
X110474761Y-113854819D02*
X110236666Y-113854819D01*
X110236666Y-113854819D02*
X110093809Y-113902438D01*
X110093809Y-113902438D02*
X109998571Y-113997676D01*
X109998571Y-113997676D02*
X109950952Y-114092914D01*
X109950952Y-114092914D02*
X109903333Y-114283390D01*
X109903333Y-114283390D02*
X109903333Y-114426247D01*
X109903333Y-114426247D02*
X109950952Y-114616723D01*
X109950952Y-114616723D02*
X109998571Y-114711961D01*
X109998571Y-114711961D02*
X110093809Y-114807200D01*
X110093809Y-114807200D02*
X110236666Y-114854819D01*
X110236666Y-114854819D02*
X110474761Y-114854819D01*
X117870857Y-69454819D02*
X118347047Y-69454819D01*
X118347047Y-69454819D02*
X118347047Y-68454819D01*
X117537523Y-68931009D02*
X117204190Y-68931009D01*
X117061333Y-69454819D02*
X117537523Y-69454819D01*
X117537523Y-69454819D02*
X117537523Y-68454819D01*
X117537523Y-68454819D02*
X117061333Y-68454819D01*
X116632761Y-69454819D02*
X116632761Y-68454819D01*
X116632761Y-68454819D02*
X116394666Y-68454819D01*
X116394666Y-68454819D02*
X116251809Y-68502438D01*
X116251809Y-68502438D02*
X116156571Y-68597676D01*
X116156571Y-68597676D02*
X116108952Y-68692914D01*
X116108952Y-68692914D02*
X116061333Y-68883390D01*
X116061333Y-68883390D02*
X116061333Y-69026247D01*
X116061333Y-69026247D02*
X116108952Y-69216723D01*
X116108952Y-69216723D02*
X116156571Y-69311961D01*
X116156571Y-69311961D02*
X116251809Y-69407200D01*
X116251809Y-69407200D02*
X116394666Y-69454819D01*
X116394666Y-69454819D02*
X116632761Y-69454819D01*
X93782857Y-104454819D02*
X94259047Y-104454819D01*
X94259047Y-104454819D02*
X94259047Y-103454819D01*
X93449523Y-103931009D02*
X93116190Y-103931009D01*
X92973333Y-104454819D02*
X93449523Y-104454819D01*
X93449523Y-104454819D02*
X93449523Y-103454819D01*
X93449523Y-103454819D02*
X92973333Y-103454819D01*
X92544761Y-104454819D02*
X92544761Y-103454819D01*
X92544761Y-103454819D02*
X92306666Y-103454819D01*
X92306666Y-103454819D02*
X92163809Y-103502438D01*
X92163809Y-103502438D02*
X92068571Y-103597676D01*
X92068571Y-103597676D02*
X92020952Y-103692914D01*
X92020952Y-103692914D02*
X91973333Y-103883390D01*
X91973333Y-103883390D02*
X91973333Y-104026247D01*
X91973333Y-104026247D02*
X92020952Y-104216723D01*
X92020952Y-104216723D02*
X92068571Y-104311961D01*
X92068571Y-104311961D02*
X92163809Y-104407200D01*
X92163809Y-104407200D02*
X92306666Y-104454819D01*
X92306666Y-104454819D02*
X92544761Y-104454819D01*
X107425713Y-86654819D02*
X106806666Y-86654819D01*
X106806666Y-86654819D02*
X107139999Y-87035771D01*
X107139999Y-87035771D02*
X106997142Y-87035771D01*
X106997142Y-87035771D02*
X106901904Y-87083390D01*
X106901904Y-87083390D02*
X106854285Y-87131009D01*
X106854285Y-87131009D02*
X106806666Y-87226247D01*
X106806666Y-87226247D02*
X106806666Y-87464342D01*
X106806666Y-87464342D02*
X106854285Y-87559580D01*
X106854285Y-87559580D02*
X106901904Y-87607200D01*
X106901904Y-87607200D02*
X106997142Y-87654819D01*
X106997142Y-87654819D02*
X107282856Y-87654819D01*
X107282856Y-87654819D02*
X107378094Y-87607200D01*
X107378094Y-87607200D02*
X107425713Y-87559580D01*
X106473332Y-86654819D02*
X105854285Y-86654819D01*
X105854285Y-86654819D02*
X106187618Y-87035771D01*
X106187618Y-87035771D02*
X106044761Y-87035771D01*
X106044761Y-87035771D02*
X105949523Y-87083390D01*
X105949523Y-87083390D02*
X105901904Y-87131009D01*
X105901904Y-87131009D02*
X105854285Y-87226247D01*
X105854285Y-87226247D02*
X105854285Y-87464342D01*
X105854285Y-87464342D02*
X105901904Y-87559580D01*
X105901904Y-87559580D02*
X105949523Y-87607200D01*
X105949523Y-87607200D02*
X106044761Y-87654819D01*
X106044761Y-87654819D02*
X106330475Y-87654819D01*
X106330475Y-87654819D02*
X106425713Y-87607200D01*
X106425713Y-87607200D02*
X106473332Y-87559580D01*
X105235237Y-86654819D02*
X105139999Y-86654819D01*
X105139999Y-86654819D02*
X105044761Y-86702438D01*
X105044761Y-86702438D02*
X104997142Y-86750057D01*
X104997142Y-86750057D02*
X104949523Y-86845295D01*
X104949523Y-86845295D02*
X104901904Y-87035771D01*
X104901904Y-87035771D02*
X104901904Y-87273866D01*
X104901904Y-87273866D02*
X104949523Y-87464342D01*
X104949523Y-87464342D02*
X104997142Y-87559580D01*
X104997142Y-87559580D02*
X105044761Y-87607200D01*
X105044761Y-87607200D02*
X105139999Y-87654819D01*
X105139999Y-87654819D02*
X105235237Y-87654819D01*
X105235237Y-87654819D02*
X105330475Y-87607200D01*
X105330475Y-87607200D02*
X105378094Y-87559580D01*
X105378094Y-87559580D02*
X105425713Y-87464342D01*
X105425713Y-87464342D02*
X105473332Y-87273866D01*
X105473332Y-87273866D02*
X105473332Y-87035771D01*
X105473332Y-87035771D02*
X105425713Y-86845295D01*
X105425713Y-86845295D02*
X105378094Y-86750057D01*
X105378094Y-86750057D02*
X105330475Y-86702438D01*
X105330475Y-86702438D02*
X105235237Y-86654819D01*
X111825713Y-97254819D02*
X111206666Y-97254819D01*
X111206666Y-97254819D02*
X111539999Y-97635771D01*
X111539999Y-97635771D02*
X111397142Y-97635771D01*
X111397142Y-97635771D02*
X111301904Y-97683390D01*
X111301904Y-97683390D02*
X111254285Y-97731009D01*
X111254285Y-97731009D02*
X111206666Y-97826247D01*
X111206666Y-97826247D02*
X111206666Y-98064342D01*
X111206666Y-98064342D02*
X111254285Y-98159580D01*
X111254285Y-98159580D02*
X111301904Y-98207200D01*
X111301904Y-98207200D02*
X111397142Y-98254819D01*
X111397142Y-98254819D02*
X111682856Y-98254819D01*
X111682856Y-98254819D02*
X111778094Y-98207200D01*
X111778094Y-98207200D02*
X111825713Y-98159580D01*
X110873332Y-97254819D02*
X110254285Y-97254819D01*
X110254285Y-97254819D02*
X110587618Y-97635771D01*
X110587618Y-97635771D02*
X110444761Y-97635771D01*
X110444761Y-97635771D02*
X110349523Y-97683390D01*
X110349523Y-97683390D02*
X110301904Y-97731009D01*
X110301904Y-97731009D02*
X110254285Y-97826247D01*
X110254285Y-97826247D02*
X110254285Y-98064342D01*
X110254285Y-98064342D02*
X110301904Y-98159580D01*
X110301904Y-98159580D02*
X110349523Y-98207200D01*
X110349523Y-98207200D02*
X110444761Y-98254819D01*
X110444761Y-98254819D02*
X110730475Y-98254819D01*
X110730475Y-98254819D02*
X110825713Y-98207200D01*
X110825713Y-98207200D02*
X110873332Y-98159580D01*
X109635237Y-97254819D02*
X109539999Y-97254819D01*
X109539999Y-97254819D02*
X109444761Y-97302438D01*
X109444761Y-97302438D02*
X109397142Y-97350057D01*
X109397142Y-97350057D02*
X109349523Y-97445295D01*
X109349523Y-97445295D02*
X109301904Y-97635771D01*
X109301904Y-97635771D02*
X109301904Y-97873866D01*
X109301904Y-97873866D02*
X109349523Y-98064342D01*
X109349523Y-98064342D02*
X109397142Y-98159580D01*
X109397142Y-98159580D02*
X109444761Y-98207200D01*
X109444761Y-98207200D02*
X109539999Y-98254819D01*
X109539999Y-98254819D02*
X109635237Y-98254819D01*
X109635237Y-98254819D02*
X109730475Y-98207200D01*
X109730475Y-98207200D02*
X109778094Y-98159580D01*
X109778094Y-98159580D02*
X109825713Y-98064342D01*
X109825713Y-98064342D02*
X109873332Y-97873866D01*
X109873332Y-97873866D02*
X109873332Y-97635771D01*
X109873332Y-97635771D02*
X109825713Y-97445295D01*
X109825713Y-97445295D02*
X109778094Y-97350057D01*
X109778094Y-97350057D02*
X109730475Y-97302438D01*
X109730475Y-97302438D02*
X109635237Y-97254819D01*
X107625713Y-53254819D02*
X107006666Y-53254819D01*
X107006666Y-53254819D02*
X107339999Y-53635771D01*
X107339999Y-53635771D02*
X107197142Y-53635771D01*
X107197142Y-53635771D02*
X107101904Y-53683390D01*
X107101904Y-53683390D02*
X107054285Y-53731009D01*
X107054285Y-53731009D02*
X107006666Y-53826247D01*
X107006666Y-53826247D02*
X107006666Y-54064342D01*
X107006666Y-54064342D02*
X107054285Y-54159580D01*
X107054285Y-54159580D02*
X107101904Y-54207200D01*
X107101904Y-54207200D02*
X107197142Y-54254819D01*
X107197142Y-54254819D02*
X107482856Y-54254819D01*
X107482856Y-54254819D02*
X107578094Y-54207200D01*
X107578094Y-54207200D02*
X107625713Y-54159580D01*
X106673332Y-53254819D02*
X106054285Y-53254819D01*
X106054285Y-53254819D02*
X106387618Y-53635771D01*
X106387618Y-53635771D02*
X106244761Y-53635771D01*
X106244761Y-53635771D02*
X106149523Y-53683390D01*
X106149523Y-53683390D02*
X106101904Y-53731009D01*
X106101904Y-53731009D02*
X106054285Y-53826247D01*
X106054285Y-53826247D02*
X106054285Y-54064342D01*
X106054285Y-54064342D02*
X106101904Y-54159580D01*
X106101904Y-54159580D02*
X106149523Y-54207200D01*
X106149523Y-54207200D02*
X106244761Y-54254819D01*
X106244761Y-54254819D02*
X106530475Y-54254819D01*
X106530475Y-54254819D02*
X106625713Y-54207200D01*
X106625713Y-54207200D02*
X106673332Y-54159580D01*
X105435237Y-53254819D02*
X105339999Y-53254819D01*
X105339999Y-53254819D02*
X105244761Y-53302438D01*
X105244761Y-53302438D02*
X105197142Y-53350057D01*
X105197142Y-53350057D02*
X105149523Y-53445295D01*
X105149523Y-53445295D02*
X105101904Y-53635771D01*
X105101904Y-53635771D02*
X105101904Y-53873866D01*
X105101904Y-53873866D02*
X105149523Y-54064342D01*
X105149523Y-54064342D02*
X105197142Y-54159580D01*
X105197142Y-54159580D02*
X105244761Y-54207200D01*
X105244761Y-54207200D02*
X105339999Y-54254819D01*
X105339999Y-54254819D02*
X105435237Y-54254819D01*
X105435237Y-54254819D02*
X105530475Y-54207200D01*
X105530475Y-54207200D02*
X105578094Y-54159580D01*
X105578094Y-54159580D02*
X105625713Y-54064342D01*
X105625713Y-54064342D02*
X105673332Y-53873866D01*
X105673332Y-53873866D02*
X105673332Y-53635771D01*
X105673332Y-53635771D02*
X105625713Y-53445295D01*
X105625713Y-53445295D02*
X105578094Y-53350057D01*
X105578094Y-53350057D02*
X105530475Y-53302438D01*
X105530475Y-53302438D02*
X105435237Y-53254819D01*
X107425713Y-134654819D02*
X106806666Y-134654819D01*
X106806666Y-134654819D02*
X107139999Y-135035771D01*
X107139999Y-135035771D02*
X106997142Y-135035771D01*
X106997142Y-135035771D02*
X106901904Y-135083390D01*
X106901904Y-135083390D02*
X106854285Y-135131009D01*
X106854285Y-135131009D02*
X106806666Y-135226247D01*
X106806666Y-135226247D02*
X106806666Y-135464342D01*
X106806666Y-135464342D02*
X106854285Y-135559580D01*
X106854285Y-135559580D02*
X106901904Y-135607200D01*
X106901904Y-135607200D02*
X106997142Y-135654819D01*
X106997142Y-135654819D02*
X107282856Y-135654819D01*
X107282856Y-135654819D02*
X107378094Y-135607200D01*
X107378094Y-135607200D02*
X107425713Y-135559580D01*
X106473332Y-134654819D02*
X105854285Y-134654819D01*
X105854285Y-134654819D02*
X106187618Y-135035771D01*
X106187618Y-135035771D02*
X106044761Y-135035771D01*
X106044761Y-135035771D02*
X105949523Y-135083390D01*
X105949523Y-135083390D02*
X105901904Y-135131009D01*
X105901904Y-135131009D02*
X105854285Y-135226247D01*
X105854285Y-135226247D02*
X105854285Y-135464342D01*
X105854285Y-135464342D02*
X105901904Y-135559580D01*
X105901904Y-135559580D02*
X105949523Y-135607200D01*
X105949523Y-135607200D02*
X106044761Y-135654819D01*
X106044761Y-135654819D02*
X106330475Y-135654819D01*
X106330475Y-135654819D02*
X106425713Y-135607200D01*
X106425713Y-135607200D02*
X106473332Y-135559580D01*
X105235237Y-134654819D02*
X105139999Y-134654819D01*
X105139999Y-134654819D02*
X105044761Y-134702438D01*
X105044761Y-134702438D02*
X104997142Y-134750057D01*
X104997142Y-134750057D02*
X104949523Y-134845295D01*
X104949523Y-134845295D02*
X104901904Y-135035771D01*
X104901904Y-135035771D02*
X104901904Y-135273866D01*
X104901904Y-135273866D02*
X104949523Y-135464342D01*
X104949523Y-135464342D02*
X104997142Y-135559580D01*
X104997142Y-135559580D02*
X105044761Y-135607200D01*
X105044761Y-135607200D02*
X105139999Y-135654819D01*
X105139999Y-135654819D02*
X105235237Y-135654819D01*
X105235237Y-135654819D02*
X105330475Y-135607200D01*
X105330475Y-135607200D02*
X105378094Y-135559580D01*
X105378094Y-135559580D02*
X105425713Y-135464342D01*
X105425713Y-135464342D02*
X105473332Y-135273866D01*
X105473332Y-135273866D02*
X105473332Y-135035771D01*
X105473332Y-135035771D02*
X105425713Y-134845295D01*
X105425713Y-134845295D02*
X105378094Y-134750057D01*
X105378094Y-134750057D02*
X105330475Y-134702438D01*
X105330475Y-134702438D02*
X105235237Y-134654819D01*
X106842857Y-45454819D02*
X107319047Y-45454819D01*
X107319047Y-45454819D02*
X107319047Y-44454819D01*
X106509523Y-44931009D02*
X106176190Y-44931009D01*
X106033333Y-45454819D02*
X106509523Y-45454819D01*
X106509523Y-45454819D02*
X106509523Y-44454819D01*
X106509523Y-44454819D02*
X106033333Y-44454819D01*
X105604761Y-45454819D02*
X105604761Y-44454819D01*
X105604761Y-44454819D02*
X105366666Y-44454819D01*
X105366666Y-44454819D02*
X105223809Y-44502438D01*
X105223809Y-44502438D02*
X105128571Y-44597676D01*
X105128571Y-44597676D02*
X105080952Y-44692914D01*
X105080952Y-44692914D02*
X105033333Y-44883390D01*
X105033333Y-44883390D02*
X105033333Y-45026247D01*
X105033333Y-45026247D02*
X105080952Y-45216723D01*
X105080952Y-45216723D02*
X105128571Y-45311961D01*
X105128571Y-45311961D02*
X105223809Y-45407200D01*
X105223809Y-45407200D02*
X105366666Y-45454819D01*
X105366666Y-45454819D02*
X105604761Y-45454819D01*
X107425713Y-128454819D02*
X106806666Y-128454819D01*
X106806666Y-128454819D02*
X107139999Y-128835771D01*
X107139999Y-128835771D02*
X106997142Y-128835771D01*
X106997142Y-128835771D02*
X106901904Y-128883390D01*
X106901904Y-128883390D02*
X106854285Y-128931009D01*
X106854285Y-128931009D02*
X106806666Y-129026247D01*
X106806666Y-129026247D02*
X106806666Y-129264342D01*
X106806666Y-129264342D02*
X106854285Y-129359580D01*
X106854285Y-129359580D02*
X106901904Y-129407200D01*
X106901904Y-129407200D02*
X106997142Y-129454819D01*
X106997142Y-129454819D02*
X107282856Y-129454819D01*
X107282856Y-129454819D02*
X107378094Y-129407200D01*
X107378094Y-129407200D02*
X107425713Y-129359580D01*
X106473332Y-128454819D02*
X105854285Y-128454819D01*
X105854285Y-128454819D02*
X106187618Y-128835771D01*
X106187618Y-128835771D02*
X106044761Y-128835771D01*
X106044761Y-128835771D02*
X105949523Y-128883390D01*
X105949523Y-128883390D02*
X105901904Y-128931009D01*
X105901904Y-128931009D02*
X105854285Y-129026247D01*
X105854285Y-129026247D02*
X105854285Y-129264342D01*
X105854285Y-129264342D02*
X105901904Y-129359580D01*
X105901904Y-129359580D02*
X105949523Y-129407200D01*
X105949523Y-129407200D02*
X106044761Y-129454819D01*
X106044761Y-129454819D02*
X106330475Y-129454819D01*
X106330475Y-129454819D02*
X106425713Y-129407200D01*
X106425713Y-129407200D02*
X106473332Y-129359580D01*
X105235237Y-128454819D02*
X105139999Y-128454819D01*
X105139999Y-128454819D02*
X105044761Y-128502438D01*
X105044761Y-128502438D02*
X104997142Y-128550057D01*
X104997142Y-128550057D02*
X104949523Y-128645295D01*
X104949523Y-128645295D02*
X104901904Y-128835771D01*
X104901904Y-128835771D02*
X104901904Y-129073866D01*
X104901904Y-129073866D02*
X104949523Y-129264342D01*
X104949523Y-129264342D02*
X104997142Y-129359580D01*
X104997142Y-129359580D02*
X105044761Y-129407200D01*
X105044761Y-129407200D02*
X105139999Y-129454819D01*
X105139999Y-129454819D02*
X105235237Y-129454819D01*
X105235237Y-129454819D02*
X105330475Y-129407200D01*
X105330475Y-129407200D02*
X105378094Y-129359580D01*
X105378094Y-129359580D02*
X105425713Y-129264342D01*
X105425713Y-129264342D02*
X105473332Y-129073866D01*
X105473332Y-129073866D02*
X105473332Y-128835771D01*
X105473332Y-128835771D02*
X105425713Y-128645295D01*
X105425713Y-128645295D02*
X105378094Y-128550057D01*
X105378094Y-128550057D02*
X105330475Y-128502438D01*
X105330475Y-128502438D02*
X105235237Y-128454819D01*
X107225713Y-70894819D02*
X106606666Y-70894819D01*
X106606666Y-70894819D02*
X106939999Y-71275771D01*
X106939999Y-71275771D02*
X106797142Y-71275771D01*
X106797142Y-71275771D02*
X106701904Y-71323390D01*
X106701904Y-71323390D02*
X106654285Y-71371009D01*
X106654285Y-71371009D02*
X106606666Y-71466247D01*
X106606666Y-71466247D02*
X106606666Y-71704342D01*
X106606666Y-71704342D02*
X106654285Y-71799580D01*
X106654285Y-71799580D02*
X106701904Y-71847200D01*
X106701904Y-71847200D02*
X106797142Y-71894819D01*
X106797142Y-71894819D02*
X107082856Y-71894819D01*
X107082856Y-71894819D02*
X107178094Y-71847200D01*
X107178094Y-71847200D02*
X107225713Y-71799580D01*
X106273332Y-70894819D02*
X105654285Y-70894819D01*
X105654285Y-70894819D02*
X105987618Y-71275771D01*
X105987618Y-71275771D02*
X105844761Y-71275771D01*
X105844761Y-71275771D02*
X105749523Y-71323390D01*
X105749523Y-71323390D02*
X105701904Y-71371009D01*
X105701904Y-71371009D02*
X105654285Y-71466247D01*
X105654285Y-71466247D02*
X105654285Y-71704342D01*
X105654285Y-71704342D02*
X105701904Y-71799580D01*
X105701904Y-71799580D02*
X105749523Y-71847200D01*
X105749523Y-71847200D02*
X105844761Y-71894819D01*
X105844761Y-71894819D02*
X106130475Y-71894819D01*
X106130475Y-71894819D02*
X106225713Y-71847200D01*
X106225713Y-71847200D02*
X106273332Y-71799580D01*
X105035237Y-70894819D02*
X104939999Y-70894819D01*
X104939999Y-70894819D02*
X104844761Y-70942438D01*
X104844761Y-70942438D02*
X104797142Y-70990057D01*
X104797142Y-70990057D02*
X104749523Y-71085295D01*
X104749523Y-71085295D02*
X104701904Y-71275771D01*
X104701904Y-71275771D02*
X104701904Y-71513866D01*
X104701904Y-71513866D02*
X104749523Y-71704342D01*
X104749523Y-71704342D02*
X104797142Y-71799580D01*
X104797142Y-71799580D02*
X104844761Y-71847200D01*
X104844761Y-71847200D02*
X104939999Y-71894819D01*
X104939999Y-71894819D02*
X105035237Y-71894819D01*
X105035237Y-71894819D02*
X105130475Y-71847200D01*
X105130475Y-71847200D02*
X105178094Y-71799580D01*
X105178094Y-71799580D02*
X105225713Y-71704342D01*
X105225713Y-71704342D02*
X105273332Y-71513866D01*
X105273332Y-71513866D02*
X105273332Y-71275771D01*
X105273332Y-71275771D02*
X105225713Y-71085295D01*
X105225713Y-71085295D02*
X105178094Y-70990057D01*
X105178094Y-70990057D02*
X105130475Y-70942438D01*
X105130475Y-70942438D02*
X105035237Y-70894819D01*
X107505713Y-107778819D02*
X106886666Y-107778819D01*
X106886666Y-107778819D02*
X107219999Y-108159771D01*
X107219999Y-108159771D02*
X107077142Y-108159771D01*
X107077142Y-108159771D02*
X106981904Y-108207390D01*
X106981904Y-108207390D02*
X106934285Y-108255009D01*
X106934285Y-108255009D02*
X106886666Y-108350247D01*
X106886666Y-108350247D02*
X106886666Y-108588342D01*
X106886666Y-108588342D02*
X106934285Y-108683580D01*
X106934285Y-108683580D02*
X106981904Y-108731200D01*
X106981904Y-108731200D02*
X107077142Y-108778819D01*
X107077142Y-108778819D02*
X107362856Y-108778819D01*
X107362856Y-108778819D02*
X107458094Y-108731200D01*
X107458094Y-108731200D02*
X107505713Y-108683580D01*
X106553332Y-107778819D02*
X105934285Y-107778819D01*
X105934285Y-107778819D02*
X106267618Y-108159771D01*
X106267618Y-108159771D02*
X106124761Y-108159771D01*
X106124761Y-108159771D02*
X106029523Y-108207390D01*
X106029523Y-108207390D02*
X105981904Y-108255009D01*
X105981904Y-108255009D02*
X105934285Y-108350247D01*
X105934285Y-108350247D02*
X105934285Y-108588342D01*
X105934285Y-108588342D02*
X105981904Y-108683580D01*
X105981904Y-108683580D02*
X106029523Y-108731200D01*
X106029523Y-108731200D02*
X106124761Y-108778819D01*
X106124761Y-108778819D02*
X106410475Y-108778819D01*
X106410475Y-108778819D02*
X106505713Y-108731200D01*
X106505713Y-108731200D02*
X106553332Y-108683580D01*
X105315237Y-107778819D02*
X105219999Y-107778819D01*
X105219999Y-107778819D02*
X105124761Y-107826438D01*
X105124761Y-107826438D02*
X105077142Y-107874057D01*
X105077142Y-107874057D02*
X105029523Y-107969295D01*
X105029523Y-107969295D02*
X104981904Y-108159771D01*
X104981904Y-108159771D02*
X104981904Y-108397866D01*
X104981904Y-108397866D02*
X105029523Y-108588342D01*
X105029523Y-108588342D02*
X105077142Y-108683580D01*
X105077142Y-108683580D02*
X105124761Y-108731200D01*
X105124761Y-108731200D02*
X105219999Y-108778819D01*
X105219999Y-108778819D02*
X105315237Y-108778819D01*
X105315237Y-108778819D02*
X105410475Y-108731200D01*
X105410475Y-108731200D02*
X105458094Y-108683580D01*
X105458094Y-108683580D02*
X105505713Y-108588342D01*
X105505713Y-108588342D02*
X105553332Y-108397866D01*
X105553332Y-108397866D02*
X105553332Y-108159771D01*
X105553332Y-108159771D02*
X105505713Y-107969295D01*
X105505713Y-107969295D02*
X105458094Y-107874057D01*
X105458094Y-107874057D02*
X105410475Y-107826438D01*
X105410475Y-107826438D02*
X105315237Y-107778819D01*
X94178095Y-140274819D02*
X94178095Y-141084342D01*
X94178095Y-141084342D02*
X94225714Y-141179580D01*
X94225714Y-141179580D02*
X94273333Y-141227200D01*
X94273333Y-141227200D02*
X94368571Y-141274819D01*
X94368571Y-141274819D02*
X94559047Y-141274819D01*
X94559047Y-141274819D02*
X94654285Y-141227200D01*
X94654285Y-141227200D02*
X94701904Y-141179580D01*
X94701904Y-141179580D02*
X94749523Y-141084342D01*
X94749523Y-141084342D02*
X94749523Y-140274819D01*
X95749523Y-141274819D02*
X95178095Y-141274819D01*
X95463809Y-141274819D02*
X95463809Y-140274819D01*
X95463809Y-140274819D02*
X95368571Y-140417676D01*
X95368571Y-140417676D02*
X95273333Y-140512914D01*
X95273333Y-140512914D02*
X95178095Y-140560533D01*
X91049048Y-135124819D02*
X91049048Y-134124819D01*
X92096666Y-135029580D02*
X92049047Y-135077200D01*
X92049047Y-135077200D02*
X91906190Y-135124819D01*
X91906190Y-135124819D02*
X91810952Y-135124819D01*
X91810952Y-135124819D02*
X91668095Y-135077200D01*
X91668095Y-135077200D02*
X91572857Y-134981961D01*
X91572857Y-134981961D02*
X91525238Y-134886723D01*
X91525238Y-134886723D02*
X91477619Y-134696247D01*
X91477619Y-134696247D02*
X91477619Y-134553390D01*
X91477619Y-134553390D02*
X91525238Y-134362914D01*
X91525238Y-134362914D02*
X91572857Y-134267676D01*
X91572857Y-134267676D02*
X91668095Y-134172438D01*
X91668095Y-134172438D02*
X91810952Y-134124819D01*
X91810952Y-134124819D02*
X91906190Y-134124819D01*
X91906190Y-134124819D02*
X92049047Y-134172438D01*
X92049047Y-134172438D02*
X92096666Y-134220057D01*
X92525238Y-135124819D02*
X92525238Y-134124819D01*
X92525238Y-134124819D02*
X92858571Y-134839104D01*
X92858571Y-134839104D02*
X93191904Y-134124819D01*
X93191904Y-134124819D02*
X93191904Y-135124819D01*
X93572857Y-134124819D02*
X94239523Y-134124819D01*
X94239523Y-134124819D02*
X93810952Y-135124819D01*
X95096666Y-134124819D02*
X94620476Y-134124819D01*
X94620476Y-134124819D02*
X94572857Y-134601009D01*
X94572857Y-134601009D02*
X94620476Y-134553390D01*
X94620476Y-134553390D02*
X94715714Y-134505771D01*
X94715714Y-134505771D02*
X94953809Y-134505771D01*
X94953809Y-134505771D02*
X95049047Y-134553390D01*
X95049047Y-134553390D02*
X95096666Y-134601009D01*
X95096666Y-134601009D02*
X95144285Y-134696247D01*
X95144285Y-134696247D02*
X95144285Y-134934342D01*
X95144285Y-134934342D02*
X95096666Y-135029580D01*
X95096666Y-135029580D02*
X95049047Y-135077200D01*
X95049047Y-135077200D02*
X94953809Y-135124819D01*
X94953809Y-135124819D02*
X94715714Y-135124819D01*
X94715714Y-135124819D02*
X94620476Y-135077200D01*
X94620476Y-135077200D02*
X94572857Y-135029580D01*
X96049047Y-134124819D02*
X95572857Y-134124819D01*
X95572857Y-134124819D02*
X95525238Y-134601009D01*
X95525238Y-134601009D02*
X95572857Y-134553390D01*
X95572857Y-134553390D02*
X95668095Y-134505771D01*
X95668095Y-134505771D02*
X95906190Y-134505771D01*
X95906190Y-134505771D02*
X96001428Y-134553390D01*
X96001428Y-134553390D02*
X96049047Y-134601009D01*
X96049047Y-134601009D02*
X96096666Y-134696247D01*
X96096666Y-134696247D02*
X96096666Y-134934342D01*
X96096666Y-134934342D02*
X96049047Y-135029580D01*
X96049047Y-135029580D02*
X96001428Y-135077200D01*
X96001428Y-135077200D02*
X95906190Y-135124819D01*
X95906190Y-135124819D02*
X95668095Y-135124819D01*
X95668095Y-135124819D02*
X95572857Y-135077200D01*
X95572857Y-135077200D02*
X95525238Y-135029580D01*
X97001428Y-134124819D02*
X96525238Y-134124819D01*
X96525238Y-134124819D02*
X96477619Y-134601009D01*
X96477619Y-134601009D02*
X96525238Y-134553390D01*
X96525238Y-134553390D02*
X96620476Y-134505771D01*
X96620476Y-134505771D02*
X96858571Y-134505771D01*
X96858571Y-134505771D02*
X96953809Y-134553390D01*
X96953809Y-134553390D02*
X97001428Y-134601009D01*
X97001428Y-134601009D02*
X97049047Y-134696247D01*
X97049047Y-134696247D02*
X97049047Y-134934342D01*
X97049047Y-134934342D02*
X97001428Y-135029580D01*
X97001428Y-135029580D02*
X96953809Y-135077200D01*
X96953809Y-135077200D02*
X96858571Y-135124819D01*
X96858571Y-135124819D02*
X96620476Y-135124819D01*
X96620476Y-135124819D02*
X96525238Y-135077200D01*
X96525238Y-135077200D02*
X96477619Y-135029580D01*
X97382381Y-135124819D02*
X97906190Y-134458152D01*
X97382381Y-134458152D02*
X97906190Y-135124819D01*
X98287143Y-135124819D02*
X98287143Y-134124819D01*
X98287143Y-134124819D02*
X98668095Y-134124819D01*
X98668095Y-134124819D02*
X98763333Y-134172438D01*
X98763333Y-134172438D02*
X98810952Y-134220057D01*
X98810952Y-134220057D02*
X98858571Y-134315295D01*
X98858571Y-134315295D02*
X98858571Y-134458152D01*
X98858571Y-134458152D02*
X98810952Y-134553390D01*
X98810952Y-134553390D02*
X98763333Y-134601009D01*
X98763333Y-134601009D02*
X98668095Y-134648628D01*
X98668095Y-134648628D02*
X98287143Y-134648628D01*
X115582857Y-103654819D02*
X116059047Y-103654819D01*
X116059047Y-103654819D02*
X116059047Y-102654819D01*
X115249523Y-103131009D02*
X114916190Y-103131009D01*
X114773333Y-103654819D02*
X115249523Y-103654819D01*
X115249523Y-103654819D02*
X115249523Y-102654819D01*
X115249523Y-102654819D02*
X114773333Y-102654819D01*
X114344761Y-103654819D02*
X114344761Y-102654819D01*
X114344761Y-102654819D02*
X114106666Y-102654819D01*
X114106666Y-102654819D02*
X113963809Y-102702438D01*
X113963809Y-102702438D02*
X113868571Y-102797676D01*
X113868571Y-102797676D02*
X113820952Y-102892914D01*
X113820952Y-102892914D02*
X113773333Y-103083390D01*
X113773333Y-103083390D02*
X113773333Y-103226247D01*
X113773333Y-103226247D02*
X113820952Y-103416723D01*
X113820952Y-103416723D02*
X113868571Y-103511961D01*
X113868571Y-103511961D02*
X113963809Y-103607200D01*
X113963809Y-103607200D02*
X114106666Y-103654819D01*
X114106666Y-103654819D02*
X114344761Y-103654819D01*
X95777857Y-86254819D02*
X96254047Y-86254819D01*
X96254047Y-86254819D02*
X96254047Y-85254819D01*
X95444523Y-85731009D02*
X95111190Y-85731009D01*
X94968333Y-86254819D02*
X95444523Y-86254819D01*
X95444523Y-86254819D02*
X95444523Y-85254819D01*
X95444523Y-85254819D02*
X94968333Y-85254819D01*
X94539761Y-86254819D02*
X94539761Y-85254819D01*
X94539761Y-85254819D02*
X94301666Y-85254819D01*
X94301666Y-85254819D02*
X94158809Y-85302438D01*
X94158809Y-85302438D02*
X94063571Y-85397676D01*
X94063571Y-85397676D02*
X94015952Y-85492914D01*
X94015952Y-85492914D02*
X93968333Y-85683390D01*
X93968333Y-85683390D02*
X93968333Y-85826247D01*
X93968333Y-85826247D02*
X94015952Y-86016723D01*
X94015952Y-86016723D02*
X94063571Y-86111961D01*
X94063571Y-86111961D02*
X94158809Y-86207200D01*
X94158809Y-86207200D02*
X94301666Y-86254819D01*
X94301666Y-86254819D02*
X94539761Y-86254819D01*
X120105713Y-147254819D02*
X119486666Y-147254819D01*
X119486666Y-147254819D02*
X119819999Y-147635771D01*
X119819999Y-147635771D02*
X119677142Y-147635771D01*
X119677142Y-147635771D02*
X119581904Y-147683390D01*
X119581904Y-147683390D02*
X119534285Y-147731009D01*
X119534285Y-147731009D02*
X119486666Y-147826247D01*
X119486666Y-147826247D02*
X119486666Y-148064342D01*
X119486666Y-148064342D02*
X119534285Y-148159580D01*
X119534285Y-148159580D02*
X119581904Y-148207200D01*
X119581904Y-148207200D02*
X119677142Y-148254819D01*
X119677142Y-148254819D02*
X119962856Y-148254819D01*
X119962856Y-148254819D02*
X120058094Y-148207200D01*
X120058094Y-148207200D02*
X120105713Y-148159580D01*
X119153332Y-147254819D02*
X118534285Y-147254819D01*
X118534285Y-147254819D02*
X118867618Y-147635771D01*
X118867618Y-147635771D02*
X118724761Y-147635771D01*
X118724761Y-147635771D02*
X118629523Y-147683390D01*
X118629523Y-147683390D02*
X118581904Y-147731009D01*
X118581904Y-147731009D02*
X118534285Y-147826247D01*
X118534285Y-147826247D02*
X118534285Y-148064342D01*
X118534285Y-148064342D02*
X118581904Y-148159580D01*
X118581904Y-148159580D02*
X118629523Y-148207200D01*
X118629523Y-148207200D02*
X118724761Y-148254819D01*
X118724761Y-148254819D02*
X119010475Y-148254819D01*
X119010475Y-148254819D02*
X119105713Y-148207200D01*
X119105713Y-148207200D02*
X119153332Y-148159580D01*
X117915237Y-147254819D02*
X117819999Y-147254819D01*
X117819999Y-147254819D02*
X117724761Y-147302438D01*
X117724761Y-147302438D02*
X117677142Y-147350057D01*
X117677142Y-147350057D02*
X117629523Y-147445295D01*
X117629523Y-147445295D02*
X117581904Y-147635771D01*
X117581904Y-147635771D02*
X117581904Y-147873866D01*
X117581904Y-147873866D02*
X117629523Y-148064342D01*
X117629523Y-148064342D02*
X117677142Y-148159580D01*
X117677142Y-148159580D02*
X117724761Y-148207200D01*
X117724761Y-148207200D02*
X117819999Y-148254819D01*
X117819999Y-148254819D02*
X117915237Y-148254819D01*
X117915237Y-148254819D02*
X118010475Y-148207200D01*
X118010475Y-148207200D02*
X118058094Y-148159580D01*
X118058094Y-148159580D02*
X118105713Y-148064342D01*
X118105713Y-148064342D02*
X118153332Y-147873866D01*
X118153332Y-147873866D02*
X118153332Y-147635771D01*
X118153332Y-147635771D02*
X118105713Y-147445295D01*
X118105713Y-147445295D02*
X118058094Y-147350057D01*
X118058094Y-147350057D02*
X118010475Y-147302438D01*
X118010475Y-147302438D02*
X117915237Y-147254819D01*
X94954285Y-147254819D02*
X95430475Y-147254819D01*
X95430475Y-147254819D02*
X95478094Y-147731009D01*
X95478094Y-147731009D02*
X95430475Y-147683390D01*
X95430475Y-147683390D02*
X95335237Y-147635771D01*
X95335237Y-147635771D02*
X95097142Y-147635771D01*
X95097142Y-147635771D02*
X95001904Y-147683390D01*
X95001904Y-147683390D02*
X94954285Y-147731009D01*
X94954285Y-147731009D02*
X94906666Y-147826247D01*
X94906666Y-147826247D02*
X94906666Y-148064342D01*
X94906666Y-148064342D02*
X94954285Y-148159580D01*
X94954285Y-148159580D02*
X95001904Y-148207200D01*
X95001904Y-148207200D02*
X95097142Y-148254819D01*
X95097142Y-148254819D02*
X95335237Y-148254819D01*
X95335237Y-148254819D02*
X95430475Y-148207200D01*
X95430475Y-148207200D02*
X95478094Y-148159580D01*
X93954285Y-148254819D02*
X94525713Y-148254819D01*
X94239999Y-148254819D02*
X94239999Y-147254819D01*
X94239999Y-147254819D02*
X94335237Y-147397676D01*
X94335237Y-147397676D02*
X94430475Y-147492914D01*
X94430475Y-147492914D02*
X94525713Y-147540533D01*
X93001904Y-148254819D02*
X93573332Y-148254819D01*
X93287618Y-148254819D02*
X93287618Y-147254819D01*
X93287618Y-147254819D02*
X93382856Y-147397676D01*
X93382856Y-147397676D02*
X93478094Y-147492914D01*
X93478094Y-147492914D02*
X93573332Y-147540533D01*
X92573332Y-148254819D02*
X92573332Y-147254819D01*
X92001904Y-148254819D02*
X92430475Y-147683390D01*
X92001904Y-147254819D02*
X92573332Y-147826247D01*
X107345713Y-125254819D02*
X106726666Y-125254819D01*
X106726666Y-125254819D02*
X107059999Y-125635771D01*
X107059999Y-125635771D02*
X106917142Y-125635771D01*
X106917142Y-125635771D02*
X106821904Y-125683390D01*
X106821904Y-125683390D02*
X106774285Y-125731009D01*
X106774285Y-125731009D02*
X106726666Y-125826247D01*
X106726666Y-125826247D02*
X106726666Y-126064342D01*
X106726666Y-126064342D02*
X106774285Y-126159580D01*
X106774285Y-126159580D02*
X106821904Y-126207200D01*
X106821904Y-126207200D02*
X106917142Y-126254819D01*
X106917142Y-126254819D02*
X107202856Y-126254819D01*
X107202856Y-126254819D02*
X107298094Y-126207200D01*
X107298094Y-126207200D02*
X107345713Y-126159580D01*
X106393332Y-125254819D02*
X105774285Y-125254819D01*
X105774285Y-125254819D02*
X106107618Y-125635771D01*
X106107618Y-125635771D02*
X105964761Y-125635771D01*
X105964761Y-125635771D02*
X105869523Y-125683390D01*
X105869523Y-125683390D02*
X105821904Y-125731009D01*
X105821904Y-125731009D02*
X105774285Y-125826247D01*
X105774285Y-125826247D02*
X105774285Y-126064342D01*
X105774285Y-126064342D02*
X105821904Y-126159580D01*
X105821904Y-126159580D02*
X105869523Y-126207200D01*
X105869523Y-126207200D02*
X105964761Y-126254819D01*
X105964761Y-126254819D02*
X106250475Y-126254819D01*
X106250475Y-126254819D02*
X106345713Y-126207200D01*
X106345713Y-126207200D02*
X106393332Y-126159580D01*
X105155237Y-125254819D02*
X105059999Y-125254819D01*
X105059999Y-125254819D02*
X104964761Y-125302438D01*
X104964761Y-125302438D02*
X104917142Y-125350057D01*
X104917142Y-125350057D02*
X104869523Y-125445295D01*
X104869523Y-125445295D02*
X104821904Y-125635771D01*
X104821904Y-125635771D02*
X104821904Y-125873866D01*
X104821904Y-125873866D02*
X104869523Y-126064342D01*
X104869523Y-126064342D02*
X104917142Y-126159580D01*
X104917142Y-126159580D02*
X104964761Y-126207200D01*
X104964761Y-126207200D02*
X105059999Y-126254819D01*
X105059999Y-126254819D02*
X105155237Y-126254819D01*
X105155237Y-126254819D02*
X105250475Y-126207200D01*
X105250475Y-126207200D02*
X105298094Y-126159580D01*
X105298094Y-126159580D02*
X105345713Y-126064342D01*
X105345713Y-126064342D02*
X105393332Y-125873866D01*
X105393332Y-125873866D02*
X105393332Y-125635771D01*
X105393332Y-125635771D02*
X105345713Y-125445295D01*
X105345713Y-125445295D02*
X105298094Y-125350057D01*
X105298094Y-125350057D02*
X105250475Y-125302438D01*
X105250475Y-125302438D02*
X105155237Y-125254819D01*
X115227757Y-94454819D02*
X115703947Y-94454819D01*
X115703947Y-94454819D02*
X115751566Y-94931009D01*
X115751566Y-94931009D02*
X115703947Y-94883390D01*
X115703947Y-94883390D02*
X115608709Y-94835771D01*
X115608709Y-94835771D02*
X115370614Y-94835771D01*
X115370614Y-94835771D02*
X115275376Y-94883390D01*
X115275376Y-94883390D02*
X115227757Y-94931009D01*
X115227757Y-94931009D02*
X115180138Y-95026247D01*
X115180138Y-95026247D02*
X115180138Y-95264342D01*
X115180138Y-95264342D02*
X115227757Y-95359580D01*
X115227757Y-95359580D02*
X115275376Y-95407200D01*
X115275376Y-95407200D02*
X115370614Y-95454819D01*
X115370614Y-95454819D02*
X115608709Y-95454819D01*
X115608709Y-95454819D02*
X115703947Y-95407200D01*
X115703947Y-95407200D02*
X115751566Y-95359580D01*
X114322995Y-94788152D02*
X114322995Y-95454819D01*
X114751566Y-94788152D02*
X114751566Y-95311961D01*
X114751566Y-95311961D02*
X114703947Y-95407200D01*
X114703947Y-95407200D02*
X114608709Y-95454819D01*
X114608709Y-95454819D02*
X114465852Y-95454819D01*
X114465852Y-95454819D02*
X114370614Y-95407200D01*
X114370614Y-95407200D02*
X114322995Y-95359580D01*
X113513471Y-94931009D02*
X113846804Y-94931009D01*
X113846804Y-95454819D02*
X113846804Y-94454819D01*
X113846804Y-94454819D02*
X113370614Y-94454819D01*
X108256328Y-51054819D02*
X108827756Y-51054819D01*
X108542042Y-51054819D02*
X108542042Y-50054819D01*
X108542042Y-50054819D02*
X108637280Y-50197676D01*
X108637280Y-50197676D02*
X108732518Y-50292914D01*
X108732518Y-50292914D02*
X108827756Y-50340533D01*
X107637280Y-50054819D02*
X107542042Y-50054819D01*
X107542042Y-50054819D02*
X107446804Y-50102438D01*
X107446804Y-50102438D02*
X107399185Y-50150057D01*
X107399185Y-50150057D02*
X107351566Y-50245295D01*
X107351566Y-50245295D02*
X107303947Y-50435771D01*
X107303947Y-50435771D02*
X107303947Y-50673866D01*
X107303947Y-50673866D02*
X107351566Y-50864342D01*
X107351566Y-50864342D02*
X107399185Y-50959580D01*
X107399185Y-50959580D02*
X107446804Y-51007200D01*
X107446804Y-51007200D02*
X107542042Y-51054819D01*
X107542042Y-51054819D02*
X107637280Y-51054819D01*
X107637280Y-51054819D02*
X107732518Y-51007200D01*
X107732518Y-51007200D02*
X107780137Y-50959580D01*
X107780137Y-50959580D02*
X107827756Y-50864342D01*
X107827756Y-50864342D02*
X107875375Y-50673866D01*
X107875375Y-50673866D02*
X107875375Y-50435771D01*
X107875375Y-50435771D02*
X107827756Y-50245295D01*
X107827756Y-50245295D02*
X107780137Y-50150057D01*
X107780137Y-50150057D02*
X107732518Y-50102438D01*
X107732518Y-50102438D02*
X107637280Y-50054819D01*
X106875375Y-50388152D02*
X106875375Y-51054819D01*
X106875375Y-50483390D02*
X106827756Y-50435771D01*
X106827756Y-50435771D02*
X106732518Y-50388152D01*
X106732518Y-50388152D02*
X106589661Y-50388152D01*
X106589661Y-50388152D02*
X106494423Y-50435771D01*
X106494423Y-50435771D02*
X106446804Y-50531009D01*
X106446804Y-50531009D02*
X106446804Y-51054819D01*
X105637280Y-50531009D02*
X105970613Y-50531009D01*
X105970613Y-51054819D02*
X105970613Y-50054819D01*
X105970613Y-50054819D02*
X105494423Y-50054819D01*
X116278094Y-116150057D02*
X116230475Y-116102438D01*
X116230475Y-116102438D02*
X116135237Y-116054819D01*
X116135237Y-116054819D02*
X115897142Y-116054819D01*
X115897142Y-116054819D02*
X115801904Y-116102438D01*
X115801904Y-116102438D02*
X115754285Y-116150057D01*
X115754285Y-116150057D02*
X115706666Y-116245295D01*
X115706666Y-116245295D02*
X115706666Y-116340533D01*
X115706666Y-116340533D02*
X115754285Y-116483390D01*
X115754285Y-116483390D02*
X116325713Y-117054819D01*
X116325713Y-117054819D02*
X115706666Y-117054819D01*
X115325713Y-116150057D02*
X115278094Y-116102438D01*
X115278094Y-116102438D02*
X115182856Y-116054819D01*
X115182856Y-116054819D02*
X114944761Y-116054819D01*
X114944761Y-116054819D02*
X114849523Y-116102438D01*
X114849523Y-116102438D02*
X114801904Y-116150057D01*
X114801904Y-116150057D02*
X114754285Y-116245295D01*
X114754285Y-116245295D02*
X114754285Y-116340533D01*
X114754285Y-116340533D02*
X114801904Y-116483390D01*
X114801904Y-116483390D02*
X115373332Y-117054819D01*
X115373332Y-117054819D02*
X114754285Y-117054819D01*
X114135237Y-116054819D02*
X114039999Y-116054819D01*
X114039999Y-116054819D02*
X113944761Y-116102438D01*
X113944761Y-116102438D02*
X113897142Y-116150057D01*
X113897142Y-116150057D02*
X113849523Y-116245295D01*
X113849523Y-116245295D02*
X113801904Y-116435771D01*
X113801904Y-116435771D02*
X113801904Y-116673866D01*
X113801904Y-116673866D02*
X113849523Y-116864342D01*
X113849523Y-116864342D02*
X113897142Y-116959580D01*
X113897142Y-116959580D02*
X113944761Y-117007200D01*
X113944761Y-117007200D02*
X114039999Y-117054819D01*
X114039999Y-117054819D02*
X114135237Y-117054819D01*
X114135237Y-117054819D02*
X114230475Y-117007200D01*
X114230475Y-117007200D02*
X114278094Y-116959580D01*
X114278094Y-116959580D02*
X114325713Y-116864342D01*
X114325713Y-116864342D02*
X114373332Y-116673866D01*
X114373332Y-116673866D02*
X114373332Y-116435771D01*
X114373332Y-116435771D02*
X114325713Y-116245295D01*
X114325713Y-116245295D02*
X114278094Y-116150057D01*
X114278094Y-116150057D02*
X114230475Y-116102438D01*
X114230475Y-116102438D02*
X114135237Y-116054819D01*
X113373332Y-117054819D02*
X113373332Y-116054819D01*
X112801904Y-117054819D02*
X113230475Y-116483390D01*
X112801904Y-116054819D02*
X113373332Y-116626247D01*
X113772857Y-83254819D02*
X114249047Y-83254819D01*
X114249047Y-83254819D02*
X114249047Y-82254819D01*
X113439523Y-82731009D02*
X113106190Y-82731009D01*
X112963333Y-83254819D02*
X113439523Y-83254819D01*
X113439523Y-83254819D02*
X113439523Y-82254819D01*
X113439523Y-82254819D02*
X112963333Y-82254819D01*
X112534761Y-83254819D02*
X112534761Y-82254819D01*
X112534761Y-82254819D02*
X112296666Y-82254819D01*
X112296666Y-82254819D02*
X112153809Y-82302438D01*
X112153809Y-82302438D02*
X112058571Y-82397676D01*
X112058571Y-82397676D02*
X112010952Y-82492914D01*
X112010952Y-82492914D02*
X111963333Y-82683390D01*
X111963333Y-82683390D02*
X111963333Y-82826247D01*
X111963333Y-82826247D02*
X112010952Y-83016723D01*
X112010952Y-83016723D02*
X112058571Y-83111961D01*
X112058571Y-83111961D02*
X112153809Y-83207200D01*
X112153809Y-83207200D02*
X112296666Y-83254819D01*
X112296666Y-83254819D02*
X112534761Y-83254819D01*
X101291363Y-77923889D02*
X101131142Y-78521843D01*
X101131142Y-78521843D02*
X101585387Y-78298466D01*
X101585387Y-78298466D02*
X101548413Y-78436455D01*
X101548413Y-78436455D02*
X101569760Y-78540773D01*
X101569760Y-78540773D02*
X101603431Y-78599094D01*
X101603431Y-78599094D02*
X101683100Y-78669740D01*
X101683100Y-78669740D02*
X101913082Y-78731363D01*
X101913082Y-78731363D02*
X102017400Y-78710016D01*
X102017400Y-78710016D02*
X102075721Y-78676345D01*
X102075721Y-78676345D02*
X102146367Y-78596676D01*
X102146367Y-78596676D02*
X102220315Y-78320698D01*
X102220315Y-78320698D02*
X102198968Y-78216380D01*
X102198968Y-78216380D02*
X102165296Y-78158059D01*
X101044869Y-78843818D02*
X100884648Y-79441773D01*
X100884648Y-79441773D02*
X101338892Y-79218395D01*
X101338892Y-79218395D02*
X101301918Y-79356384D01*
X101301918Y-79356384D02*
X101323265Y-79460702D01*
X101323265Y-79460702D02*
X101356937Y-79519023D01*
X101356937Y-79519023D02*
X101436605Y-79589669D01*
X101436605Y-79589669D02*
X101666588Y-79651293D01*
X101666588Y-79651293D02*
X101770905Y-79629946D01*
X101770905Y-79629946D02*
X101829227Y-79596274D01*
X101829227Y-79596274D02*
X101899872Y-79516606D01*
X101899872Y-79516606D02*
X101973821Y-79240627D01*
X101973821Y-79240627D02*
X101952474Y-79136309D01*
X101952474Y-79136309D02*
X101918802Y-79077988D01*
X100724426Y-80039727D02*
X100699777Y-80131720D01*
X100699777Y-80131720D02*
X100721124Y-80236037D01*
X100721124Y-80236037D02*
X100754796Y-80294358D01*
X100754796Y-80294358D02*
X100834464Y-80365004D01*
X100834464Y-80365004D02*
X101006125Y-80460300D01*
X101006125Y-80460300D02*
X101236107Y-80521923D01*
X101236107Y-80521923D02*
X101432418Y-80525226D01*
X101432418Y-80525226D02*
X101536736Y-80503879D01*
X101536736Y-80503879D02*
X101595057Y-80470207D01*
X101595057Y-80470207D02*
X101665703Y-80390539D01*
X101665703Y-80390539D02*
X101690352Y-80298546D01*
X101690352Y-80298546D02*
X101669005Y-80194228D01*
X101669005Y-80194228D02*
X101635333Y-80135907D01*
X101635333Y-80135907D02*
X101555665Y-80065261D01*
X101555665Y-80065261D02*
X101384004Y-79969966D01*
X101384004Y-79969966D02*
X101154022Y-79908342D01*
X101154022Y-79908342D02*
X100957711Y-79905040D01*
X100957711Y-79905040D02*
X100853393Y-79926387D01*
X100853393Y-79926387D02*
X100795072Y-79960058D01*
X100795072Y-79960058D02*
X100724426Y-80039727D01*
X101772857Y-51058819D02*
X102249047Y-51058819D01*
X102249047Y-51058819D02*
X102249047Y-50058819D01*
X101439523Y-50535009D02*
X101106190Y-50535009D01*
X100963333Y-51058819D02*
X101439523Y-51058819D01*
X101439523Y-51058819D02*
X101439523Y-50058819D01*
X101439523Y-50058819D02*
X100963333Y-50058819D01*
X100534761Y-51058819D02*
X100534761Y-50058819D01*
X100534761Y-50058819D02*
X100296666Y-50058819D01*
X100296666Y-50058819D02*
X100153809Y-50106438D01*
X100153809Y-50106438D02*
X100058571Y-50201676D01*
X100058571Y-50201676D02*
X100010952Y-50296914D01*
X100010952Y-50296914D02*
X99963333Y-50487390D01*
X99963333Y-50487390D02*
X99963333Y-50630247D01*
X99963333Y-50630247D02*
X100010952Y-50820723D01*
X100010952Y-50820723D02*
X100058571Y-50915961D01*
X100058571Y-50915961D02*
X100153809Y-51011200D01*
X100153809Y-51011200D02*
X100296666Y-51058819D01*
X100296666Y-51058819D02*
X100534761Y-51058819D01*
X107425713Y-104654819D02*
X106806666Y-104654819D01*
X106806666Y-104654819D02*
X107139999Y-105035771D01*
X107139999Y-105035771D02*
X106997142Y-105035771D01*
X106997142Y-105035771D02*
X106901904Y-105083390D01*
X106901904Y-105083390D02*
X106854285Y-105131009D01*
X106854285Y-105131009D02*
X106806666Y-105226247D01*
X106806666Y-105226247D02*
X106806666Y-105464342D01*
X106806666Y-105464342D02*
X106854285Y-105559580D01*
X106854285Y-105559580D02*
X106901904Y-105607200D01*
X106901904Y-105607200D02*
X106997142Y-105654819D01*
X106997142Y-105654819D02*
X107282856Y-105654819D01*
X107282856Y-105654819D02*
X107378094Y-105607200D01*
X107378094Y-105607200D02*
X107425713Y-105559580D01*
X106473332Y-104654819D02*
X105854285Y-104654819D01*
X105854285Y-104654819D02*
X106187618Y-105035771D01*
X106187618Y-105035771D02*
X106044761Y-105035771D01*
X106044761Y-105035771D02*
X105949523Y-105083390D01*
X105949523Y-105083390D02*
X105901904Y-105131009D01*
X105901904Y-105131009D02*
X105854285Y-105226247D01*
X105854285Y-105226247D02*
X105854285Y-105464342D01*
X105854285Y-105464342D02*
X105901904Y-105559580D01*
X105901904Y-105559580D02*
X105949523Y-105607200D01*
X105949523Y-105607200D02*
X106044761Y-105654819D01*
X106044761Y-105654819D02*
X106330475Y-105654819D01*
X106330475Y-105654819D02*
X106425713Y-105607200D01*
X106425713Y-105607200D02*
X106473332Y-105559580D01*
X105235237Y-104654819D02*
X105139999Y-104654819D01*
X105139999Y-104654819D02*
X105044761Y-104702438D01*
X105044761Y-104702438D02*
X104997142Y-104750057D01*
X104997142Y-104750057D02*
X104949523Y-104845295D01*
X104949523Y-104845295D02*
X104901904Y-105035771D01*
X104901904Y-105035771D02*
X104901904Y-105273866D01*
X104901904Y-105273866D02*
X104949523Y-105464342D01*
X104949523Y-105464342D02*
X104997142Y-105559580D01*
X104997142Y-105559580D02*
X105044761Y-105607200D01*
X105044761Y-105607200D02*
X105139999Y-105654819D01*
X105139999Y-105654819D02*
X105235237Y-105654819D01*
X105235237Y-105654819D02*
X105330475Y-105607200D01*
X105330475Y-105607200D02*
X105378094Y-105559580D01*
X105378094Y-105559580D02*
X105425713Y-105464342D01*
X105425713Y-105464342D02*
X105473332Y-105273866D01*
X105473332Y-105273866D02*
X105473332Y-105035771D01*
X105473332Y-105035771D02*
X105425713Y-104845295D01*
X105425713Y-104845295D02*
X105378094Y-104750057D01*
X105378094Y-104750057D02*
X105330475Y-104702438D01*
X105330475Y-104702438D02*
X105235237Y-104654819D01*
X103382857Y-68254819D02*
X103859047Y-68254819D01*
X103859047Y-68254819D02*
X103859047Y-67254819D01*
X103049523Y-67731009D02*
X102716190Y-67731009D01*
X102573333Y-68254819D02*
X103049523Y-68254819D01*
X103049523Y-68254819D02*
X103049523Y-67254819D01*
X103049523Y-67254819D02*
X102573333Y-67254819D01*
X102144761Y-68254819D02*
X102144761Y-67254819D01*
X102144761Y-67254819D02*
X101906666Y-67254819D01*
X101906666Y-67254819D02*
X101763809Y-67302438D01*
X101763809Y-67302438D02*
X101668571Y-67397676D01*
X101668571Y-67397676D02*
X101620952Y-67492914D01*
X101620952Y-67492914D02*
X101573333Y-67683390D01*
X101573333Y-67683390D02*
X101573333Y-67826247D01*
X101573333Y-67826247D02*
X101620952Y-68016723D01*
X101620952Y-68016723D02*
X101668571Y-68111961D01*
X101668571Y-68111961D02*
X101763809Y-68207200D01*
X101763809Y-68207200D02*
X101906666Y-68254819D01*
X101906666Y-68254819D02*
X102144761Y-68254819D01*
X107425713Y-89702819D02*
X106806666Y-89702819D01*
X106806666Y-89702819D02*
X107139999Y-90083771D01*
X107139999Y-90083771D02*
X106997142Y-90083771D01*
X106997142Y-90083771D02*
X106901904Y-90131390D01*
X106901904Y-90131390D02*
X106854285Y-90179009D01*
X106854285Y-90179009D02*
X106806666Y-90274247D01*
X106806666Y-90274247D02*
X106806666Y-90512342D01*
X106806666Y-90512342D02*
X106854285Y-90607580D01*
X106854285Y-90607580D02*
X106901904Y-90655200D01*
X106901904Y-90655200D02*
X106997142Y-90702819D01*
X106997142Y-90702819D02*
X107282856Y-90702819D01*
X107282856Y-90702819D02*
X107378094Y-90655200D01*
X107378094Y-90655200D02*
X107425713Y-90607580D01*
X106473332Y-89702819D02*
X105854285Y-89702819D01*
X105854285Y-89702819D02*
X106187618Y-90083771D01*
X106187618Y-90083771D02*
X106044761Y-90083771D01*
X106044761Y-90083771D02*
X105949523Y-90131390D01*
X105949523Y-90131390D02*
X105901904Y-90179009D01*
X105901904Y-90179009D02*
X105854285Y-90274247D01*
X105854285Y-90274247D02*
X105854285Y-90512342D01*
X105854285Y-90512342D02*
X105901904Y-90607580D01*
X105901904Y-90607580D02*
X105949523Y-90655200D01*
X105949523Y-90655200D02*
X106044761Y-90702819D01*
X106044761Y-90702819D02*
X106330475Y-90702819D01*
X106330475Y-90702819D02*
X106425713Y-90655200D01*
X106425713Y-90655200D02*
X106473332Y-90607580D01*
X105235237Y-89702819D02*
X105139999Y-89702819D01*
X105139999Y-89702819D02*
X105044761Y-89750438D01*
X105044761Y-89750438D02*
X104997142Y-89798057D01*
X104997142Y-89798057D02*
X104949523Y-89893295D01*
X104949523Y-89893295D02*
X104901904Y-90083771D01*
X104901904Y-90083771D02*
X104901904Y-90321866D01*
X104901904Y-90321866D02*
X104949523Y-90512342D01*
X104949523Y-90512342D02*
X104997142Y-90607580D01*
X104997142Y-90607580D02*
X105044761Y-90655200D01*
X105044761Y-90655200D02*
X105139999Y-90702819D01*
X105139999Y-90702819D02*
X105235237Y-90702819D01*
X105235237Y-90702819D02*
X105330475Y-90655200D01*
X105330475Y-90655200D02*
X105378094Y-90607580D01*
X105378094Y-90607580D02*
X105425713Y-90512342D01*
X105425713Y-90512342D02*
X105473332Y-90321866D01*
X105473332Y-90321866D02*
X105473332Y-90083771D01*
X105473332Y-90083771D02*
X105425713Y-89893295D01*
X105425713Y-89893295D02*
X105378094Y-89798057D01*
X105378094Y-89798057D02*
X105330475Y-89750438D01*
X105330475Y-89750438D02*
X105235237Y-89702819D01*
X124442857Y-126054819D02*
X124919047Y-126054819D01*
X124919047Y-126054819D02*
X124919047Y-125054819D01*
X124109523Y-125531009D02*
X123776190Y-125531009D01*
X123633333Y-126054819D02*
X124109523Y-126054819D01*
X124109523Y-126054819D02*
X124109523Y-125054819D01*
X124109523Y-125054819D02*
X123633333Y-125054819D01*
X123204761Y-126054819D02*
X123204761Y-125054819D01*
X123204761Y-125054819D02*
X122966666Y-125054819D01*
X122966666Y-125054819D02*
X122823809Y-125102438D01*
X122823809Y-125102438D02*
X122728571Y-125197676D01*
X122728571Y-125197676D02*
X122680952Y-125292914D01*
X122680952Y-125292914D02*
X122633333Y-125483390D01*
X122633333Y-125483390D02*
X122633333Y-125626247D01*
X122633333Y-125626247D02*
X122680952Y-125816723D01*
X122680952Y-125816723D02*
X122728571Y-125911961D01*
X122728571Y-125911961D02*
X122823809Y-126007200D01*
X122823809Y-126007200D02*
X122966666Y-126054819D01*
X122966666Y-126054819D02*
X123204761Y-126054819D01*
X105005713Y-101054819D02*
X104386666Y-101054819D01*
X104386666Y-101054819D02*
X104719999Y-101435771D01*
X104719999Y-101435771D02*
X104577142Y-101435771D01*
X104577142Y-101435771D02*
X104481904Y-101483390D01*
X104481904Y-101483390D02*
X104434285Y-101531009D01*
X104434285Y-101531009D02*
X104386666Y-101626247D01*
X104386666Y-101626247D02*
X104386666Y-101864342D01*
X104386666Y-101864342D02*
X104434285Y-101959580D01*
X104434285Y-101959580D02*
X104481904Y-102007200D01*
X104481904Y-102007200D02*
X104577142Y-102054819D01*
X104577142Y-102054819D02*
X104862856Y-102054819D01*
X104862856Y-102054819D02*
X104958094Y-102007200D01*
X104958094Y-102007200D02*
X105005713Y-101959580D01*
X104053332Y-101054819D02*
X103434285Y-101054819D01*
X103434285Y-101054819D02*
X103767618Y-101435771D01*
X103767618Y-101435771D02*
X103624761Y-101435771D01*
X103624761Y-101435771D02*
X103529523Y-101483390D01*
X103529523Y-101483390D02*
X103481904Y-101531009D01*
X103481904Y-101531009D02*
X103434285Y-101626247D01*
X103434285Y-101626247D02*
X103434285Y-101864342D01*
X103434285Y-101864342D02*
X103481904Y-101959580D01*
X103481904Y-101959580D02*
X103529523Y-102007200D01*
X103529523Y-102007200D02*
X103624761Y-102054819D01*
X103624761Y-102054819D02*
X103910475Y-102054819D01*
X103910475Y-102054819D02*
X104005713Y-102007200D01*
X104005713Y-102007200D02*
X104053332Y-101959580D01*
X102815237Y-101054819D02*
X102719999Y-101054819D01*
X102719999Y-101054819D02*
X102624761Y-101102438D01*
X102624761Y-101102438D02*
X102577142Y-101150057D01*
X102577142Y-101150057D02*
X102529523Y-101245295D01*
X102529523Y-101245295D02*
X102481904Y-101435771D01*
X102481904Y-101435771D02*
X102481904Y-101673866D01*
X102481904Y-101673866D02*
X102529523Y-101864342D01*
X102529523Y-101864342D02*
X102577142Y-101959580D01*
X102577142Y-101959580D02*
X102624761Y-102007200D01*
X102624761Y-102007200D02*
X102719999Y-102054819D01*
X102719999Y-102054819D02*
X102815237Y-102054819D01*
X102815237Y-102054819D02*
X102910475Y-102007200D01*
X102910475Y-102007200D02*
X102958094Y-101959580D01*
X102958094Y-101959580D02*
X103005713Y-101864342D01*
X103005713Y-101864342D02*
X103053332Y-101673866D01*
X103053332Y-101673866D02*
X103053332Y-101435771D01*
X103053332Y-101435771D02*
X103005713Y-101245295D01*
X103005713Y-101245295D02*
X102958094Y-101150057D01*
X102958094Y-101150057D02*
X102910475Y-101102438D01*
X102910475Y-101102438D02*
X102815237Y-101054819D01*
X108654819Y-77994286D02*
X108654819Y-78613333D01*
X108654819Y-78613333D02*
X109035771Y-78280000D01*
X109035771Y-78280000D02*
X109035771Y-78422857D01*
X109035771Y-78422857D02*
X109083390Y-78518095D01*
X109083390Y-78518095D02*
X109131009Y-78565714D01*
X109131009Y-78565714D02*
X109226247Y-78613333D01*
X109226247Y-78613333D02*
X109464342Y-78613333D01*
X109464342Y-78613333D02*
X109559580Y-78565714D01*
X109559580Y-78565714D02*
X109607200Y-78518095D01*
X109607200Y-78518095D02*
X109654819Y-78422857D01*
X109654819Y-78422857D02*
X109654819Y-78137143D01*
X109654819Y-78137143D02*
X109607200Y-78041905D01*
X109607200Y-78041905D02*
X109559580Y-77994286D01*
X108654819Y-78946667D02*
X108654819Y-79565714D01*
X108654819Y-79565714D02*
X109035771Y-79232381D01*
X109035771Y-79232381D02*
X109035771Y-79375238D01*
X109035771Y-79375238D02*
X109083390Y-79470476D01*
X109083390Y-79470476D02*
X109131009Y-79518095D01*
X109131009Y-79518095D02*
X109226247Y-79565714D01*
X109226247Y-79565714D02*
X109464342Y-79565714D01*
X109464342Y-79565714D02*
X109559580Y-79518095D01*
X109559580Y-79518095D02*
X109607200Y-79470476D01*
X109607200Y-79470476D02*
X109654819Y-79375238D01*
X109654819Y-79375238D02*
X109654819Y-79089524D01*
X109654819Y-79089524D02*
X109607200Y-78994286D01*
X109607200Y-78994286D02*
X109559580Y-78946667D01*
X108654819Y-80184762D02*
X108654819Y-80280000D01*
X108654819Y-80280000D02*
X108702438Y-80375238D01*
X108702438Y-80375238D02*
X108750057Y-80422857D01*
X108750057Y-80422857D02*
X108845295Y-80470476D01*
X108845295Y-80470476D02*
X109035771Y-80518095D01*
X109035771Y-80518095D02*
X109273866Y-80518095D01*
X109273866Y-80518095D02*
X109464342Y-80470476D01*
X109464342Y-80470476D02*
X109559580Y-80422857D01*
X109559580Y-80422857D02*
X109607200Y-80375238D01*
X109607200Y-80375238D02*
X109654819Y-80280000D01*
X109654819Y-80280000D02*
X109654819Y-80184762D01*
X109654819Y-80184762D02*
X109607200Y-80089524D01*
X109607200Y-80089524D02*
X109559580Y-80041905D01*
X109559580Y-80041905D02*
X109464342Y-79994286D01*
X109464342Y-79994286D02*
X109273866Y-79946667D01*
X109273866Y-79946667D02*
X109035771Y-79946667D01*
X109035771Y-79946667D02*
X108845295Y-79994286D01*
X108845295Y-79994286D02*
X108750057Y-80041905D01*
X108750057Y-80041905D02*
X108702438Y-80089524D01*
X108702438Y-80089524D02*
X108654819Y-80184762D01*
X97172857Y-69422619D02*
X97649047Y-69422619D01*
X97649047Y-69422619D02*
X97649047Y-68422619D01*
X96839523Y-68898809D02*
X96506190Y-68898809D01*
X96363333Y-69422619D02*
X96839523Y-69422619D01*
X96839523Y-69422619D02*
X96839523Y-68422619D01*
X96839523Y-68422619D02*
X96363333Y-68422619D01*
X95934761Y-69422619D02*
X95934761Y-68422619D01*
X95934761Y-68422619D02*
X95696666Y-68422619D01*
X95696666Y-68422619D02*
X95553809Y-68470238D01*
X95553809Y-68470238D02*
X95458571Y-68565476D01*
X95458571Y-68565476D02*
X95410952Y-68660714D01*
X95410952Y-68660714D02*
X95363333Y-68851190D01*
X95363333Y-68851190D02*
X95363333Y-68994047D01*
X95363333Y-68994047D02*
X95410952Y-69184523D01*
X95410952Y-69184523D02*
X95458571Y-69279761D01*
X95458571Y-69279761D02*
X95553809Y-69375000D01*
X95553809Y-69375000D02*
X95696666Y-69422619D01*
X95696666Y-69422619D02*
X95934761Y-69422619D01*
X95454819Y-116914286D02*
X95454819Y-117533333D01*
X95454819Y-117533333D02*
X95835771Y-117200000D01*
X95835771Y-117200000D02*
X95835771Y-117342857D01*
X95835771Y-117342857D02*
X95883390Y-117438095D01*
X95883390Y-117438095D02*
X95931009Y-117485714D01*
X95931009Y-117485714D02*
X96026247Y-117533333D01*
X96026247Y-117533333D02*
X96264342Y-117533333D01*
X96264342Y-117533333D02*
X96359580Y-117485714D01*
X96359580Y-117485714D02*
X96407200Y-117438095D01*
X96407200Y-117438095D02*
X96454819Y-117342857D01*
X96454819Y-117342857D02*
X96454819Y-117057143D01*
X96454819Y-117057143D02*
X96407200Y-116961905D01*
X96407200Y-116961905D02*
X96359580Y-116914286D01*
X95454819Y-117866667D02*
X95454819Y-118485714D01*
X95454819Y-118485714D02*
X95835771Y-118152381D01*
X95835771Y-118152381D02*
X95835771Y-118295238D01*
X95835771Y-118295238D02*
X95883390Y-118390476D01*
X95883390Y-118390476D02*
X95931009Y-118438095D01*
X95931009Y-118438095D02*
X96026247Y-118485714D01*
X96026247Y-118485714D02*
X96264342Y-118485714D01*
X96264342Y-118485714D02*
X96359580Y-118438095D01*
X96359580Y-118438095D02*
X96407200Y-118390476D01*
X96407200Y-118390476D02*
X96454819Y-118295238D01*
X96454819Y-118295238D02*
X96454819Y-118009524D01*
X96454819Y-118009524D02*
X96407200Y-117914286D01*
X96407200Y-117914286D02*
X96359580Y-117866667D01*
X95454819Y-119104762D02*
X95454819Y-119200000D01*
X95454819Y-119200000D02*
X95502438Y-119295238D01*
X95502438Y-119295238D02*
X95550057Y-119342857D01*
X95550057Y-119342857D02*
X95645295Y-119390476D01*
X95645295Y-119390476D02*
X95835771Y-119438095D01*
X95835771Y-119438095D02*
X96073866Y-119438095D01*
X96073866Y-119438095D02*
X96264342Y-119390476D01*
X96264342Y-119390476D02*
X96359580Y-119342857D01*
X96359580Y-119342857D02*
X96407200Y-119295238D01*
X96407200Y-119295238D02*
X96454819Y-119200000D01*
X96454819Y-119200000D02*
X96454819Y-119104762D01*
X96454819Y-119104762D02*
X96407200Y-119009524D01*
X96407200Y-119009524D02*
X96359580Y-118961905D01*
X96359580Y-118961905D02*
X96264342Y-118914286D01*
X96264342Y-118914286D02*
X96073866Y-118866667D01*
X96073866Y-118866667D02*
X95835771Y-118866667D01*
X95835771Y-118866667D02*
X95645295Y-118914286D01*
X95645295Y-118914286D02*
X95550057Y-118961905D01*
X95550057Y-118961905D02*
X95502438Y-119009524D01*
X95502438Y-119009524D02*
X95454819Y-119104762D01*
X116582857Y-122854819D02*
X117059047Y-122854819D01*
X117059047Y-122854819D02*
X117059047Y-121854819D01*
X116249523Y-122331009D02*
X115916190Y-122331009D01*
X115773333Y-122854819D02*
X116249523Y-122854819D01*
X116249523Y-122854819D02*
X116249523Y-121854819D01*
X116249523Y-121854819D02*
X115773333Y-121854819D01*
X115344761Y-122854819D02*
X115344761Y-121854819D01*
X115344761Y-121854819D02*
X115106666Y-121854819D01*
X115106666Y-121854819D02*
X114963809Y-121902438D01*
X114963809Y-121902438D02*
X114868571Y-121997676D01*
X114868571Y-121997676D02*
X114820952Y-122092914D01*
X114820952Y-122092914D02*
X114773333Y-122283390D01*
X114773333Y-122283390D02*
X114773333Y-122426247D01*
X114773333Y-122426247D02*
X114820952Y-122616723D01*
X114820952Y-122616723D02*
X114868571Y-122711961D01*
X114868571Y-122711961D02*
X114963809Y-122807200D01*
X114963809Y-122807200D02*
X115106666Y-122854819D01*
X115106666Y-122854819D02*
X115344761Y-122854819D01*
X122182857Y-104454819D02*
X122659047Y-104454819D01*
X122659047Y-104454819D02*
X122659047Y-103454819D01*
X121849523Y-103931009D02*
X121516190Y-103931009D01*
X121373333Y-104454819D02*
X121849523Y-104454819D01*
X121849523Y-104454819D02*
X121849523Y-103454819D01*
X121849523Y-103454819D02*
X121373333Y-103454819D01*
X120944761Y-104454819D02*
X120944761Y-103454819D01*
X120944761Y-103454819D02*
X120706666Y-103454819D01*
X120706666Y-103454819D02*
X120563809Y-103502438D01*
X120563809Y-103502438D02*
X120468571Y-103597676D01*
X120468571Y-103597676D02*
X120420952Y-103692914D01*
X120420952Y-103692914D02*
X120373333Y-103883390D01*
X120373333Y-103883390D02*
X120373333Y-104026247D01*
X120373333Y-104026247D02*
X120420952Y-104216723D01*
X120420952Y-104216723D02*
X120468571Y-104311961D01*
X120468571Y-104311961D02*
X120563809Y-104407200D01*
X120563809Y-104407200D02*
X120706666Y-104454819D01*
X120706666Y-104454819D02*
X120944761Y-104454819D01*
X107545713Y-141054819D02*
X106926666Y-141054819D01*
X106926666Y-141054819D02*
X107259999Y-141435771D01*
X107259999Y-141435771D02*
X107117142Y-141435771D01*
X107117142Y-141435771D02*
X107021904Y-141483390D01*
X107021904Y-141483390D02*
X106974285Y-141531009D01*
X106974285Y-141531009D02*
X106926666Y-141626247D01*
X106926666Y-141626247D02*
X106926666Y-141864342D01*
X106926666Y-141864342D02*
X106974285Y-141959580D01*
X106974285Y-141959580D02*
X107021904Y-142007200D01*
X107021904Y-142007200D02*
X107117142Y-142054819D01*
X107117142Y-142054819D02*
X107402856Y-142054819D01*
X107402856Y-142054819D02*
X107498094Y-142007200D01*
X107498094Y-142007200D02*
X107545713Y-141959580D01*
X106593332Y-141054819D02*
X105974285Y-141054819D01*
X105974285Y-141054819D02*
X106307618Y-141435771D01*
X106307618Y-141435771D02*
X106164761Y-141435771D01*
X106164761Y-141435771D02*
X106069523Y-141483390D01*
X106069523Y-141483390D02*
X106021904Y-141531009D01*
X106021904Y-141531009D02*
X105974285Y-141626247D01*
X105974285Y-141626247D02*
X105974285Y-141864342D01*
X105974285Y-141864342D02*
X106021904Y-141959580D01*
X106021904Y-141959580D02*
X106069523Y-142007200D01*
X106069523Y-142007200D02*
X106164761Y-142054819D01*
X106164761Y-142054819D02*
X106450475Y-142054819D01*
X106450475Y-142054819D02*
X106545713Y-142007200D01*
X106545713Y-142007200D02*
X106593332Y-141959580D01*
X105355237Y-141054819D02*
X105259999Y-141054819D01*
X105259999Y-141054819D02*
X105164761Y-141102438D01*
X105164761Y-141102438D02*
X105117142Y-141150057D01*
X105117142Y-141150057D02*
X105069523Y-141245295D01*
X105069523Y-141245295D02*
X105021904Y-141435771D01*
X105021904Y-141435771D02*
X105021904Y-141673866D01*
X105021904Y-141673866D02*
X105069523Y-141864342D01*
X105069523Y-141864342D02*
X105117142Y-141959580D01*
X105117142Y-141959580D02*
X105164761Y-142007200D01*
X105164761Y-142007200D02*
X105259999Y-142054819D01*
X105259999Y-142054819D02*
X105355237Y-142054819D01*
X105355237Y-142054819D02*
X105450475Y-142007200D01*
X105450475Y-142007200D02*
X105498094Y-141959580D01*
X105498094Y-141959580D02*
X105545713Y-141864342D01*
X105545713Y-141864342D02*
X105593332Y-141673866D01*
X105593332Y-141673866D02*
X105593332Y-141435771D01*
X105593332Y-141435771D02*
X105545713Y-141245295D01*
X105545713Y-141245295D02*
X105498094Y-141150057D01*
X105498094Y-141150057D02*
X105450475Y-141102438D01*
X105450475Y-141102438D02*
X105355237Y-141054819D01*
X107545713Y-147254819D02*
X106926666Y-147254819D01*
X106926666Y-147254819D02*
X107259999Y-147635771D01*
X107259999Y-147635771D02*
X107117142Y-147635771D01*
X107117142Y-147635771D02*
X107021904Y-147683390D01*
X107021904Y-147683390D02*
X106974285Y-147731009D01*
X106974285Y-147731009D02*
X106926666Y-147826247D01*
X106926666Y-147826247D02*
X106926666Y-148064342D01*
X106926666Y-148064342D02*
X106974285Y-148159580D01*
X106974285Y-148159580D02*
X107021904Y-148207200D01*
X107021904Y-148207200D02*
X107117142Y-148254819D01*
X107117142Y-148254819D02*
X107402856Y-148254819D01*
X107402856Y-148254819D02*
X107498094Y-148207200D01*
X107498094Y-148207200D02*
X107545713Y-148159580D01*
X106593332Y-147254819D02*
X105974285Y-147254819D01*
X105974285Y-147254819D02*
X106307618Y-147635771D01*
X106307618Y-147635771D02*
X106164761Y-147635771D01*
X106164761Y-147635771D02*
X106069523Y-147683390D01*
X106069523Y-147683390D02*
X106021904Y-147731009D01*
X106021904Y-147731009D02*
X105974285Y-147826247D01*
X105974285Y-147826247D02*
X105974285Y-148064342D01*
X105974285Y-148064342D02*
X106021904Y-148159580D01*
X106021904Y-148159580D02*
X106069523Y-148207200D01*
X106069523Y-148207200D02*
X106164761Y-148254819D01*
X106164761Y-148254819D02*
X106450475Y-148254819D01*
X106450475Y-148254819D02*
X106545713Y-148207200D01*
X106545713Y-148207200D02*
X106593332Y-148159580D01*
X105355237Y-147254819D02*
X105259999Y-147254819D01*
X105259999Y-147254819D02*
X105164761Y-147302438D01*
X105164761Y-147302438D02*
X105117142Y-147350057D01*
X105117142Y-147350057D02*
X105069523Y-147445295D01*
X105069523Y-147445295D02*
X105021904Y-147635771D01*
X105021904Y-147635771D02*
X105021904Y-147873866D01*
X105021904Y-147873866D02*
X105069523Y-148064342D01*
X105069523Y-148064342D02*
X105117142Y-148159580D01*
X105117142Y-148159580D02*
X105164761Y-148207200D01*
X105164761Y-148207200D02*
X105259999Y-148254819D01*
X105259999Y-148254819D02*
X105355237Y-148254819D01*
X105355237Y-148254819D02*
X105450475Y-148207200D01*
X105450475Y-148207200D02*
X105498094Y-148159580D01*
X105498094Y-148159580D02*
X105545713Y-148064342D01*
X105545713Y-148064342D02*
X105593332Y-147873866D01*
X105593332Y-147873866D02*
X105593332Y-147635771D01*
X105593332Y-147635771D02*
X105545713Y-147445295D01*
X105545713Y-147445295D02*
X105498094Y-147350057D01*
X105498094Y-147350057D02*
X105450475Y-147302438D01*
X105450475Y-147302438D02*
X105355237Y-147254819D01*
X119582857Y-86054819D02*
X120059047Y-86054819D01*
X120059047Y-86054819D02*
X120059047Y-85054819D01*
X119249523Y-85531009D02*
X118916190Y-85531009D01*
X118773333Y-86054819D02*
X119249523Y-86054819D01*
X119249523Y-86054819D02*
X119249523Y-85054819D01*
X119249523Y-85054819D02*
X118773333Y-85054819D01*
X118344761Y-86054819D02*
X118344761Y-85054819D01*
X118344761Y-85054819D02*
X118106666Y-85054819D01*
X118106666Y-85054819D02*
X117963809Y-85102438D01*
X117963809Y-85102438D02*
X117868571Y-85197676D01*
X117868571Y-85197676D02*
X117820952Y-85292914D01*
X117820952Y-85292914D02*
X117773333Y-85483390D01*
X117773333Y-85483390D02*
X117773333Y-85626247D01*
X117773333Y-85626247D02*
X117820952Y-85816723D01*
X117820952Y-85816723D02*
X117868571Y-85911961D01*
X117868571Y-85911961D02*
X117963809Y-86007200D01*
X117963809Y-86007200D02*
X118106666Y-86054819D01*
X118106666Y-86054819D02*
X118344761Y-86054819D01*
X105194819Y-115514286D02*
X105194819Y-116133333D01*
X105194819Y-116133333D02*
X105575771Y-115800000D01*
X105575771Y-115800000D02*
X105575771Y-115942857D01*
X105575771Y-115942857D02*
X105623390Y-116038095D01*
X105623390Y-116038095D02*
X105671009Y-116085714D01*
X105671009Y-116085714D02*
X105766247Y-116133333D01*
X105766247Y-116133333D02*
X106004342Y-116133333D01*
X106004342Y-116133333D02*
X106099580Y-116085714D01*
X106099580Y-116085714D02*
X106147200Y-116038095D01*
X106147200Y-116038095D02*
X106194819Y-115942857D01*
X106194819Y-115942857D02*
X106194819Y-115657143D01*
X106194819Y-115657143D02*
X106147200Y-115561905D01*
X106147200Y-115561905D02*
X106099580Y-115514286D01*
X105194819Y-116466667D02*
X105194819Y-117085714D01*
X105194819Y-117085714D02*
X105575771Y-116752381D01*
X105575771Y-116752381D02*
X105575771Y-116895238D01*
X105575771Y-116895238D02*
X105623390Y-116990476D01*
X105623390Y-116990476D02*
X105671009Y-117038095D01*
X105671009Y-117038095D02*
X105766247Y-117085714D01*
X105766247Y-117085714D02*
X106004342Y-117085714D01*
X106004342Y-117085714D02*
X106099580Y-117038095D01*
X106099580Y-117038095D02*
X106147200Y-116990476D01*
X106147200Y-116990476D02*
X106194819Y-116895238D01*
X106194819Y-116895238D02*
X106194819Y-116609524D01*
X106194819Y-116609524D02*
X106147200Y-116514286D01*
X106147200Y-116514286D02*
X106099580Y-116466667D01*
X105194819Y-117704762D02*
X105194819Y-117800000D01*
X105194819Y-117800000D02*
X105242438Y-117895238D01*
X105242438Y-117895238D02*
X105290057Y-117942857D01*
X105290057Y-117942857D02*
X105385295Y-117990476D01*
X105385295Y-117990476D02*
X105575771Y-118038095D01*
X105575771Y-118038095D02*
X105813866Y-118038095D01*
X105813866Y-118038095D02*
X106004342Y-117990476D01*
X106004342Y-117990476D02*
X106099580Y-117942857D01*
X106099580Y-117942857D02*
X106147200Y-117895238D01*
X106147200Y-117895238D02*
X106194819Y-117800000D01*
X106194819Y-117800000D02*
X106194819Y-117704762D01*
X106194819Y-117704762D02*
X106147200Y-117609524D01*
X106147200Y-117609524D02*
X106099580Y-117561905D01*
X106099580Y-117561905D02*
X106004342Y-117514286D01*
X106004342Y-117514286D02*
X105813866Y-117466667D01*
X105813866Y-117466667D02*
X105575771Y-117466667D01*
X105575771Y-117466667D02*
X105385295Y-117514286D01*
X105385295Y-117514286D02*
X105290057Y-117561905D01*
X105290057Y-117561905D02*
X105242438Y-117609524D01*
X105242438Y-117609524D02*
X105194819Y-117704762D01*
X106194819Y-60714286D02*
X106194819Y-61333333D01*
X106194819Y-61333333D02*
X106575771Y-61000000D01*
X106575771Y-61000000D02*
X106575771Y-61142857D01*
X106575771Y-61142857D02*
X106623390Y-61238095D01*
X106623390Y-61238095D02*
X106671009Y-61285714D01*
X106671009Y-61285714D02*
X106766247Y-61333333D01*
X106766247Y-61333333D02*
X107004342Y-61333333D01*
X107004342Y-61333333D02*
X107099580Y-61285714D01*
X107099580Y-61285714D02*
X107147200Y-61238095D01*
X107147200Y-61238095D02*
X107194819Y-61142857D01*
X107194819Y-61142857D02*
X107194819Y-60857143D01*
X107194819Y-60857143D02*
X107147200Y-60761905D01*
X107147200Y-60761905D02*
X107099580Y-60714286D01*
X106194819Y-61666667D02*
X106194819Y-62285714D01*
X106194819Y-62285714D02*
X106575771Y-61952381D01*
X106575771Y-61952381D02*
X106575771Y-62095238D01*
X106575771Y-62095238D02*
X106623390Y-62190476D01*
X106623390Y-62190476D02*
X106671009Y-62238095D01*
X106671009Y-62238095D02*
X106766247Y-62285714D01*
X106766247Y-62285714D02*
X107004342Y-62285714D01*
X107004342Y-62285714D02*
X107099580Y-62238095D01*
X107099580Y-62238095D02*
X107147200Y-62190476D01*
X107147200Y-62190476D02*
X107194819Y-62095238D01*
X107194819Y-62095238D02*
X107194819Y-61809524D01*
X107194819Y-61809524D02*
X107147200Y-61714286D01*
X107147200Y-61714286D02*
X107099580Y-61666667D01*
X106194819Y-62904762D02*
X106194819Y-63000000D01*
X106194819Y-63000000D02*
X106242438Y-63095238D01*
X106242438Y-63095238D02*
X106290057Y-63142857D01*
X106290057Y-63142857D02*
X106385295Y-63190476D01*
X106385295Y-63190476D02*
X106575771Y-63238095D01*
X106575771Y-63238095D02*
X106813866Y-63238095D01*
X106813866Y-63238095D02*
X107004342Y-63190476D01*
X107004342Y-63190476D02*
X107099580Y-63142857D01*
X107099580Y-63142857D02*
X107147200Y-63095238D01*
X107147200Y-63095238D02*
X107194819Y-63000000D01*
X107194819Y-63000000D02*
X107194819Y-62904762D01*
X107194819Y-62904762D02*
X107147200Y-62809524D01*
X107147200Y-62809524D02*
X107099580Y-62761905D01*
X107099580Y-62761905D02*
X107004342Y-62714286D01*
X107004342Y-62714286D02*
X106813866Y-62666667D01*
X106813866Y-62666667D02*
X106575771Y-62666667D01*
X106575771Y-62666667D02*
X106385295Y-62714286D01*
X106385295Y-62714286D02*
X106290057Y-62761905D01*
X106290057Y-62761905D02*
X106242438Y-62809524D01*
X106242438Y-62809524D02*
X106194819Y-62904762D01*
X90157142Y-126854819D02*
X89680952Y-126854819D01*
X89680952Y-126854819D02*
X89680952Y-125854819D01*
X90490476Y-126331009D02*
X90823809Y-126331009D01*
X90966666Y-126854819D02*
X90490476Y-126854819D01*
X90490476Y-126854819D02*
X90490476Y-125854819D01*
X90490476Y-125854819D02*
X90966666Y-125854819D01*
X91395238Y-126854819D02*
X91395238Y-125854819D01*
X91395238Y-125854819D02*
X91633333Y-125854819D01*
X91633333Y-125854819D02*
X91776190Y-125902438D01*
X91776190Y-125902438D02*
X91871428Y-125997676D01*
X91871428Y-125997676D02*
X91919047Y-126092914D01*
X91919047Y-126092914D02*
X91966666Y-126283390D01*
X91966666Y-126283390D02*
X91966666Y-126426247D01*
X91966666Y-126426247D02*
X91919047Y-126616723D01*
X91919047Y-126616723D02*
X91871428Y-126711961D01*
X91871428Y-126711961D02*
X91776190Y-126807200D01*
X91776190Y-126807200D02*
X91633333Y-126854819D01*
X91633333Y-126854819D02*
X91395238Y-126854819D01*
X107545713Y-144054819D02*
X106926666Y-144054819D01*
X106926666Y-144054819D02*
X107259999Y-144435771D01*
X107259999Y-144435771D02*
X107117142Y-144435771D01*
X107117142Y-144435771D02*
X107021904Y-144483390D01*
X107021904Y-144483390D02*
X106974285Y-144531009D01*
X106974285Y-144531009D02*
X106926666Y-144626247D01*
X106926666Y-144626247D02*
X106926666Y-144864342D01*
X106926666Y-144864342D02*
X106974285Y-144959580D01*
X106974285Y-144959580D02*
X107021904Y-145007200D01*
X107021904Y-145007200D02*
X107117142Y-145054819D01*
X107117142Y-145054819D02*
X107402856Y-145054819D01*
X107402856Y-145054819D02*
X107498094Y-145007200D01*
X107498094Y-145007200D02*
X107545713Y-144959580D01*
X106593332Y-144054819D02*
X105974285Y-144054819D01*
X105974285Y-144054819D02*
X106307618Y-144435771D01*
X106307618Y-144435771D02*
X106164761Y-144435771D01*
X106164761Y-144435771D02*
X106069523Y-144483390D01*
X106069523Y-144483390D02*
X106021904Y-144531009D01*
X106021904Y-144531009D02*
X105974285Y-144626247D01*
X105974285Y-144626247D02*
X105974285Y-144864342D01*
X105974285Y-144864342D02*
X106021904Y-144959580D01*
X106021904Y-144959580D02*
X106069523Y-145007200D01*
X106069523Y-145007200D02*
X106164761Y-145054819D01*
X106164761Y-145054819D02*
X106450475Y-145054819D01*
X106450475Y-145054819D02*
X106545713Y-145007200D01*
X106545713Y-145007200D02*
X106593332Y-144959580D01*
X105355237Y-144054819D02*
X105259999Y-144054819D01*
X105259999Y-144054819D02*
X105164761Y-144102438D01*
X105164761Y-144102438D02*
X105117142Y-144150057D01*
X105117142Y-144150057D02*
X105069523Y-144245295D01*
X105069523Y-144245295D02*
X105021904Y-144435771D01*
X105021904Y-144435771D02*
X105021904Y-144673866D01*
X105021904Y-144673866D02*
X105069523Y-144864342D01*
X105069523Y-144864342D02*
X105117142Y-144959580D01*
X105117142Y-144959580D02*
X105164761Y-145007200D01*
X105164761Y-145007200D02*
X105259999Y-145054819D01*
X105259999Y-145054819D02*
X105355237Y-145054819D01*
X105355237Y-145054819D02*
X105450475Y-145007200D01*
X105450475Y-145007200D02*
X105498094Y-144959580D01*
X105498094Y-144959580D02*
X105545713Y-144864342D01*
X105545713Y-144864342D02*
X105593332Y-144673866D01*
X105593332Y-144673866D02*
X105593332Y-144435771D01*
X105593332Y-144435771D02*
X105545713Y-144245295D01*
X105545713Y-144245295D02*
X105498094Y-144150057D01*
X105498094Y-144150057D02*
X105450475Y-144102438D01*
X105450475Y-144102438D02*
X105355237Y-144054819D01*
X111382857Y-61654819D02*
X111859047Y-61654819D01*
X111859047Y-61654819D02*
X111859047Y-60654819D01*
X111049523Y-61131009D02*
X110716190Y-61131009D01*
X110573333Y-61654819D02*
X111049523Y-61654819D01*
X111049523Y-61654819D02*
X111049523Y-60654819D01*
X111049523Y-60654819D02*
X110573333Y-60654819D01*
X110144761Y-61654819D02*
X110144761Y-60654819D01*
X110144761Y-60654819D02*
X109906666Y-60654819D01*
X109906666Y-60654819D02*
X109763809Y-60702438D01*
X109763809Y-60702438D02*
X109668571Y-60797676D01*
X109668571Y-60797676D02*
X109620952Y-60892914D01*
X109620952Y-60892914D02*
X109573333Y-61083390D01*
X109573333Y-61083390D02*
X109573333Y-61226247D01*
X109573333Y-61226247D02*
X109620952Y-61416723D01*
X109620952Y-61416723D02*
X109668571Y-61511961D01*
X109668571Y-61511961D02*
X109763809Y-61607200D01*
X109763809Y-61607200D02*
X109906666Y-61654819D01*
X109906666Y-61654819D02*
X110144761Y-61654819D01*
X108582857Y-96054819D02*
X109059047Y-96054819D01*
X109059047Y-96054819D02*
X109059047Y-95054819D01*
X108249523Y-95531009D02*
X107916190Y-95531009D01*
X107773333Y-96054819D02*
X108249523Y-96054819D01*
X108249523Y-96054819D02*
X108249523Y-95054819D01*
X108249523Y-95054819D02*
X107773333Y-95054819D01*
X107344761Y-96054819D02*
X107344761Y-95054819D01*
X107344761Y-95054819D02*
X107106666Y-95054819D01*
X107106666Y-95054819D02*
X106963809Y-95102438D01*
X106963809Y-95102438D02*
X106868571Y-95197676D01*
X106868571Y-95197676D02*
X106820952Y-95292914D01*
X106820952Y-95292914D02*
X106773333Y-95483390D01*
X106773333Y-95483390D02*
X106773333Y-95626247D01*
X106773333Y-95626247D02*
X106820952Y-95816723D01*
X106820952Y-95816723D02*
X106868571Y-95911961D01*
X106868571Y-95911961D02*
X106963809Y-96007200D01*
X106963809Y-96007200D02*
X107106666Y-96054819D01*
X107106666Y-96054819D02*
X107344761Y-96054819D01*
X101642857Y-122254819D02*
X102119047Y-122254819D01*
X102119047Y-122254819D02*
X102119047Y-121254819D01*
X101309523Y-121731009D02*
X100976190Y-121731009D01*
X100833333Y-122254819D02*
X101309523Y-122254819D01*
X101309523Y-122254819D02*
X101309523Y-121254819D01*
X101309523Y-121254819D02*
X100833333Y-121254819D01*
X100404761Y-122254819D02*
X100404761Y-121254819D01*
X100404761Y-121254819D02*
X100166666Y-121254819D01*
X100166666Y-121254819D02*
X100023809Y-121302438D01*
X100023809Y-121302438D02*
X99928571Y-121397676D01*
X99928571Y-121397676D02*
X99880952Y-121492914D01*
X99880952Y-121492914D02*
X99833333Y-121683390D01*
X99833333Y-121683390D02*
X99833333Y-121826247D01*
X99833333Y-121826247D02*
X99880952Y-122016723D01*
X99880952Y-122016723D02*
X99928571Y-122111961D01*
X99928571Y-122111961D02*
X100023809Y-122207200D01*
X100023809Y-122207200D02*
X100166666Y-122254819D01*
X100166666Y-122254819D02*
X100404761Y-122254819D01*
X113837857Y-51058819D02*
X114314047Y-51058819D01*
X114314047Y-51058819D02*
X114314047Y-50058819D01*
X113504523Y-50535009D02*
X113171190Y-50535009D01*
X113028333Y-51058819D02*
X113504523Y-51058819D01*
X113504523Y-51058819D02*
X113504523Y-50058819D01*
X113504523Y-50058819D02*
X113028333Y-50058819D01*
X112599761Y-51058819D02*
X112599761Y-50058819D01*
X112599761Y-50058819D02*
X112361666Y-50058819D01*
X112361666Y-50058819D02*
X112218809Y-50106438D01*
X112218809Y-50106438D02*
X112123571Y-50201676D01*
X112123571Y-50201676D02*
X112075952Y-50296914D01*
X112075952Y-50296914D02*
X112028333Y-50487390D01*
X112028333Y-50487390D02*
X112028333Y-50630247D01*
X112028333Y-50630247D02*
X112075952Y-50820723D01*
X112075952Y-50820723D02*
X112123571Y-50915961D01*
X112123571Y-50915961D02*
X112218809Y-51011200D01*
X112218809Y-51011200D02*
X112361666Y-51058819D01*
X112361666Y-51058819D02*
X112599761Y-51058819D01*
X96274285Y-150654819D02*
X96750475Y-150654819D01*
X96750475Y-150654819D02*
X96798094Y-151131009D01*
X96798094Y-151131009D02*
X96750475Y-151083390D01*
X96750475Y-151083390D02*
X96655237Y-151035771D01*
X96655237Y-151035771D02*
X96417142Y-151035771D01*
X96417142Y-151035771D02*
X96321904Y-151083390D01*
X96321904Y-151083390D02*
X96274285Y-151131009D01*
X96274285Y-151131009D02*
X96226666Y-151226247D01*
X96226666Y-151226247D02*
X96226666Y-151464342D01*
X96226666Y-151464342D02*
X96274285Y-151559580D01*
X96274285Y-151559580D02*
X96321904Y-151607200D01*
X96321904Y-151607200D02*
X96417142Y-151654819D01*
X96417142Y-151654819D02*
X96655237Y-151654819D01*
X96655237Y-151654819D02*
X96750475Y-151607200D01*
X96750475Y-151607200D02*
X96798094Y-151559580D01*
X95274285Y-151654819D02*
X95845713Y-151654819D01*
X95559999Y-151654819D02*
X95559999Y-150654819D01*
X95559999Y-150654819D02*
X95655237Y-150797676D01*
X95655237Y-150797676D02*
X95750475Y-150892914D01*
X95750475Y-150892914D02*
X95845713Y-150940533D01*
X94321904Y-151654819D02*
X94893332Y-151654819D01*
X94607618Y-151654819D02*
X94607618Y-150654819D01*
X94607618Y-150654819D02*
X94702856Y-150797676D01*
X94702856Y-150797676D02*
X94798094Y-150892914D01*
X94798094Y-150892914D02*
X94893332Y-150940533D01*
X93893332Y-151654819D02*
X93893332Y-150654819D01*
X93321904Y-151654819D02*
X93750475Y-151083390D01*
X93321904Y-150654819D02*
X93893332Y-151226247D01*
X120630476Y-151654819D02*
X121201904Y-151654819D01*
X120916190Y-151654819D02*
X120916190Y-150654819D01*
X120916190Y-150654819D02*
X121011428Y-150797676D01*
X121011428Y-150797676D02*
X121106666Y-150892914D01*
X121106666Y-150892914D02*
X121201904Y-150940533D01*
X120011428Y-150654819D02*
X119916190Y-150654819D01*
X119916190Y-150654819D02*
X119820952Y-150702438D01*
X119820952Y-150702438D02*
X119773333Y-150750057D01*
X119773333Y-150750057D02*
X119725714Y-150845295D01*
X119725714Y-150845295D02*
X119678095Y-151035771D01*
X119678095Y-151035771D02*
X119678095Y-151273866D01*
X119678095Y-151273866D02*
X119725714Y-151464342D01*
X119725714Y-151464342D02*
X119773333Y-151559580D01*
X119773333Y-151559580D02*
X119820952Y-151607200D01*
X119820952Y-151607200D02*
X119916190Y-151654819D01*
X119916190Y-151654819D02*
X120011428Y-151654819D01*
X120011428Y-151654819D02*
X120106666Y-151607200D01*
X120106666Y-151607200D02*
X120154285Y-151559580D01*
X120154285Y-151559580D02*
X120201904Y-151464342D01*
X120201904Y-151464342D02*
X120249523Y-151273866D01*
X120249523Y-151273866D02*
X120249523Y-151035771D01*
X120249523Y-151035771D02*
X120201904Y-150845295D01*
X120201904Y-150845295D02*
X120154285Y-150750057D01*
X120154285Y-150750057D02*
X120106666Y-150702438D01*
X120106666Y-150702438D02*
X120011428Y-150654819D01*
X119249523Y-151654819D02*
X119249523Y-150654819D01*
X118678095Y-151654819D02*
X119106666Y-151083390D01*
X118678095Y-150654819D02*
X119249523Y-151226247D01*
X108150476Y-151654819D02*
X108721904Y-151654819D01*
X108436190Y-151654819D02*
X108436190Y-150654819D01*
X108436190Y-150654819D02*
X108531428Y-150797676D01*
X108531428Y-150797676D02*
X108626666Y-150892914D01*
X108626666Y-150892914D02*
X108721904Y-150940533D01*
X107531428Y-150654819D02*
X107436190Y-150654819D01*
X107436190Y-150654819D02*
X107340952Y-150702438D01*
X107340952Y-150702438D02*
X107293333Y-150750057D01*
X107293333Y-150750057D02*
X107245714Y-150845295D01*
X107245714Y-150845295D02*
X107198095Y-151035771D01*
X107198095Y-151035771D02*
X107198095Y-151273866D01*
X107198095Y-151273866D02*
X107245714Y-151464342D01*
X107245714Y-151464342D02*
X107293333Y-151559580D01*
X107293333Y-151559580D02*
X107340952Y-151607200D01*
X107340952Y-151607200D02*
X107436190Y-151654819D01*
X107436190Y-151654819D02*
X107531428Y-151654819D01*
X107531428Y-151654819D02*
X107626666Y-151607200D01*
X107626666Y-151607200D02*
X107674285Y-151559580D01*
X107674285Y-151559580D02*
X107721904Y-151464342D01*
X107721904Y-151464342D02*
X107769523Y-151273866D01*
X107769523Y-151273866D02*
X107769523Y-151035771D01*
X107769523Y-151035771D02*
X107721904Y-150845295D01*
X107721904Y-150845295D02*
X107674285Y-150750057D01*
X107674285Y-150750057D02*
X107626666Y-150702438D01*
X107626666Y-150702438D02*
X107531428Y-150654819D01*
X106769523Y-151654819D02*
X106769523Y-150654819D01*
X106198095Y-151654819D02*
X106626666Y-151083390D01*
X106198095Y-150654819D02*
X106769523Y-151226247D01*
X121003333Y-44324819D02*
X121003333Y-45039104D01*
X121003333Y-45039104D02*
X121050952Y-45181961D01*
X121050952Y-45181961D02*
X121146190Y-45277200D01*
X121146190Y-45277200D02*
X121289047Y-45324819D01*
X121289047Y-45324819D02*
X121384285Y-45324819D01*
X120003333Y-45324819D02*
X120574761Y-45324819D01*
X120289047Y-45324819D02*
X120289047Y-44324819D01*
X120289047Y-44324819D02*
X120384285Y-44467676D01*
X120384285Y-44467676D02*
X120479523Y-44562914D01*
X120479523Y-44562914D02*
X120574761Y-44610533D01*
X126122380Y-59621009D02*
X125789047Y-59621009D01*
X125646190Y-60144819D02*
X126122380Y-60144819D01*
X126122380Y-60144819D02*
X126122380Y-59144819D01*
X126122380Y-59144819D02*
X125646190Y-59144819D01*
X125217618Y-59144819D02*
X125217618Y-59954342D01*
X125217618Y-59954342D02*
X125169999Y-60049580D01*
X125169999Y-60049580D02*
X125122380Y-60097200D01*
X125122380Y-60097200D02*
X125027142Y-60144819D01*
X125027142Y-60144819D02*
X124836666Y-60144819D01*
X124836666Y-60144819D02*
X124741428Y-60097200D01*
X124741428Y-60097200D02*
X124693809Y-60049580D01*
X124693809Y-60049580D02*
X124646190Y-59954342D01*
X124646190Y-59954342D02*
X124646190Y-59144819D01*
X123598571Y-60144819D02*
X123931904Y-59668628D01*
X124169999Y-60144819D02*
X124169999Y-59144819D01*
X124169999Y-59144819D02*
X123789047Y-59144819D01*
X123789047Y-59144819D02*
X123693809Y-59192438D01*
X123693809Y-59192438D02*
X123646190Y-59240057D01*
X123646190Y-59240057D02*
X123598571Y-59335295D01*
X123598571Y-59335295D02*
X123598571Y-59478152D01*
X123598571Y-59478152D02*
X123646190Y-59573390D01*
X123646190Y-59573390D02*
X123693809Y-59621009D01*
X123693809Y-59621009D02*
X123789047Y-59668628D01*
X123789047Y-59668628D02*
X124169999Y-59668628D01*
X122979523Y-59144819D02*
X122789047Y-59144819D01*
X122789047Y-59144819D02*
X122693809Y-59192438D01*
X122693809Y-59192438D02*
X122598571Y-59287676D01*
X122598571Y-59287676D02*
X122550952Y-59478152D01*
X122550952Y-59478152D02*
X122550952Y-59811485D01*
X122550952Y-59811485D02*
X122598571Y-60001961D01*
X122598571Y-60001961D02*
X122693809Y-60097200D01*
X122693809Y-60097200D02*
X122789047Y-60144819D01*
X122789047Y-60144819D02*
X122979523Y-60144819D01*
X122979523Y-60144819D02*
X123074761Y-60097200D01*
X123074761Y-60097200D02*
X123169999Y-60001961D01*
X123169999Y-60001961D02*
X123217618Y-59811485D01*
X123217618Y-59811485D02*
X123217618Y-59478152D01*
X123217618Y-59478152D02*
X123169999Y-59287676D01*
X123169999Y-59287676D02*
X123074761Y-59192438D01*
X123074761Y-59192438D02*
X122979523Y-59144819D01*
X122360476Y-60240057D02*
X121598571Y-60240057D01*
X121360475Y-60144819D02*
X121360475Y-59144819D01*
X121360475Y-59144819D02*
X120979523Y-59144819D01*
X120979523Y-59144819D02*
X120884285Y-59192438D01*
X120884285Y-59192438D02*
X120836666Y-59240057D01*
X120836666Y-59240057D02*
X120789047Y-59335295D01*
X120789047Y-59335295D02*
X120789047Y-59478152D01*
X120789047Y-59478152D02*
X120836666Y-59573390D01*
X120836666Y-59573390D02*
X120884285Y-59621009D01*
X120884285Y-59621009D02*
X120979523Y-59668628D01*
X120979523Y-59668628D02*
X121360475Y-59668628D01*
X120455713Y-59144819D02*
X120217618Y-60144819D01*
X120217618Y-60144819D02*
X120027142Y-59430533D01*
X120027142Y-59430533D02*
X119836666Y-60144819D01*
X119836666Y-60144819D02*
X119598571Y-59144819D01*
X118646190Y-60144819D02*
X118979523Y-59668628D01*
X119217618Y-60144819D02*
X119217618Y-59144819D01*
X119217618Y-59144819D02*
X118836666Y-59144819D01*
X118836666Y-59144819D02*
X118741428Y-59192438D01*
X118741428Y-59192438D02*
X118693809Y-59240057D01*
X118693809Y-59240057D02*
X118646190Y-59335295D01*
X118646190Y-59335295D02*
X118646190Y-59478152D01*
X118646190Y-59478152D02*
X118693809Y-59573390D01*
X118693809Y-59573390D02*
X118741428Y-59621009D01*
X118741428Y-59621009D02*
X118836666Y-59668628D01*
X118836666Y-59668628D02*
X119217618Y-59668628D01*
X118455714Y-60240057D02*
X117693809Y-60240057D01*
X117503332Y-59240057D02*
X117455713Y-59192438D01*
X117455713Y-59192438D02*
X117360475Y-59144819D01*
X117360475Y-59144819D02*
X117122380Y-59144819D01*
X117122380Y-59144819D02*
X117027142Y-59192438D01*
X117027142Y-59192438D02*
X116979523Y-59240057D01*
X116979523Y-59240057D02*
X116931904Y-59335295D01*
X116931904Y-59335295D02*
X116931904Y-59430533D01*
X116931904Y-59430533D02*
X116979523Y-59573390D01*
X116979523Y-59573390D02*
X117550951Y-60144819D01*
X117550951Y-60144819D02*
X116931904Y-60144819D01*
X116598570Y-60144819D02*
X116074761Y-59478152D01*
X116598570Y-59478152D02*
X116074761Y-60144819D01*
X115217618Y-59144819D02*
X115693808Y-59144819D01*
X115693808Y-59144819D02*
X115741427Y-59621009D01*
X115741427Y-59621009D02*
X115693808Y-59573390D01*
X115693808Y-59573390D02*
X115598570Y-59525771D01*
X115598570Y-59525771D02*
X115360475Y-59525771D01*
X115360475Y-59525771D02*
X115265237Y-59573390D01*
X115265237Y-59573390D02*
X115217618Y-59621009D01*
X115217618Y-59621009D02*
X115169999Y-59716247D01*
X115169999Y-59716247D02*
X115169999Y-59954342D01*
X115169999Y-59954342D02*
X115217618Y-60049580D01*
X115217618Y-60049580D02*
X115265237Y-60097200D01*
X115265237Y-60097200D02*
X115360475Y-60144819D01*
X115360475Y-60144819D02*
X115598570Y-60144819D01*
X115598570Y-60144819D02*
X115693808Y-60097200D01*
X115693808Y-60097200D02*
X115741427Y-60049580D01*
D12*
G04 #@! TO.C,R23*
X91790000Y-149830000D02*
X91790000Y-152570000D01*
X91790000Y-151200000D02*
X91020000Y-151200000D01*
X91790000Y-152570000D02*
X98330000Y-152570000D01*
X98330000Y-149830000D02*
X91790000Y-149830000D01*
X98330000Y-151200000D02*
X99100000Y-151200000D01*
X98330000Y-152570000D02*
X98330000Y-149830000D01*
G04 #@! TO.C,R25*
X116670000Y-149830000D02*
X116670000Y-152570000D01*
X116670000Y-151200000D02*
X115900000Y-151200000D01*
X116670000Y-152570000D02*
X123210000Y-152570000D01*
X123210000Y-149830000D02*
X116670000Y-149830000D01*
X123210000Y-151200000D02*
X123980000Y-151200000D01*
X123210000Y-152570000D02*
X123210000Y-149830000D01*
G04 #@! TO.C,R24*
X104190000Y-149830000D02*
X104190000Y-152570000D01*
X104190000Y-151200000D02*
X103420000Y-151200000D01*
X104190000Y-152570000D02*
X110730000Y-152570000D01*
X110730000Y-149830000D02*
X104190000Y-149830000D01*
X110730000Y-151200000D02*
X111500000Y-151200000D01*
X110730000Y-152570000D02*
X110730000Y-149830000D01*
G04 #@! TO.C,J1*
X118070000Y-45870000D02*
X120670000Y-45870000D01*
X118070000Y-58690000D02*
X118070000Y-45870000D01*
X118070000Y-58690000D02*
X123270000Y-58690000D01*
X120670000Y-45870000D02*
X120670000Y-48470000D01*
X120670000Y-48470000D02*
X123270000Y-48470000D01*
X121940000Y-45870000D02*
X123270000Y-45870000D01*
X123270000Y-45870000D02*
X123270000Y-47200000D01*
X123270000Y-58690000D02*
X123270000Y-48470000D01*
G04 #@! TD*
M02*
