G04 #@! TF.GenerationSoftware,KiCad,Pcbnew,8.0.6*
G04 #@! TF.CreationDate,2024-11-25T12:48:26+01:00*
G04 #@! TF.ProjectId,SS-XMAS-1,53532d58-4d41-4532-9d31-2e6b69636164,rev?*
G04 #@! TF.SameCoordinates,Original*
G04 #@! TF.FileFunction,Soldermask,Top*
G04 #@! TF.FilePolarity,Negative*
%FSLAX46Y46*%
G04 Gerber Fmt 4.6, Leading zero omitted, Abs format (unit mm)*
G04 Created by KiCad (PCBNEW 8.0.6) date 2024-11-25 12:48:26*
%MOMM*%
%LPD*%
G01*
G04 APERTURE LIST*
G04 Aperture macros list*
%AMHorizOval*
0 Thick line with rounded ends*
0 $1 width*
0 $2 $3 position (X,Y) of the first rounded end (center of the circle)*
0 $4 $5 position (X,Y) of the second rounded end (center of the circle)*
0 Add line between two ends*
20,1,$1,$2,$3,$4,$5,0*
0 Add two circle primitives to create the rounded ends*
1,1,$1,$2,$3*
1,1,$1,$4,$5*%
G04 Aperture macros list end*
%ADD10R,1.600000X1.600000*%
%ADD11C,1.600000*%
%ADD12R,1.800000X1.800000*%
%ADD13C,1.800000*%
%ADD14O,1.600000X1.600000*%
%ADD15O,7.400000X3.200000*%
%ADD16HorizOval,1.600000X0.000000X0.000000X0.000000X0.000000X0*%
%ADD17R,1.700000X1.700000*%
%ADD18O,1.700000X1.700000*%
G04 APERTURE END LIST*
D10*
G04 #@! TO.C,C3*
X109840000Y-66000000D03*
D11*
X112340000Y-66000000D03*
G04 #@! TD*
D10*
G04 #@! TO.C,C4*
X109040000Y-121000000D03*
D11*
X111540000Y-121000000D03*
G04 #@! TD*
D12*
G04 #@! TO.C,D1*
X105278100Y-35372000D03*
D13*
X107818100Y-35372000D03*
G04 #@! TD*
D12*
G04 #@! TO.C,D18*
X99400000Y-97200000D03*
D13*
X101940000Y-97200000D03*
G04 #@! TD*
D12*
G04 #@! TO.C,D21*
X99000000Y-113000000D03*
D13*
X101540000Y-113000000D03*
G04 #@! TD*
D11*
G04 #@! TO.C,R9*
X101060000Y-132000000D03*
D14*
X111220000Y-132000000D03*
G04 #@! TD*
D11*
G04 #@! TO.C,R11*
X101100000Y-138400000D03*
D14*
X111260000Y-138400000D03*
G04 #@! TD*
D12*
G04 #@! TO.C,D16*
X103860000Y-83400000D03*
D13*
X106400000Y-83400000D03*
G04 #@! TD*
D10*
G04 #@! TO.C,U2*
X121340000Y-144620000D03*
D14*
X121340000Y-142080000D03*
X121340000Y-139540000D03*
X121340000Y-137000000D03*
X113720000Y-137000000D03*
X113720000Y-139540000D03*
X113720000Y-142080000D03*
X113720000Y-144620000D03*
G04 #@! TD*
D12*
G04 #@! TO.C,D23*
X109800000Y-112800000D03*
D13*
X112340000Y-112800000D03*
G04 #@! TD*
D12*
G04 #@! TO.C,D5*
X115925000Y-67376000D03*
D13*
X118465000Y-67376000D03*
G04 #@! TD*
D12*
G04 #@! TO.C,D10*
X91665000Y-102200000D03*
D13*
X94205000Y-102200000D03*
G04 #@! TD*
D11*
G04 #@! TO.C,R3*
X101060000Y-87200000D03*
D14*
X111220000Y-87200000D03*
G04 #@! TD*
D11*
G04 #@! TO.C,R18*
X105460000Y-97800000D03*
D14*
X115620000Y-97800000D03*
G04 #@! TD*
D15*
G04 #@! TO.C,TOP_RIGHT_MOUNT*
X121125000Y-32600000D03*
G04 #@! TD*
D11*
G04 #@! TO.C,R1*
X101260000Y-53800000D03*
D14*
X111420000Y-53800000D03*
G04 #@! TD*
D11*
G04 #@! TO.C,R10*
X101060000Y-135200000D03*
D14*
X111220000Y-135200000D03*
G04 #@! TD*
D12*
G04 #@! TO.C,D13*
X104860000Y-43400000D03*
D13*
X107400000Y-43400000D03*
G04 #@! TD*
D11*
G04 #@! TO.C,R8*
X101060000Y-129000000D03*
D14*
X111220000Y-129000000D03*
G04 #@! TD*
D11*
G04 #@! TO.C,R2*
X100860000Y-71440000D03*
D14*
X111020000Y-71440000D03*
G04 #@! TD*
D11*
G04 #@! TO.C,R6*
X101140000Y-108324000D03*
D14*
X111300000Y-108324000D03*
G04 #@! TD*
D10*
G04 #@! TO.C,U1*
X98740000Y-144620000D03*
D14*
X98740000Y-142080000D03*
X98740000Y-139540000D03*
X98740000Y-137000000D03*
X91120000Y-137000000D03*
X91120000Y-139540000D03*
X91120000Y-142080000D03*
X91120000Y-144620000D03*
G04 #@! TD*
D15*
G04 #@! TO.C,BOTTOM_LEFT_MOUNT*
X92000000Y-155600000D03*
G04 #@! TD*
D12*
G04 #@! TO.C,D20*
X113600000Y-101600000D03*
D13*
X116140000Y-101600000D03*
G04 #@! TD*
D12*
G04 #@! TO.C,D7*
X93865000Y-84200000D03*
D13*
X96405000Y-84200000D03*
G04 #@! TD*
D11*
G04 #@! TO.C,R27*
X113740000Y-147800000D03*
D14*
X123900000Y-147800000D03*
G04 #@! TD*
D11*
G04 #@! TO.C,R26*
X88660000Y-147800000D03*
D14*
X98820000Y-147800000D03*
G04 #@! TD*
D11*
G04 #@! TO.C,R7*
X100980000Y-125800000D03*
D14*
X111140000Y-125800000D03*
G04 #@! TD*
D10*
G04 #@! TO.C,C1*
X113334900Y-93400000D03*
D11*
X115834900Y-93400000D03*
G04 #@! TD*
D10*
G04 #@! TO.C,C2*
X105934900Y-49000000D03*
D11*
X108434900Y-49000000D03*
G04 #@! TD*
G04 #@! TO.C,R330*
X119620000Y-116600000D03*
D14*
X109460000Y-116600000D03*
G04 #@! TD*
D12*
G04 #@! TO.C,D17*
X111860000Y-81200000D03*
D13*
X114400000Y-81200000D03*
G04 #@! TD*
D11*
G04 #@! TO.C,R22*
X100170400Y-84213800D03*
D16*
X102800002Y-74399994D03*
G04 #@! TD*
D15*
G04 #@! TO.C,BOTTOM_RIGHT_MOUNT*
X121400000Y-155600000D03*
G04 #@! TD*
D12*
G04 #@! TO.C,D2*
X99860000Y-49000000D03*
D13*
X102400000Y-49000000D03*
G04 #@! TD*
D11*
G04 #@! TO.C,R5*
X101060000Y-105200000D03*
D14*
X111220000Y-105200000D03*
G04 #@! TD*
D12*
G04 #@! TO.C,D14*
X101400000Y-66200000D03*
D13*
X103940000Y-66200000D03*
G04 #@! TD*
D11*
G04 #@! TO.C,R4*
X101060000Y-90248000D03*
D14*
X111220000Y-90248000D03*
G04 #@! TD*
D12*
G04 #@! TO.C,D9*
X122325000Y-123800000D03*
D13*
X124865000Y-123800000D03*
G04 #@! TD*
D11*
G04 #@! TO.C,R19*
X98640000Y-101600000D03*
D14*
X108800000Y-101600000D03*
G04 #@! TD*
D11*
G04 #@! TO.C,R15*
X109200000Y-84360000D03*
D14*
X109200000Y-74200000D03*
G04 #@! TD*
D12*
G04 #@! TO.C,D4*
X95260000Y-67400000D03*
D13*
X97800000Y-67400000D03*
G04 #@! TD*
D11*
G04 #@! TO.C,R20*
X96000000Y-123280000D03*
D14*
X96000000Y-113120000D03*
G04 #@! TD*
D12*
G04 #@! TO.C,D12*
X114600000Y-120800000D03*
D13*
X117140000Y-120800000D03*
G04 #@! TD*
D12*
G04 #@! TO.C,D6*
X120200000Y-102200000D03*
D13*
X122740000Y-102200000D03*
G04 #@! TD*
D11*
G04 #@! TO.C,R12*
X101180000Y-141600000D03*
D14*
X111340000Y-141600000D03*
G04 #@! TD*
D11*
G04 #@! TO.C,R14*
X101180000Y-147800000D03*
D14*
X111340000Y-147800000D03*
G04 #@! TD*
D12*
G04 #@! TO.C,D11*
X117600000Y-84000000D03*
D13*
X120140000Y-84000000D03*
G04 #@! TD*
D11*
G04 #@! TO.C,R16*
X105740000Y-121880000D03*
D14*
X105740000Y-111720000D03*
G04 #@! TD*
D11*
G04 #@! TO.C,R21*
X106740000Y-67080000D03*
D14*
X106740000Y-56920000D03*
G04 #@! TD*
D12*
G04 #@! TO.C,D8*
X89460000Y-124600000D03*
D13*
X92000000Y-124600000D03*
G04 #@! TD*
D11*
G04 #@! TO.C,R13*
X101180000Y-144600000D03*
D14*
X111340000Y-144600000D03*
G04 #@! TD*
D15*
G04 #@! TO.C,TOP_LEFT_MOUNT*
X92200000Y-32600000D03*
G04 #@! TD*
D12*
G04 #@! TO.C,D15*
X109400000Y-59600000D03*
D13*
X111940000Y-59600000D03*
G04 #@! TD*
D12*
G04 #@! TO.C,D19*
X106600000Y-94000000D03*
D13*
X109140000Y-94000000D03*
G04 #@! TD*
D12*
G04 #@! TO.C,D22*
X99660000Y-120200000D03*
D13*
X102200000Y-120200000D03*
G04 #@! TD*
D12*
G04 #@! TO.C,D3*
X111925000Y-49000000D03*
D13*
X114465000Y-49000000D03*
G04 #@! TD*
D11*
G04 #@! TO.C,R23*
X100140000Y-151200000D03*
D14*
X89980000Y-151200000D03*
G04 #@! TD*
D11*
G04 #@! TO.C,R25*
X125020000Y-151200000D03*
D14*
X114860000Y-151200000D03*
G04 #@! TD*
D11*
G04 #@! TO.C,R24*
X112540000Y-151200000D03*
D14*
X102380000Y-151200000D03*
G04 #@! TD*
D17*
G04 #@! TO.C,J1*
X121940000Y-47200000D03*
D18*
X119400000Y-47200000D03*
X121940000Y-49740000D03*
X119400000Y-49740000D03*
X121940000Y-52280000D03*
X119400000Y-52280000D03*
X121940000Y-54820000D03*
X119400000Y-54820000D03*
X121940000Y-57360000D03*
X119400000Y-57360000D03*
G04 #@! TD*
M02*
